<?xml version="1.0" standalone="no"?>
<!DOCTYPE svg PUBLIC "-//W3C//DTD SVG 1.1//EN" "http://www.w3.org/Graphics/SVG/1.1/DTD/svg11.dtd" >
<svg xmlns="http://www.w3.org/2000/svg" xmlns:xlink="http://www.w3.org/1999/xlink" version="1.1">
<metadata>
Created by FontForge 20190801 at Mon Jan 12 03:04:33 1998
 By Unknown
(c)1993 Guy Jeffrey Nelson, FontShop International
</metadata>
<defs>
<font id="ProvidenceSans" horiz-adv-x="700" >
  <font-face 
    font-family="Providence Sans"
    font-weight="400"
    font-stretch="normal"
    units-per-em="1000"
    panose-1="0 0 4 0 0 0 0 0 0 0"
    ascent="800"
    descent="-200"
    x-height="361"
    cap-height="601"
    bbox="-89 -474 1118 885"
    underline-thickness="20"
    underline-position="-163"
    unicode-range="U+0020-2122"
  />
<missing-glyph horiz-adv-x="500" 
d="M63 0v700h375v-700h-375zM125 63h250v575h-250v-575z" />
    <glyph glyph-name=".notdef" horiz-adv-x="500" 
d="M63 0v700h375v-700h-375zM125 63h250v575h-250v-575z" />
    <glyph glyph-name=".null" horiz-adv-x="0" 
 />
    <glyph glyph-name="nonmarkingreturn" horiz-adv-x="350" 
 />
    <glyph glyph-name="space" unicode=" " horiz-adv-x="350" 
 />
    <glyph glyph-name="exclam" unicode="!" horiz-adv-x="279" 
d="M216 643q0 -19 -24 -100l-4 -84l4 -17l-6 -36q-2 -186 -36 -186q-48 0 -48 54q0 8 2 16l21 67v64l13 69l-1 34l18 84v37q0 13 11 22.5t24 9.5q10 0 18 -11t8 -23zM168 60q0 -24 -12.5 -43t-33.5 -19q-14 0 -32 8l-22 10l-4 14q-12 17 -12 32q0 25 20 41t46 16
q22 0 36 -18t14 -41z" />
    <glyph glyph-name="quotedbl" unicode="&#x22;" horiz-adv-x="416" 
d="M345 644q0 -12 -13 -48l1 -78l7 -40l-11 -12l-10 -15l-21 6l-26 5q-12 14 -12 24q0 13 7 46l-1 15l13 40l4 53q3 43 28 43q34 0 34 -39zM155 652q0 -13 -12 -75l3 -19l-7 -31l1 -53q0 -17 -11.5 -29.5t-28.5 -12.5q-23 0 -23 46q0 20 5 54.5t5 53.5q0 47 2 56q5 31 29 31
q37 0 37 -21z" />
    <glyph glyph-name="numbersign" unicode="#" horiz-adv-x="745" 
d="M648 465q0 -22 -19.5 -38.5t-42.5 -13.5l-52 6l-20 -22l-4 -41l12 -5l19 -13l31 -1q13 0 22.5 -12.5t9.5 -27.5q0 -22 -17 -36t-40 -14h-35q-10 0 -17 -10t-5 -22l1 -25l-21 -72l-6 -89q-1 -19 -13.5 -32.5t-30.5 -13.5q-26 0 -26 36q0 12 3 27l12 55v24l13 70q1 6 1 11
q0 35 -32 27l-35 -9l-15 3q-23 5 -39 -50q-13 -47 -13 -95q0 -84 -44 -84q-32 0 -32 48q0 25 10.5 73.5t10.5 55.5q0 13 -17 32l-20 -6l-42 -2q-47 -22 -71 -22q-47 0 -47 22q0 26 21 43l36 1l22 12l74 10q31 4 56.5 31t25.5 60q0 12 -17 22.5t-35 10.5q-37 0 -107 -16
l-10 8q-24 9 -24 18q0 49 43 53l106 9q30 3 43 14q9 8 15 30l12 43l1 35l12 21l9 37q5 19 27 19q17 0 34 -44l-16 -41l-4 -37l-9 -19q16 -48 69 -43q57 5 57 133q0 42 5 55q8 22 36 22q9 0 17 -7.5t8 -17.5l-8 -40.5t-8 -90.5q0 -28 22 -27l63 4q15 1 25 -14.5t10 -27.5z
M454 388q-52 26 -84 26q-19 0 -26 -9t-9 -20q-1 -7 0 -21q2 -17 2 -23q0 -17 -11 -48l76 15l22 -5l26 23z" />
    <glyph glyph-name="dollar" unicode="$" horiz-adv-x="601" 
d="M516 466q4 -7 4 -18q0 -26 -20 -26q-6 0 -15 4q-26 19 -51 38q-52 32 -121 32q-45 0 -96 -51l-5 -29l15 -24l3 -18l11 -16l19 -10l20 -26l56 -26l59 -35l17 -27l38 -39q6 -61 -11 -86q-14 -21 -60 -42l-96 -10q-19 -2 -36 -42q-11 -34 -22 -67q-18 -40 -52 -40
q-17 0 -17 22q0 16 14.5 41.5t16.5 42.5q1 6 5.5 19.5t4.5 18.5q0 9 -7 13l-47 27l-19 2l-24 19l-23 38l4 25q2 28 27 28q10 0 20 -14q14 -19 19 -23q46 -36 101 -49q13 -3 40 -2q20 0 45 2t23 2q23 29 23 45q0 25 -21 44l-26 23q-14 13 -43.5 17.5t-37.5 10.5
q-95 77 -95 150q0 62 58 110l9 14l49 18l21 21l23 76q11 36 31 36q14 0 24.5 -12.5t6.5 -25.5l-6 -20v-14l-7 -17l-9 -23q7 -20 39 -32l43 -16l14 -14l26 -13q27 -17 38 -32z" />
    <glyph glyph-name="percent" unicode="%" horiz-adv-x="871" 
d="M796 152q0 -60 -47 -100.5t-110 -40.5q-54 0 -91.5 40t-37.5 94q0 64 35 118.5t84 54.5q18 0 37 -9t36 -17q53 -20 73.5 -51t20.5 -89zM339 499q0 -60 -43 -99.5t-111 -39.5q-49 0 -78 21t-29 56q0 76 38 132q42 63 109 63q49 0 81.5 -40t32.5 -93zM563 532l-67 -94
l-75 -149l-26 -32l-85 -203l-18 -53q-10 -30 -31 -30q-13 0 -27 10q-17 11 -13 24l20 69l56 101l73 154l38 69l23 53l16 16l8 29q41 82 84 82q12 0 21 -8.5t9 -19.5q0 -9 -6 -18zM736 174q0 17 -43 65l-21 2q-28 22 -44 22q-26 0 -37 -59q-22 -36 -22 -58q0 -28 20.5 -48
t49.5 -20q20 0 67 25l8 25q22 22 22 46zM280 498q0 27 -17 47.5t-43 20.5q-34 0 -58 -28t-24 -65q0 -21 15.5 -37t37.5 -16q20 0 47 22l24 6q18 37 18 50z" />
    <glyph glyph-name="ampersand" unicode="&#x26;" horiz-adv-x="587" 
d="M484 496q0 -28 -37 -28q-5 0 -21 8q-20 10 -30 13l-50 14l-47 -31q-12 -5 -23 -10q-24 -14 -35 -31q-6 -9 0 -54l19 -13l33 -2l19 -29l-14 -34l-33 -5l-32 9l-26 -16q-52 -32 -52 -99q0 -6 -1 -19t-1 -14l15 -26l11 -22l16 -7q23 -24 55 -24q42 0 73 22l30 21l14 21
l34 18l24 10q7 -5 21 -24q8 -22 0 -25l-22 -20l-5 -13l-36 -35l-66 -35q-25 -10 -25 -25v-26l-11 -55l-2 -23q-2 -22 -29 -22q-29 0 -29 39q0 16 1 89l-18 18l-33 8q-70 66 -70 164q0 64 34 104l57 67q-8 19 -11 40q-2 3 2 14t4 13q0 36 20 54l84 76q16 14 16 44l1 62
q1 34 29 34q19 0 22 -37l2 -26q1 -9 -3.5 -17t-3.5 -16l2 -20q2 -21 21 -24l49 -8q58 -9 58 -47z" />
    <glyph glyph-name="quotesingle" unicode="'" horiz-adv-x="222" 
d="M159 590l-4 -17l1 -39q1 -51 -43 -51q-14 0 -24.5 9.5t-10.5 22.5q0 20 26 81v19l4 13l-1 42q0 18 26 18q13 0 15 -2.5t3 -14.5l6 -50z" />
    <glyph glyph-name="parenleft" unicode="(" horiz-adv-x="472" 
d="M398 666q0 -39 -30 -54l-72 -37l-26 -31l-17 -15q-27 -48 -83 -176q-29 -79 -35 -168l22 -166q12 -32 44 -101q3 -5 43 -58q31 -39 29 -57q-3 -36 -25 -36q-18 0 -30 12l-47 48l-40 81l-4 30l-22 50l-8 80q-8 29 -19 95q-2 31 3 83l34 109l13 65l21 42l10 38l11 11
q6 12 43 63q38 47 81 81q50 39 81 39q23 0 23 -28z" />
    <glyph glyph-name="parenright" unicode=")" horiz-adv-x="438" 
d="M341 308l-7 -56q-1 -36 -5 -71q-10 -85 -31 -152q-27 -87 -110 -183q-12 -14 -22 -41.5t-17 -34.5q-5 -6 -22 2l-17 -8l-32 14q-12 22 -12 33t24 21q5 13 19 38q9 11 30 28l105 170l10 76l17 44q3 42 3 67q0 88 -22 155q-3 9 -38 88q-21 47 -72 77l-20 17l-15 8l-18 27
l-10 8q-6 4 -6 13q0 12 8.5 22t20.5 10q44 0 98 -49q50 -46 83 -110q47 -91 49 -193z" />
    <glyph glyph-name="asterisk" unicode="*" horiz-adv-x="515" 
d="M477 525q0 -19 -14 -31l-48 4q-105 -18 -105 -23q0 -10 13 -25l20 -29v-19q12 -21 29 -62q2 -8 2 -16q0 -37 -34 -37q-19 0 -24 16q-27 98 -50 98q-4 0 -7 -4l-34 -44l-8 -53q-26 -37 -46 -37q-10 0 -17.5 10t-7.5 22q0 26 31 79t31 75q0 21 -31 8l-98 -40q-5 -2 -10 -2
q-33 0 -33 51q0 13 24 9l34 22q34 19 55 19q68 0 68 19q0 4 -2 7l-8 18l-15 55l-11 11l-7 18q-3 7 -3 14q0 28 29 28q26 0 45.5 -57t28.5 -57q5 0 41 60t57 60q10 0 18 -9t8 -19q0 -13 -5 -44l-21 -14l-37 -52l60 15l22 -5q10 10 26 10q34 0 34 -49z" />
    <glyph glyph-name="plus" unicode="+" horiz-adv-x="589" 
d="M505 330l-16 -26l-25 3h-37l-17 6l-81 -15q-22 -4 -22 -28q0 -13 6 -42l-4 -24l4 -50q1 -17 1 -31q0 -62 -31 -62q-14 0 -24.5 15.5t-10.5 34.5q0 12 8 37l-13 57l1 69q0 27 -25 27q-16 0 -62 -22l-46 9l-50 -3q-23 -1 -23 33q0 18 23 30.5t49 12.5l68 -1l21 4l46 -6
l4 44l8 19l-4 103q0 13 8.5 24t19.5 11q29 0 29 -57v-79q0 -28 1 -33q4 -17 22 -17q13 0 45.5 8.5t40.5 8.5q16 0 46 -17l31 -9z" />
    <glyph glyph-name="comma" unicode="," horiz-adv-x="295" 
d="M208 12q-9 -27 -23 -89q-9 -63 -10 -66q-9 -35 -30 -35q-41 0 -41 44q0 12 16.5 59t16.5 69q0 25 -16 37q-10 5 -31 18q-12 8 -12 37q0 35 14 61q17 31 45 31q31 0 55 -63v-21l7 -16l1 -26z" />
    <glyph glyph-name="hyphen" unicode="-" horiz-adv-x="487" 
d="M396 311q0 -24 -20 -31q-3 -1 -50 -8l-46 -7l-35 10l-42 -4l-17 5l-43 -5q-29 -3 -47.5 10t-18.5 32q0 15 10 29.5t25 15.5l60 2l47 -8l67 6l18 -5l44 3q19 1 33.5 -12t14.5 -33z" />
    <glyph glyph-name="hyphen" unicode="&#x2010;" horiz-adv-x="487" 
d="M396 311q0 -24 -20 -31q-3 -1 -50 -8l-46 -7l-35 10l-42 -4l-17 5l-43 -5q-29 -3 -47.5 10t-18.5 32q0 15 10 29.5t25 15.5l60 2l47 -8l67 6l18 -5l44 3q19 1 33.5 -12t14.5 -33z" />
    <glyph glyph-name="period" unicode="." horiz-adv-x="274" 
d="M196 100q0 -31 -20 -54.5t-45 -23.5q-23 0 -38 18.5t-15 47.5q0 53 37 58l41 4l11 -11q29 -27 29 -39z" />
    <glyph glyph-name="slash" unicode="/" horiz-adv-x="628" 
d="M534 632q0 -6 -28 -39q-39 -46 -49 -60q-28 -38 -77 -133l-24 -27l-6 -17l-36 -37q-139 -313 -211 -313q-6 0 -13 5l-3 20q-9 12 -9 19q0 11 52 68l59 80l83 166l61 78l28 61q108 174 140 174q10 0 21.5 -15t11.5 -30z" />
    <glyph glyph-name="zero" unicode="0" horiz-adv-x="644" 
d="M572 380q0 -152 -84.5 -253t-214.5 -101q-51 0 -102 59q-93 107 -93 207q0 91 26 140q11 21 35 49l32 49l28 20l72 38l97 -5l82 -13q122 -37 122 -190zM512 353q0 68 -31 104q-29 33 -101 54q-48 14 -104 7l-24 -16l-54 -27q-14 -21 -34 -54q-34 -64 -34 -115
q0 -76 48 -134.5t110 -58.5q34 0 117 35l37 36l23 18q47 96 47 151z" />
    <glyph glyph-name="one" unicode="1" horiz-adv-x="368" 
d="M245 70q1 -24 -9 -44t-29 -20q-13 0 -22.5 14.5t-8.5 22.5l3 47l-8 40l4 230l7 42l-11 110q-2 19 6 34.5t24 15.5q29 0 36 -52l4 -26l-7 -45l-4 -89l-2 -126l14 -106z" />
    <glyph glyph-name="two" unicode="2" horiz-adv-x="623" 
d="M541 102q0 -21 -20 -36t-47 -16l-115 -6l-117 -14q-10 -1 -16.5 9.5t-4.5 22.5q3 24 7 48q5 29 18 51l26 45l5 27l43 71l17 45q31 53 31 61q0 41 -19 69.5t-44 28.5q-5 0 -58 -5l-19 -18l-85 -52q-26 -48 -39 -48q-12 0 -21 10t-9 23q0 30 21.5 61t43.5 39l47 17l22 15
l33 9l36 12l13 5l71 -5q67 -39 67 -121q0 -58 -27 -126q-15 -37 -50 -101q-27 -49 -27 -62q0 -17 12.5 -28.5t29.5 -11.5l40 11h25l20 7l59 -9q31 -5 31 -28z" />
    <glyph glyph-name="three" unicode="3" horiz-adv-x="665" 
d="M574 248q0 -50 -29 -102q-32 -58 -78 -72l-97 -30l-21 -18l-45 -19l-17 -12l-28 7q-19 5 -32 46l-5 16l11 8l13 11l78 2l48 29l80 22l48 51v23l8 43q-6 13 -16 22q-26 23 -72 27q-29 2 -48 20l-5 28l25 18l33 -2l17 24q10 29 10 47q0 22 -45 46.5t-90 24.5q-10 0 -29 -3
l-16 -11l-34 -8q-14 -10 -46 -29q-55 -30 -77 -30q-14 0 -26 11t-12 25q0 16 69 73l135 45q7 2 20 2q60 0 132 -35q83 -42 79 -93l-7 -88l5 -17q64 -60 64 -102z" />
    <glyph glyph-name="four" unicode="4" horiz-adv-x="636" 
d="M524 286q0 -52 -73 -51q-10 0 -29 6t-30 6q-30 0 -30 -72q0 -9 2.5 -38.5t2.5 -35.5q0 -28 -17.5 -52.5t-41.5 -24.5q-22 0 -22 26q0 22 8.5 66.5t8.5 68.5v29l-20 19l-9 13h-61l-19 -5l-33 4q-36 4 -68 57l24 71l2 28l18 55l-1 23l9 50q13 71 51 71q27 0 27 -24
q0 -7 -28 -49l-19 -112l-17 -80l12 -12l37 1q60 -12 66 -12q51 0 51 41q0 7 -3.5 20.5t-3.5 21.5q0 6 1 11l22 99v40q0 27 3 35q6 16 27 16q22 0 21 -25l-1 -39l4 -38l-6 -24q-17 -52 -14 -84l4 -49l46 -19l75 4q24 1 24 -36z" />
    <glyph glyph-name="five" unicode="5" horiz-adv-x="643" 
d="M580 473q-2 -33 -35 -35l-67 -5l-144 6q-49 15 -61 15q-26 0 -44 -9q-21 -11 -20 -29l3 -45l-9 -17l4 -46l96 5q26 1 85 -73t59 -107q0 -56 -35.5 -99t-84.5 -46l-76 -5q-38 -12 -50 -12q-43 0 -43 27q0 16 10 32.5t19 17.5l75 6l18 8l67 4q35 43 35 67q0 21 -33 66
l-20 5l-19 13q-38 26 -66 26q-7 0 -14 -1l-90 -14q-19 -3 -19 31q0 9 24 97l16 34l-3 22l5 91q2 30 22 29l83 -3l35 -15l56 -3l17 6l52 -8l117 3q15 0 25.5 -12t9.5 -27z" />
    <glyph glyph-name="six" unicode="6" horiz-adv-x="541" 
d="M490 235q-4 -65 -26 -111q-51 -111 -182 -111q-40 0 -99 39l-40 36l-7 27q-11 25 -27 91q-4 33 -2 87l5 41l9 19l6 35l39 82q35 73 92.5 124.5t108.5 51.5q13 0 22.5 -9t9.5 -21q0 -16 -12 -28t-24 -14l-36 -6q-19 -13 -35 -25q-38 -30 -54 -53q-12 -17 -28 -51l-5 -27
l-26 -46q-6 -10 -6 -19q0 -25 30 -25q-1 0 32.5 17t55.5 15l127 -12l27 -31l21 -25zM430 205q0 31 -32.5 57t-76.5 26q-52 0 -91.5 -34.5t-39.5 -75.5q0 -34 41 -59t96 -30q14 -1 33 23l22 27l23 16q25 38 25 50z" />
    <glyph glyph-name="seven" unicode="7" horiz-adv-x="547" 
d="M464 589q0 -13 -27 -92l-18 -53l-1 -25l-42 -125l-24 -108l3 -31l-31 -93v-20q-5 -12 -16 -41q-6 -17 -10 -50l-22 -23q-4 -9 -19 -19q-12 -1 -25 24l3 27l1 34l8 14l9 53l36 72l13 55l-4 62q-1 19 12 41q20 32 22 39q8 21 40 173q3 15 -10.5 25t-32.5 10q-5 0 -33 -7.5
t-49 -7.5q-5 0 -18 2t-20 2q-17 0 -47 -5l-52 -12q-11 -3 -24 10.5t-13 29.5q0 12 11.5 21.5t22.5 10.5l57 4l53 12l25 -4l22 7l55 1q78 16 103 16q42 0 42 -29z" />
    <glyph glyph-name="eight" unicode="8" horiz-adv-x="595" 
d="M548 476q0 -43 -17 -80l-34 -73q-42 -12 -42 -25q0 -8 26 -38.5t26 -73.5q0 -95 -66 -156t-168 -61q-71 0 -94 31l-28 18l-25 49q-28 33 -28 94q0 69 72 156q2 3 26 26q14 14 14 22q0 19 -7.5 36t-7.5 32q0 45 15 66l37 53l11 46q8 33 92 33q89 0 143.5 -42.5
t54.5 -112.5zM494 466q0 29 -26 58q-33 35 -87 35q-49 0 -31 1q-18 -1 -30 -10q-38 -28 -47 -47q-8 -14 -8 -48q10 -95 90 -95l22 12l66 12q51 29 51 82zM446 163q0 90 -87 112l-46 3l-47 23q-51 2 -86 -68q-22 -43 -22 -64q0 -47 41 -83.5t95 -36.5q58 0 105 36t47 78z" />
    <glyph glyph-name="nine" unicode="9" horiz-adv-x="508" 
d="M466 416q0 -7 -25 -104v-64q0 -111 -45 -182l-75 -95l-30 -12l-22 7l-1 16q-6 7 -6 13q0 17 9 27q14 15 29 30q41 48 68 108q9 16 9 32q0 31 -21 31q-16 0 -43 -6t-80 -6q-13 0 -59 9l-14 20l-20 13l-20 53q-13 21 -13 54q0 50 27 93q24 38 80 86q27 25 55 51
q26 22 54 22q27 0 47 -32l29 -10q67 -78 67 -154zM396 412q0 45 -35 81q-31 31 -58 31q-35 0 -62 -24q-15 -14 -39 -51q-34 -52 -34 -70q0 -46 27 -72.5t73 -26.5q32 0 49 25l31 14l26 19q22 43 22 74z" />
    <glyph glyph-name="colon" unicode=":" horiz-adv-x="262" 
d="M182 440q0 -13 -9 -33l-4 -15l-15 -9q-19 -21 -35 -21q-11 0 -25 29l-2 16q-17 18 -17 29q0 27 19 47t43 20q18 0 31.5 -19t13.5 -44zM184 113q0 -45 -49 -45q-6 0 -23 11l-20 7q-12 31 -12 44q0 7 7 22l2 16l14 12l15 16l27 -5l13 -17q26 -19 26 -61z" />
    <glyph glyph-name="semicolon" unicode=";" horiz-adv-x="322" 
d="M217 367q0 -38 -20.5 -68t-48.5 -30q-23 0 -41.5 18.5t-18.5 42.5q0 10 10 42l26 19l6 15q22 8 33 8q21 0 37.5 -13t16.5 -34zM229 -52q-21 -112 -51 -112q-12 0 -21.5 9.5t-9.5 22.5q0 35 11 80l11 45q0 30 -21 30q-12 0 -34 -5l-41 35q-7 24 -7 38q0 39 14 57l7 13
l35 17q15 0 46 -9q19 -10 38 -43l7 -74l9 -16l2 -23l5 -31l-4 -16z" />
    <glyph glyph-name="less" unicode="&#x3c;" horiz-adv-x="572" 
d="M481 475q0 -32 -98 -59l-78 -39l-12 -13l-35 -17l-42 -24l-38 -30l95 -81l34 -14l40 -25l36 -7l12 -10l26 -6q36 -37 36 -54q0 -20 -13.5 -36.5t-29.5 -16.5q-7 0 -13 5l-24 20l-134 80l-159 122l-8 18l12 34l35 15q9 11 31 31q16 12 50 27l117 71l22 3l65 27
q22 25 41 25q32 0 32 -46z" />
    <glyph glyph-name="equal" unicode="=" horiz-adv-x="499" 
d="M396 324q0 -24 -9 -30q-5 -3 -29 -5l-110 -9l-63 9l-25 -3l-49 4q-35 2 -35 22q0 10 17 52l27 9l40 -5q37 -12 47 -12q7 0 23 5l20 -2l31 3l21 -4l42 6q52 0 52 -40zM406 181q0 -15 -10 -28.5t-25 -13.5h-43l-78 10l-55 -9l-29 2l-48 -4q-16 -1 -28 9t-12 26q0 12 8 27
l22 18l65 -6q25 5 35 5q7 0 52 -3l45 3l30 -6l17 7l23 -3q12 -2 21.5 -12t9.5 -22z" />
    <glyph glyph-name="greater" unicode="&#x3e;" horiz-adv-x="518" 
d="M407 293q0 -14 -12 -28l-103 -96l-11 -18l-36 -29l-82 -88l-39 -18l-9 18l-13 18l7 32l38 29l18 26q25 29 87 93q16 12 32 25.5t16 31.5q0 12 -53 37l-22 20l-72 44l-59 30l-41 40l6 15q-4 14 11 22q10 5 19 5q13 0 32 -12l70 -47l92 -45l22 -14l43 -18l12 -14
q47 -30 47 -59z" />
    <glyph glyph-name="question" unicode="?" horiz-adv-x="499" 
d="M436 486q0 -25 -18 -54q-36 -58 -71 -62l-55 -6l-27 -19l3 -98q1 -42 -44 -42q-14 0 -27 2l4 97l-7 81q-4 46 55 55l19 12l71 -4q24 23 24 48q0 38 -39 78q-44 45 -98 45q-14 0 -30 -4l-11 -13l-37 -26l-3 -48q-2 -36 -30 -36q-16 0 -27 16t-11 35q0 20 7 49q9 35 21 48
q22 24 63 39q38 14 74 14q68 0 120 -50l15 -10l27 -47l14 -19q18 -63 18 -81zM268 54l-7 -36q-2 -11 -18 -23t-34 -12q-29 0 -32 24l-6 43l-5 24q24 27 42 27q16 0 43 -10l6 -22z" />
    <glyph glyph-name="at" unicode="@" horiz-adv-x="722" 
d="M639 477q0 -87 -47 -158q-49 -74 -117 -74q-18 0 -67 20l-26 -1l-24 -18q-23 -25 -40 -25q-22 0 -40 17q-8 7 -31 38q-30 39 -30 72q0 42 56 101q62 66 128 66q34 0 41 -23q4 -13 -5 -36l4 -30l6 -9l1 -29l5 -21q-3 -19 1 -27q11 -25 21 -25q28 0 63 42q41 49 41 109
q0 59 -51 110l-54 12q-64 36 -90 36q-114 0 -161 -61l-26 -36l-22 -17q-43 -67 -43 -147q0 -124 95 -219q12 -12 43 -27l89 -8l40 -20l-9 -50h-15l-22 -10l-34 6q-24 5 -45 10q-51 14 -77 31q-74 48 -101 145q-19 70 -19 205q0 82 110 192l10 18l29 19l14 18q50 22 99 22
q119 0 204 -54q96 -61 96 -164zM384 388q0 21 -31 55l-12 -13l-25 -12q-43 -62 -43 -87q0 -11 14 -26l35 -11l30 16q32 46 32 78z" />
    <glyph glyph-name="A" unicode="A" horiz-adv-x="691" 
d="M621 79q0 -14 -19 -37.5t-31 -23.5q-9 0 -27 17l-9 27l3 40l-11 29q-8 20 -22 63q-23 108 -60 108q-6 0 -55 -10t-77 -10q-52 0 -64 -27l-15 -33l-5 -27l-13 -22l-8 -27l-27 -33l-25 -66q-4 -11 -16 -19t-19 -8q-11 0 -23.5 13.5t-12.5 27.5q0 28 39 88q4 21 18 64
q11 26 36 67l48 98l29 84l16 27l36 84q11 27 24.5 53.5t37.5 26.5q21 0 33 -14t28 -54l71 -172l6 -36l51 -115q8 -9 18 -28q5 -32 21 -89q24 -55 24 -66zM439 397q0 12 -12 44l-11 17l-10 36q-3 26 -31 26q-21 0 -45 -48q-23 -44 -23 -71q0 -39 28 -38l75 3q7 0 18 9t11 22z
" />
    <glyph glyph-name="B" unicode="B" horiz-adv-x="597" 
d="M482 195q0 -41 -31.5 -81t-85.5 -69q-57 -30 -86 -40q-46 -17 -95 -17q-33 0 -42.5 13t-4.5 47l-1 90l6 47l-2 25l13 153l-1 107l6 25l2 67l-8 43l4 19l26 16h34l21 7l33 -2q81 -5 146.5 -52t65.5 -108q0 -19 -17 -32l-29 -23l-6 -16l-42 -39q-7 -7 -7 -21q0 -7 26 -29
q33 -29 49 -51q26 -37 26 -79zM407 478l-2 16v21l-51 42q-27 22 -73 22q-27 0 -45.5 -16.5t-19.5 -41.5l-2 -72l-10 -65q-2 -11 7.5 -21.5t18.5 -10.5q7 0 20 10t20 13l51 18l33 38l44 31zM422 197q0 35 -28.5 64.5t-64.5 29.5q-34 0 -79 -18q-49 -19 -48 -37l1 -35
q0 -16 -8 -33.5t-7 -23.5q-1 -13 2 -39l13 -41l41 10q32 -4 49 3q37 15 93 53l7 16l26 24q3 21 3 27z" />
    <glyph glyph-name="C" unicode="C" horiz-adv-x="605" 
d="M544 594q-4 -10 -17 -14q-12 -3 -22 1q-15 8 -29 15q-17 8 -39 8q-69 0 -127 -44l-9 -19l-53 -45q-14 -17 -51 -75q-36 -65 -36 -141q0 -21 16 -65l28 -23l9 -17l15 -20q76 -30 116 -30q18 0 35 6l31 15l22 4l24 14l18 -9l4 -15l12 -15q-7 -43 -24 -43h-20q-9 -3 -38 -14
q-35 -10 -72 -10q-32 0 -107 19l-29 5l-40 38q-66 69 -66 163q0 78 72 209l45 72l17 11q10 11 34 36q73 60 170 60q74 0 108 -53q7 -14 3 -24z" />
    <glyph glyph-name="D" unicode="D" horiz-adv-x="664" 
d="M574 403q0 -91 -63 -182q-66 -95 -162 -127l-69 -23q-78 -59 -122 -59q-26 0 -45 17t-19 37q0 3 -3 27q-2 17 1 29l15 74l12 21l21 145l8 27v55l7 20l6 71l15 57l5 16l3 34l13 13l9 18l31 6l17 -5l15 5q33 -7 60 -15q67 -18 96 -35q62 -36 105.5 -101.5t43.5 -124.5z
M511 377q0 96 -72 162.5t-176 66.5q-9 0 -38 -40v-27l-14 -66l-3 -39l-14 -60l3 -24l-22 -150q-7 -47 -7 -65q0 -41 23 -43q10 -1 76 35q33 15 104 54q30 20 78 59l15 46l15 16l9 28q23 33 23 47z" />
    <glyph glyph-name="E" unicode="E" horiz-adv-x="635" 
d="M554 602q-23 -33 -45 -33q-5 0 -28 4.5t-30 4.5l-71 -1l-19 10h-39l-22 2q-64 6 -65 -31l-1 -36l-12 -26l-6 -62q-3 -36 6 -52q9 -12 25 -10l47 7l26 -2l32 13l48 -5q17 -2 30 -15t13 -30q0 -13 -13 -24t-22 -10l-49 6l-112 -6l-20 -5l-7 -13l-21 -18l-7 -143
q0 -4 -5 -23.5t-5 -33.5q0 -43 28 -41q45 5 64 5q42 0 86 3l43 17l22 -2l39 2q17 1 34 -12t17 -22t-14 -21t-20 -11l-18 2l-23 -13l-138 -5q-129 -30 -152 -30q-38 0 -36 45l5 116l12 31l7 96l8 18l3 92l20 132l5 126q1 23 14 39t33 15l32 -2l19 5l41 -8l33 5h84l56 -6l54 2
q6 0 11.5 -10t5.5 -22q0 -8 -3 -14z" />
    <glyph glyph-name="F" unicode="F" horiz-adv-x="610" 
d="M552 650q0 -19 -11.5 -34t-27.5 -15q-7 0 -27 4.5t-31 5.5l-30 3l-24 -4l-36 7h-46q-29 0 -53.5 -16t-25.5 -37l-5 -108l-7 -25l-1 -22l-7 -21q-2 -5 -2 -10q0 -24 32 -24q7 0 15 1l33 5l48 1l21 6l41 -2q14 -1 24.5 -16.5t10.5 -24.5q0 -17 -20 -33.5t-45 -16.5
q-8 0 -15 2l-27 6q-10 -2 -33 -6q-1 0 -50 -3q-27 -2 -37.5 -13.5t-11.5 -29.5q0 4 0 -36q0 -15 2 -43.5t2 -43.5q0 -18 -7 -47l-4 -22q-18 -1 -26 -1q-18 0 -29.5 16t-11.5 39q0 10 13 84l-2 27l12 95v58l8 22l2 16q0 2 34 182q12 65 17 76q11 25 43 25q2 0 20.5 3t38.5 3
q7 0 22.5 -5.5t24.5 -5.5q32 0 88 6.5t68 6.5q33 0 33 -35z" />
    <glyph glyph-name="G" unicode="G" horiz-adv-x="677" 
d="M580 322q-21 -121 -59 -178q-50 -76 -158 -94q-6 -1 -24 -6l-35 10l-38 2l-37 22l-26 8q-7 6 -32 36q-3 5 -18 32l-20 15q-32 56 -32 142q0 142 65 188l127 89l18 17l71 18l67 -3l38 5q11 1 20 1q72 0 72 -63q0 -34 -17 -34q-4 0 -38 16.5t-61 16.5q-70 0 -173 -41
l-13 -15l-46 -28l-50 -51q-16 -16 -19 -57q-2 -18 -2 -46q0 -113 72 -168l40 -14l29 -18q26 -9 43 -9q98 0 141 77q17 31 23 76q6 13 6 23q0 20 -37 19l-74 -2q-11 0 -19.5 8.5t-8.5 17.5q0 14 9 25.5t17 12.5l38 6l16 6q25 -5 44 -5q14 0 42 1l18 -13l15 -9q8 -24 6 -36z
" />
    <glyph glyph-name="H" unicode="H" horiz-adv-x="744" 
d="M620 646l-6 -56l2 -24l-6 -40l-8 -95l-5 -21l7 -39l-4 -70l2 -75l7 -23l-1 -36l-4 -66q-1 -19 -22 -64q-16 -15 -22 -15q-20 0 -25 3q-8 5 -8 23v70l11 85q3 25 -9.5 58.5t-27.5 33.5q-10 0 -33 -9l-74 15l-71 -6l-99 -2l-22 -13l-6 -33q11 -25 11 -44q0 -150 -52 -150
q-13 0 -27 24l-3 30l4 65l7 34l-4 36l5 66l6 111l11 36l2 132l16 53q14 8 20 8t16 -8l1 -17l5 -16q1 -4 1 -9q0 -7 -4 -20.5t-4 -20.5q0 -17 -1 -46l3 -47l-7 -15l2 -51l20 -25l40 -3l35 7l23 -4l132 -2l54 3l23 9l8 24v29l9 54l4 118q1 24 11.5 44t24.5 20q35 0 32 -26z
" />
    <glyph glyph-name="I" unicode="I" horiz-adv-x="431" 
d="M293 571q0 -22 -23 -68l-5 -88l-8 -32l-6 -60l-5 -37q-25 -132 -25 -165q0 -55 -6 -71q-8 -20 -11 -34l-3 -29q-2 -16 -39 -23l-8 17l-10 13l5 64l14 86v36l8 19l16 67l2 33l15 74l6 127q1 28 13 48q8 17 18 35t26 18q26 0 26 -30z" />
    <glyph glyph-name="J" unicode="J" horiz-adv-x="623" 
d="M530 643q0 -25 -8 -86.5t-8 -100.5q0 -32 -6 -77l1 -30l-7 -39q-8 -39 -24 -101q-27 -70 -76 -108l-19 -24q-15 -5 -53 -13q-49 -8 -55 -8q-93 0 -143.5 39.5t-50.5 113.5q0 32 18 32q13 0 27.5 -23t28.5 -46q6 -9 28 -11l18 -16l21 -15q30 -5 39 -5q111 0 139 71l19 49
l13 18l14 75l7 119l8 31l1 132q0 27 13.5 45.5t34.5 18.5q20 0 20 -41z" />
    <glyph glyph-name="K" unicode="K" horiz-adv-x="689" 
d="M635 541q0 -13 -44 -39l-14 -11l-26 -4q-34 -5 -65.5 -27t-31.5 -41q0 -27 30 -94q19 -43 23 -99l46 -129l1 -31l11 -38q4 -15 -9 -27.5t-29 -12.5q-6 0 -18 13t-16 24l-12 31l-11 66l-11 27l-8 72l-12 61l-44 77l-15 47l-29 9l-121 -48l-24 -23l2 -57l-7 -49l1 -63
l-7 -33l4 -24l-8 -47l-2 -87q-1 -49 -25 -49q-16 0 -32 11.5t-15 28.5l7 92l17 91l2 113l-1 27l13 63l5 90l10 35l3 124l-3 38q-3 35 36 36l11 -17l18 -8l-4 -115l-12 -51q24 -40 26 -40q10 0 32 15l37 6l21 10l59 14l184 84q6 3 13 3q17 0 30.5 -13.5t13.5 -30.5z" />
    <glyph glyph-name="L" unicode="L" horiz-adv-x="580" 
d="M505 67q0 -31 -31 -31q-5 0 -23 5t-60 5q-36 0 -102 1l-23 -7l-62 12l-39 -4q-16 -2 -20 31q-2 14 -1 34l-9 56l10 151l12 32q5 49 5 108q0 73 -14 128l6 29l2 17q2 19 34 27l10 -14l16 -9l1 -24q3 -21 3 -30q0 -5 -2 -31t-2 -47q0 -1 4 -59q2 -36 -2 -65q-4 -33 -13 -92
l2 -66l4 -45l-3 -21q19 -43 36 -42l99 4q10 0 32 -6.5t35 -6.5q12 0 30 6t29 6q16 0 26 -18.5t10 -33.5z" />
    <glyph glyph-name="M" unicode="M" horiz-adv-x="924" 
d="M824 8q0 -13 -11.5 -23t-25.5 -10q-28 0 -34 36l-16 96l-13 31l-2 61l-6 28l6 48l-16 192q-4 48 -28 48q-14 0 -38 -39l-46 -74l-50 -119l-49 -54l-35 -57q-16 -26 -34 -26q-19 0 -32 39l-25 75l-12 16l-7 35l-21 24q-71 147 -102 147q-10 0 -20 -16.5t-10 -35.5
q0 -5 4.5 -20.5t4.5 -26.5q0 -26 -16 -70l2 -33l-7 -39l3 -81l-9 -34l-6 -76q-3 -36 -26 -36q-11 0 -22 8q-14 9 -14 21q0 20 12 63l-4 21l11 60v87l10 33q4 52 4 114q0 81 17 140t42 59q13 0 35 -30q17 -23 68 -97l18 -19l21 -55q18 -23 57 -76q3 -4 14 -42q7 -23 25 -23
q30 0 86 114q61 124 132 258q15 29 51 29q12 0 18 -19q3 -11 9 -53q10 -40 30 -131q3 -16 0 -41q-2 -25 1 -41t14 -39l2 -131l35 -171q5 -24 5 -45z" />
    <glyph glyph-name="N" unicode="N" horiz-adv-x="784" 
d="M716 515l-39 -114v-25l-25 -65l-13 -66l-42 -82l-7 -42l-13 -18l-23 -47q-24 -49 -39 -49q-13 0 -22.5 13t-17.5 26l-93 123l-41 39l-32 54l-28 33l-6 22l-12 20l-18 15l-19 24l-13 -20l-20 -86l-5 -71l-22 -105l-25 -60q-14 -6 -22 -6t-16 20v28l13 34l-1 21
q14 76 30 203l2 63q0 16 9 34t9 24q2 25 1 71q18 32 34 32q10 0 26 -10l18 -67l93 -150q18 -29 46 -60q48 -54 52 -59q17 -26 33 -51q22 -31 44 -31q20 0 25 46q1 11 8 22q12 20 14 23q23 47 58 173l8 45l10 24q1 9 5 35q4 18 16 54q3 43 41 43q25 0 25 -45q0 -19 -6 -35z
" />
    <glyph glyph-name="O" unicode="O" horiz-adv-x="706" 
d="M611 453q0 -126 -52 -231l-7 -24l-53 -66q-74 -76 -180 -76q-35 0 -72.5 12t-48.5 27l-28 37l-13 8q-17 10 -31.5 66t-14.5 114q0 135 84 225l11 18l21 17l22 24l21 5l13 9q85 36 157 36q50 0 110.5 -67t60.5 -134zM543 428q0 98 -54 118l-26 2l-41 20q-44 4 -57 4
q-74 0 -144 -100q-46 -66 -46 -127q0 -116 33.5 -164.5t112.5 -48.5q66 0 113 40l18 29l29 25l13 23l13 14q36 107 36 165z" />
    <glyph glyph-name="P" unicode="P" horiz-adv-x="595" 
d="M524 548q0 -133 -171 -221l-27 -22l-62 -6l-42 -12l-20 -42l-1 -55l5 -20l-5 -44v-54l-1 -59q0 -14 -25 -36q-11 -18 -19 -18q-18 0 -22 28l-10 20l6 24l-2 46l12 41v106l9 34l-1 50l11 61l1 62q2 9 6 33q4 21 4 121q0 56 23.5 78.5t82.5 22.5q20 0 51 -5l97 -30
q21 -7 56 -36q44 -37 44 -67zM452 526q0 24 -16 41.5t-40 20.5l-51 6l-23 15l-26 -3q-65 -7 -59 -63l-15 -54l3 -27l-9 -34l-3 -22q-4 -31 31 -31q52 0 128 52q80 54 80 99z" />
    <glyph glyph-name="Q" unicode="Q" horiz-adv-x="695" 
d="M658 -130l-8 -26q8 -35 -14 -35q-15 0 -22 7t-15 15.5t-23 38.5q-20 37 -26 47l-64 100q-32 50 -54 50q-10 0 -40.5 -6.5t-51.5 -6.5q-96 0 -170 74.5t-74 167.5q0 48 16 102l36 82l32 19q81 103 153 103q49 0 72 -16l131 -93q13 -8 24.5 -16.5t11.5 -17t1 -26.5
q17 -45 17 -93q0 -76 -24 -116l-48 -79l7 -27l1 -21l23 -35l28 -38l8 -25q4 -14 25 -46q14 -21 28 -43q21 -36 20 -40zM524 331q0 56 -22.5 92t-78.5 70q-63 39 -77 39q-89 0 -144 -90q-46 -75 -46 -154q0 -44 45 -92q32 -33 65 -59l28 -3l60 -10q170 63 170 207z" />
    <glyph glyph-name="R" unicode="R" horiz-adv-x="629" 
d="M533 478q0 -43 -41 -79l-68 -60q-15 -13 -8 -30l60 -136l36 -43q5 -6 5 -19q0 -22 -11.5 -46t-23.5 -24q-8 0 -25 29l-32 56l-10 38l-27 30l-7 23l-30 61q-11 22 -27 22q-11 0 -44 -21l-25 -2q-15 -1 -29 -27t-12 -46l13 -154l1 -40q0 -11 -14 -31q-16 -23 -31 -23
q-8 0 -14 11t-6 21l-4 212l-7 53v32l-6 60l6 24l-7 77l-8 49l3 19l-3 90q-1 24 17 48t33 25l111 9l55 3l25 -14l53 -18l18 -21q84 -82 84 -158zM473 478q0 28 -28 61l-37 43q-34 40 -58 34l-34 -8l-41 4q-28 3 -51.5 -10t-24.5 -28l-1 -25l18 -126l4 -55q2 -31 18 -31
q17 0 88 50l28 3l68 32q51 39 51 56z" />
    <glyph glyph-name="S" unicode="S" horiz-adv-x="566" 
d="M469 563q0 -4 -20 -12l-15 -19q-61 60 -108 60q-59 0 -102 -62l8 -43l19 -25l65 -42l23 -26l32 -21l11 -17l22 -24l15 -50l16 -43q6 -17 6 -34q0 -54 -49 -96t-101 -42q-43 0 -90 10l-41 11l-14 15q-42 23 -42 51q0 46 23 46q5 0 21 -13q19 -16 41 -24q34 -13 82 -13
q42 0 69.5 25t27.5 64q0 20 -11 41l-17 13l-26 37l-34 18q-43 23 -79 67q-42 52 -42 99q0 58 44 100l42 22l21 12q26 5 44 5q71 0 115 -24.5t44 -65.5z" />
    <glyph glyph-name="T" unicode="T" horiz-adv-x="681" 
d="M603 617q0 -14 -26 -46l-25 1l-51 -6l-33 4q-9 1 -17 1q-79 0 -81 -86l6 -21l-4 -52l7 -64l9 -35q5 -56 5 -87q0 -28 -3 -76v-47q0 -53 -14.5 -99t-27.5 -46q-19 0 -38 55q-6 18 9 79q4 15 8 63l-9 27l6 86v34q0 11 -8.5 34.5t-8.5 42.5q0 21 5 51.5t5 38.5q0 68 -54 64
l-128 -10q-38 -3 -38 41q0 21 38 35l14 5l50 -5l20 7l67 2l59 22l28 1l101 7l35 10l65 1l26 -1q3 -20 3 -31z" />
    <glyph glyph-name="U" unicode="U" horiz-adv-x="679" 
d="M627 604l-12 -60l-11 -108q-9 -85 -72 -209l-14 -38l-63 -59q-102 -70 -148 -70q-91 0 -149 50l-7 27q-50 60 -50 251q0 49 9 112l13 91l2 48q0 8 12.5 23.5t22.5 15.5q20 0 22 -12l8 -39l-6 -29l9 -26l-14 -62l-12 -32l5 -203l13 -41l5 -28q38 -63 105 -63q70 0 146 65
l37 72l16 19q47 122 47 185q0 88 -1 53q1 19 8 33l25 46q7 13 44 13q15 0 10 -25z" />
    <glyph glyph-name="V" unicode="V" horiz-adv-x="698" 
d="M660 547q0 -23 -42 -59q-24 -21 -54 -73l-30 -44l-74 -77l-66 -94l-16 -43l-57 -62l-23 -27q-32 -37 -42 -37q-22 0 -41 15q-15 12 -17 22l-8 50l-20 63l-5 47l-14 83q-19 82 -19 92q0 14 -29 63q-7 16 1 40l12 26q7 10 18 10q21 0 25 -13l22 -74l29 -76l1 -30l23 -127
q14 -76 39 -76q18 0 60 60l29 42l20 20l39 56q26 31 75 103q90 166 126 166q38 0 38 -46z" />
    <glyph glyph-name="W" unicode="W" horiz-adv-x="929" 
d="M882 556q0 -6 -11.5 -23.5t-13.5 -28.5q-13 -59 -67 -134q-59 -83 -90 -178q-14 -44 -36.5 -75t-40.5 -31q-5 0 -20 22q-6 22 -22 65q-6 14 -16 48q-2 14 -11 31q-13 28 -15 34q-5 14 -15 62q-7 34 -19 44q-8 6 -24 7l-9 -13l-18 -22l-10 -41q-18 -27 -57 -105
q-55 -136 -88 -136q-9 0 -18 8.5t-10 20.5l-2 25q-2 22 -15 46q-18 35 -22 45q-9 33 -33 108q-19 54 -62 144l-35 59v28q-8 22 -8 30q0 20 27 20q46 0 88 -114l13 -35l10 -14l5 -41l13 -25l12 -34q38 -108 53 -108q20 0 67 108q17 30 60 120q3 8 13 37l11 15l2 35q4 4 10 16
q5 32 15 42.5t39 10.5q6 0 15 -16t10 -32l5 -103q1 -21 10.5 -63t14.5 -50t22 -64q13 -40 33 -40q25 0 31 17t11 34l35 56l14 40l14 17l21 57l18 19l18 36q11 21 15 26q11 13 25 13q13 0 25.5 -6t12.5 -14z" />
    <glyph glyph-name="X" unicode="X" horiz-adv-x="752" 
d="M714 600q0 -32 -115 -126l-34 -18l-14 -24l-45 -30l-63 -60l-9 -18l-21 -21l3 -44l34 -69l20 -31l5 -18l17 -33q10 -20 10 -29q0 -14 -18 -28q-4 -3 -9.5 -10.5t-11.5 -7.5q-13 0 -25.5 12.5t-16.5 24.5l-19 56l-22 30q-4 28 -14 60q-5 4 -13 18q-6 10 -15 10
q-6 0 -19 -15l-19 -22l-49 -35q-115 -139 -136 -139q-13 0 -25 29q-9 22 0 34q32 42 118 104q43 31 75 70q30 36 30 52q0 10 -7 26l-2 21q-6 11 -26 43q-14 29 -51 104q-15 30 -35 53q-14 16 -14 23q0 19 15.5 34.5t30.5 15.5q9 0 27 -29q15 -25 44 -76q3 -5 23 -57
q10 -27 24.5 -39t18.5 -20l23 -42l13 2q41 32 135 117l27 26l12 18l29 22l29 42l14 10q13 23 19 23q18 0 35 -11t17 -28z" />
    <glyph glyph-name="Y" unicode="Y" horiz-adv-x="702" 
d="M640 601l-59 -49l-33 -50l-137 -111l-33 -55v-72l-20 -59l5 -18l-7 -66l8 -41l-5 -21l3 -36q1 -13 -7 -24t-20 -11q-46 0 -45 35l3 74l4 77l8 30l1 53l11 55q-43 36 -133 126q-15 17 -35 55l-32 24l-7 17q-22 32 -22 38q0 36 32 36q19 0 46 -37q42 -57 84 -95l52 -48
q31 -27 42 -27q5 0 7 3l27 42l15 6l35 30l38 45l19 8q16 15 48 49q29 38 61 80q29 32 45 32q26 0 26 -35q0 -39 -25 -60z" />
    <glyph glyph-name="Z" unicode="Z" horiz-adv-x="652" 
d="M558 96l-12 -14l-7 -17q-56 0 -183 -6q-25 -2 -82 -11q-46 -7 -70 -7q-41 0 -68.5 15.5t-27.5 37.5q0 9 17 40l6 21l26 30l48 62l17 10l17 27q24 22 67 66q75 86 106 136q6 10 6 22q0 27 -32 22l-24 -4l-42 3l-22 -3l-29 4q-50 7 -126 -3l-23 17q-23 8 -23 16
q0 12 16.5 28.5t30.5 16.5l112 -1l22 6l51 -8l45 -4l47 1q23 -11 37 -11q6 0 27 3t33 3q14 0 24 -13.5t10 -26.5q0 -33 -44 -77q-34 -31 -69 -63q-11 -11 -29 -24l-15 -31l-31 -30q-19 -19 -58 -59q-80 -87 -80 -119q0 -33 31 -33q1 0 45 10t86 10q18 0 75.5 10t64.5 10
q26 0 29 -45z" />
    <glyph glyph-name="bracketleft" unicode="[" horiz-adv-x="349" 
d="M331 659q4 -43 -45 -43h-21l-30 -6q-17 -2 -48 -5q-25 -2 -27 -33l-5 -70l-17 -92l1 -26q-14 -85 -10 -118q1 -9 2 -26l-2 -38l-10 -134q-1 -16 10 -29.5t26 -12.5q17 2 47.5 11.5t34.5 9.5q39 2 43 -36q2 -19 -11 -34.5t-34 -17.5q-12 -1 -37 3l-66 -14q-9 -3 -32 -7
q-15 -1 -27.5 11.5t-13.5 28.5q-2 29 0 48l13 109l5 187l10 67q4 24 1 56l5 40l2 36l5 20l13 97q4 32 24 33q13 3 37 -1l59 7l68 9q12 2 20.5 -8t9.5 -22z" />
    <glyph glyph-name="backslash" unicode="\" horiz-adv-x="551" 
d="M488 10q0 -16 -11.5 -27.5t-28.5 -11.5q-30 0 -41 34l-15 45l-57 98l-17 57q-22 39 -67 131q-14 32 -39 92l-62 83l-15 24l-16 19l-8 22l-27 61l-1 16l-6 12q16 21 35 21q33 0 77 -103q23 -33 71 -110q13 -23 36 -66l54 -123l15 -25l24 -69l81 -143q18 -32 18 -37z" />
    <glyph glyph-name="bracketright" unicode="]" horiz-adv-x="364" 
d="M300 58l-1 -69q0 -27 -22 -32l-30 -4l-40 6q-34 -9 -54 -8q-53 2 -51 42q2 54 29 53q7 0 18.5 -7t18.5 -8q18 0 37 8l13 9l19 9q-6 39 -6 44q2 18 4 54l-4 29l-2 168l4 38l-23 147l-1 43l-20 27l-62 9q-46 7 -66 35q-2 20 -2 28q1 22 52 18q14 -1 27 -3h17l21 -9l90 -27
q14 -4 11 -21q-3 -10 -7 -40q-1 -42 13 -93l-1 -75l6 -39l-3 -152l10 -61l-2 -74z" />
    <glyph glyph-name="asciicircum" unicode="^" horiz-adv-x="505" 
d="M383 535q2 -3 2 -8q0 -9 -9.5 -18t-17.5 -9q-24 0 -42 22l-13 16l-15 17l-14 13q-10 21 -30 21q-11 0 -22 -19l-16 -27l-14 -23q-13 -22 -42 -22q-18 0 -18 24q0 8 4 14l13 21l15 37l33 59q20 36 45 36q22 0 57 -49l47 -66l22 -18z" />
    <glyph glyph-name="underscore" unicode="_" horiz-adv-x="360" 
d="M416 -208q0 -38 -46 -38h-18l-89 2l-37 -4q-15 -2 -45 3q-33 6 -44 6q-17 0 -46.5 -3.5t-48.5 -3.5h-46q-16 0 -29.5 11.5t-9.5 25.5q10 39 41 39h21l72 -2l148 8l29 -3l61 7l25 -10h22q16 0 28 -12.5t12 -25.5z" />
    <glyph glyph-name="grave" unicode="`" horiz-adv-x="494" 
d="M307 553q0 -31 -26 -31q-19 0 -53 24l-15 7l-15 26l-13 15l-8 15l-15 22q-20 14 -20 31q0 34 43 34q5 0 32 -28l12 -11l12 -17l40 -40q26 -26 26 -47z" />
    <glyph glyph-name="a" unicode="a" horiz-adv-x="518" 
d="M432 110q0 -19 -2 -34q-3 -34 -10 -37q-10 -4 -27 1l-40 30l-80 -17q-42 -9 -84 -9q-24 0 -43 20q-2 2 -33 42q-36 47 -36 71q0 85 66 171l24 36l18 8q27 18 50 18q9 0 31 -7t30 -7t12 4l19 20q10 4 17 4q13 0 28 -32t19 -65l5 -43l21 -94v-44zM345 212q0 13 -7 33
l-21 34l-9 19q-39 25 -73 25q-39 0 -73 -35t-34 -79q0 -17 15 -50l27 -21l17 -15q26 -13 36 -13q55 0 88.5 27.5t33.5 74.5z" />
    <glyph glyph-name="b" unicode="b" horiz-adv-x="594" 
d="M517 191q0 -148 -102 -184l-21 -11l-48 -3q-37 -5 -55 1l-47 17q-24 9 -33 3q-14 -8 -9 -54q-15 -15 -25 -15q-7 0 -18 13l-13 14l2 56q-3 8 -9 44l-3 36l-10 31l-9 124l-12 36l-5 113l-7 30l1 88l-4 102q-1 30 32 30q20 0 20 -14l2 -122l6 -26l8 -129l11 -21l9 -28l8 -5
q8 12 28 32q22 15 87 37q48 6 66 6q46 0 77 -32l15 -7l15 -27l13 -9l12 -30q18 -63 18 -96zM459 175q0 44 -16 88q-23 67 -70 67q-74 0 -124 -38.5t-50 -93.5q0 -57 50 -104t105 -47q13 0 43 19l24 34l19 18q19 39 19 57z" />
    <glyph glyph-name="c" unicode="c" horiz-adv-x="502" 
d="M415 330l-31 -12l-27 34l-38 22l-26 -5l-18 1l-22 -10l-26 -10q-63 -77 -63 -153q0 -55 59 -86l144 7q12 1 24 -10.5t12 -23.5q0 -13 -47 -33q-35 -15 -44 -15t-53 10l-37 1q-21 1 -37 12l-34 30l-35 30l-2 24l-11 45l4 24l1 25l30 99q6 21 69 70l27 19h20q20 5 31 5
q46 0 88 -21.5t42 -42.5v-36z" />
    <glyph glyph-name="d" unicode="d" horiz-adv-x="581" 
d="M475 454q0 -25 -10 -106q8 -67 8 -99q0 -39 -6 -79.5t-6 -42.5l-2 -100l-3 -43l-17 -18q-7 -18 -14 -18q-27 0 -30 20l-8 48q-14 30 -22 30q-1 0 -45 -13t-79 -13q-65 0 -108.5 46.5t-43.5 110.5q0 18 9 69l22 51l23 19q16 18 57 52q57 36 114 36h46l37 -14q4 -1 7 -1
q16 0 16 22q0 19 -5 48l-6 35l1 53q2 147 41 147q21 0 21 -29q0 -9 -2.5 -23.5t-2.5 -15.5q0 -10 4 -65.5t4 -106.5zM410 262q-1 14 -24 32l-21 32q-40 7 -58 7q-60 0 -109 -48t-49 -104q0 -43 27.5 -71t70.5 -28q59 0 101 39q16 15 20 35l17 34l2 21l16 24q8 18 7 27z" />
    <glyph glyph-name="e" unicode="e" horiz-adv-x="541" 
d="M448 281q0 -28 -17.5 -48.5t-43.5 -20.5q-29 0 -86.5 10t-76.5 10q-63 0 -63 -42q0 -13 8 -25q28 -42 105 -84l33 -10l26 -2l13 -13l17 -14l2 -33l-10 -10l-8 -13q-13 -6 -19 -6q-42 0 -108 41l-35 21l-8 17l-56 69q-14 28 -14 45q0 18 8 48l2 60q0 11 12 61q23 27 77 75
q21 15 49 23l22 10l51 5q57 0 88.5 -46.5t31.5 -127.5zM392 333q0 37 -53 57q-13 5 -40 3l-24 -17l-30 -2q-42 -29 -42 -48q0 -11 10 -24t21 -13q5 0 14.5 3t14.5 3q4 0 8 -1l28 -9l27 3q41 5 53.5 13.5t12.5 31.5z" />
    <glyph glyph-name="f" unicode="f" horiz-adv-x="515" 
d="M481 601q0 -39 -24 -39q-11 0 -26 16l-17 8l-18 27q-13 13 -20 13q-42 0 -75.5 -85t-33.5 -192q0 -33 25 -42l39 -14l65 -3q24 -1 24 -25q0 -25 -31 -32q-18 -21 -28 -21q-9 0 -31 2.5t-32 2.5q-37 0 -48 -16t-9 -79l3 -112l3 -40l-13 -8l-13 -14l-18 2h-16l-4 22l-8 20
l11 51v37l7 24l-4 23l4 52q4 50 -26 50h-48l-46 22q-19 9 -19 30q0 28 13 26l28 -5l17 3l32 -6l42 1q20 0 19 20l-1 34q-1 19 12 60q4 49 15 120q6 24 30 66l19 42l17 11q46 31 72 31q39 0 75.5 -25t36.5 -58z" />
    <glyph glyph-name="g" unicode="g" horiz-adv-x="561" 
d="M481 212q0 -26 -7 -36l-32 -44q-1 -1 -36 -16q-42 -18 -44 -18l-81 7q-20 2 -30 -27q-9 -25 -7 -60l4 -64q2 -27 25 -36l20 -8q6 -8 27 -29q76 -63 97 -93q24 -35 24 -91q0 -82 -56.5 -126.5t-157.5 -44.5q-86 0 -154 55l-62 56l-7 34q-10 36 -10 64q0 129 111 166l76 39
l4 35l-1 27l7 39l-1 24l7 43q3 21 -50 65l-41 58l-10 59l9 48l13 13l6 13l32 34q51 54 107 54q11 0 80 -29l61 -18q31 -9 54 -67.5t23 -125.5zM415 247q0 40 -22.5 75t-53.5 45l-16 5l-25 -3l-22 10l-16 5q-4 1 -8 1q-26 0 -52.5 -34.5t-26.5 -63.5q0 -46 46.5 -83.5
t110.5 -37.5q85 0 85 81zM375 -322l-8 34v28q0 21 -67 73.5t-92 52.5q-21 0 -61 -20q-30 -15 -40 -24l-14 -14q-12 -11 -31 -29l-8 -34q16 -90 59 -116q65 -39 132 -39q49 0 93 28.5t37 59.5z" />
    <glyph glyph-name="h" unicode="h" horiz-adv-x="570" 
d="M483 48q1 -27 -13.5 -51t-35.5 -24q-8 0 -15.5 8t-7.5 17q0 40 15 132l-6 31l-2 39l-4 24q-5 29 -33.5 51t-60.5 22q-55 0 -72 -15q-28 -25 -50 -58v-32l-14 -61l-8 -125q-2 -26 -25 -26q-28 0 -28 43v39l5 20l-1 56l5 48l-4 22l8 172q4 86 4 92q0 14 -3 49t-3 57
q0 48 4 65q7 35 30 35q10 0 19.5 -13.5t10.5 -25.5l2 -21l-5 -20l5 -29l-1 -25q-7 -68 -7 -114q0 -23 3 -64l5 -28l29 -3l32 21l29 8l38 12l27 -10q19 -2 36 -11q39 -22 59 -76q27 -74 31 -179z" />
    <glyph glyph-name="i" unicode="i" horiz-adv-x="347" 
d="M214 643q0 -27 -13 -46.5t-29 -20.5q-27 -2 -35 11l-12 20l5 28l24 24l13 20l21 -2q26 -2 26 -34zM222 412l-8 -52l6 -115l-5 -23q-10 -38 -10 -60q0 -24 9 -67l-5 -21q-9 -38 -35 -38q-25 0 -25 40q0 2 3 16.5t3 23.5l-3 65q-5 60 -5 111q0 60 8 85l9 27l10 29
q7 21 26 21q15 0 17 -26z" />
    <glyph glyph-name="j" unicode="j" horiz-adv-x="321" 
d="M211 653q0 -8 -8 -27l-6 -15l-23 -11q-11 -1 -16 -1q-10 0 -24 22t-14 43q0 14 14 24t29 10q19 0 33.5 -14t14.5 -31zM203 277l-6 -59l-1 -117l-9 -34l1 -86l-6 -31l4 -33l-4 -102l-9 -33l-5 -82q-1 -10 -15 -22t-25 -12q-10 0 -18.5 21t-8.5 38q0 25 17 89l8 84l10 26
l-3 62l3 192q-1 30 4 86l14 61l-3 18l-1 73q0 18 22 18q13 0 26 -19q5 -7 5 -17q0 -4 -3 -28t-2 -46l1 -20z" />
    <glyph glyph-name="k" unicode="k" horiz-adv-x="605" 
d="M520 394q0 -11 -19 -46q-4 -7 -24 -15l-81 -6l-32 -5l-8 -12l30 -78l36 -62l10 -31l53 -85q13 -21 13 -50q0 -17 -8 -31q-9 -17 -24 -17q-9 0 -16 17t-14 33l-14 30l-14 21l-8 31l-12 17l-38 70l-28 36l-8 30q-22 38 -47 38q-63 0 -71 -44l-7 -39l-7 -28l2 -64l-4 -68
q-2 -42 -26 -42q-8 0 -12 7q-7 11 -13 22q-16 27 -9 63l8 40l-2 43l7 75l-3 27l5 113l6 34l-3 231q-1 45 37 45q12 0 19 -10t8 -19l3 -47l-12 -51l2 -71l-6 -111q-2 -35 21 -41q8 -2 27 5l27 8l45 3l46 20q53 23 107 23q58 0 58 -9z" />
    <glyph glyph-name="l" unicode="l" horiz-adv-x="314" 
d="M235 617l-16 -129v-22l-6 -41l-3 -137l-9 -70l-4 -92l1 -50l-8 -25l-5 -42q-3 -23 -15 -43t-29 -20q-11 0 -18.5 20.5t-7.5 42.5q0 14 10 50t10 48l3 78l-2 29l17 78l3 132l9 47l2 43q5 14 12 48q2 18 1 59l9 32l3 22q3 19 29 19q20 0 14 -77z" />
    <glyph glyph-name="m" unicode="m" horiz-adv-x="735" 
d="M640 101q0 -14 -14 -39q-16 -28 -30 -28q-21 0 -21 54q0 2 -1.5 14.5t-1.5 21.5q1 9 4 32q3 17 3 25q0 46 -15 109q-45 45 -55 45q-19 0 -36 -17l-9 -16l-22 -13l-11 -12l-8 -19l-19 -28l3 -118q1 -22 -8.5 -39t-23.5 -17q-10 0 -19 7.5t-9 16.5l-1 35l-10 34l4 87
q2 52 -15 88.5t-45 36.5q-21 0 -32 -17l-30 -12l-12 -43q-32 -44 -32 -73q0 -24 10 -70t10 -66q0 -25 -13.5 -49t-26.5 -24q-6 0 -14 12l-17 12l-7 53l9 54l-6 103l9 41l1 58l6 21l7 83q3 41 32 41q25 0 21 -76q29 2 67 9q7 3 25 14q8 5 18 5q9 0 65 -69q12 -15 31 -15
q13 0 22 9l39 36q53 10 62 10q42 0 84 -67l16 -21l6 -32l8 -36z" />
    <glyph glyph-name="n" unicode="n" horiz-adv-x="596" 
d="M489 242l-3 -62l-3 -47q-1 -15 3 -53l-18 -16l-13 -15q-39 3 -38 23l2 31l-5 31l6 54v84q0 19 -15 46q-22 37 -58 37q-35 0 -83 -35l-16 -20l-36 -28q-7 -14 -24 -46q-12 -20 -12 -72q0 -26 6 -46.5t6 -40.5q0 -21 -8 -37q-10 -21 -28 -21q-14 0 -31 25l4 46l-4 35l7 55
l-5 173l8 37l-2 32l9 11l8 16q43 -6 42 -16l-3 -39q-5 -21 22 -21q15 0 44 29l24 11q36 27 76 27q51 0 99 -66q32 -44 32 -63v-23z" />
    <glyph glyph-name="o" unicode="o" horiz-adv-x="538" 
d="M462 230q0 -57 -66 -123q-63 -62 -103 -62q-75 0 -144 42l-26 12l-24 44q-25 54 -25 94q0 64 55 126q60 67 134 67q11 0 37 -6l20 -13l34 -16l11 -17q97 -89 97 -148zM404 230l-8 37l-18 19l-16 8l-34 42l-42 11l-26 10q-131 -30 -131 -130q0 -45 53 -77q46 -28 96 -28
q37 0 79 26q48 31 48 70q0 6 -1 12z" />
    <glyph glyph-name="p" unicode="p" horiz-adv-x="611" 
d="M515 186q0 -63 -42 -110.5t-99 -47.5q-23 0 -80 18l-40 3q-29 25 -50 25q-24 0 -25 -19l-2 -27l-7 -30q-5 -36 -5 -68v-18l9 -80l-6 -37l1 -28q0 -13 -16.5 -25t-33.5 -12q-7 0 -17 12l1 18l-2 35l15 235v59l7 27v26l10 38v79l8 48l4 39l6 20l-2 32q-1 11 7.5 21.5
t16.5 10.5q22 0 31.5 -29t24.5 -29q4 0 30.5 12.5t64.5 12.5q39 0 71 -13l21 -4l28 -20l19 -8l25 -56q27 -45 27 -110zM456 198q0 53 -32 87.5t-81 34.5q-51 0 -92 -29q-44 -31 -44 -77q0 -66 66 -100l58 -2l28 -11q97 10 97 97z" />
    <glyph glyph-name="q" unicode="q" horiz-adv-x="569" 
d="M464 52l-18 -62l5 -85l9 -48l-3 -29q1 -125 -44 -125q-32 0 -34 64l11 27l6 107l-6 60l10 75q7 50 -38 50q-23 0 -60 -13t-39 -13q-52 0 -105 47l-9 8l-23 21l-6 20l-10 12q-16 19 -16 68q0 64 59 133t113 69q17 0 44 -12h21l43 -31l32 -15l2 53q0 11 9.5 22t16.5 11
q18 0 24 -19q4 -13 4 -49q0 -15 -1 -45l3 -25l-8 -45q-1 -32 -1 -47q0 -70 9 -184zM390 248q0 38 -52.5 73t-99.5 35q-9 0 -38 -12l-9 -21l-33 -46q-4 -27 -4 -41q0 -44 31 -72t81 -28q51 0 87.5 33t36.5 79z" />
    <glyph glyph-name="r" unicode="r" horiz-adv-x="462" 
d="M417 438q0 -15 -18 -28.5t-44 -18.5q-79 -17 -116 -67l-5 -30l-21 -50q-4 -14 -4 -41q0 -29 8.5 -68t8.5 -45q0 -21 -9 -39q-10 -23 -27 -23q-11 0 -21 28l-9 26l-11 21l2 60l-4 19l1 38l-3 25l8 47l-5 75l-11 57l-4 66q-2 31 30 31q8 0 17 -7.5t9 -14.5v-9l7 -24v-18
l3 -10q16 -36 39 -32q23 3 56 35q31 29 58 29t46 -9t19 -23z" />
    <glyph glyph-name="s" unicode="s" horiz-adv-x="490" 
d="M403 382q0 -48 -37 -52l-41 50l-22 10q-78 -10 -78 -58q0 -25 23 -36l58 -27l14 -19l23 -11l17 -45q9 -43 9 -54q0 -47 -19 -78l-9 -25l-54 -30q-32 -24 -76 -24q-67 0 -154 43q-36 18 -36 53q0 9 22 21l23 -5h23l44 -24l24 -1q44 -16 60 -16q29 0 63.5 28.5t34.5 60.5
q0 25 -43 62q-39 28 -78 57q-27 19 -27 49q0 56 20 92l32 30l26 6q45 11 64 11q30 0 62 -24.5t32 -43.5z" />
    <glyph glyph-name="t" unicode="t" horiz-adv-x="408" 
d="M379 451q0 -4 -6 -8q-10 -7 -10.5 -7.5t-9.5 -13.5q-5 -8 -11 -7l-21 2l-25 -5l-23 5l-14 -6l-5 -105l-12 -53l5 -71l-3 -50l6 -65l-7 -31l3 -18l-10 -18l-16 -22l-13 6h-17q-8 24 -8 40q0 17 7 46l-2 95l5 36l-3 22l9 50l1 63l8 50l-15 17l-86 14q-15 2 -15 21
q0 11 13 45q27 -9 43 -8q23 2 42.5 12.5t18.5 23.5l-3 54l6 25l2 19l7 25q-6 56 39 56q21 0 21 -25q0 -5 -10 -48l2 -47l-4 -57l27 -17l48 -4q11 -1 23.5 -14t12.5 -27z" />
    <glyph glyph-name="u" unicode="u" horiz-adv-x="495" 
d="M417 313l-11 -35l1 -26q1 -13 -11 -32q-18 -30 -28 -53q-19 -45 -44 -82l-27 -17l-27 -22q-21 2 -27 2q-55 0 -107 70q-55 71 -53 148l1 46l-1 30l10 19q3 37 33 37q23 0 23 -18l-3 -139q0 -7 24 -63l13 -15l19 -26q20 -15 40 -15q46 0 60 58l30 30l14 52l1 92
q0 7 10.5 21t22.5 11q7 -1 11.5 -8t9.5 -14t13 -20z" />
    <glyph glyph-name="v" unicode="v" horiz-adv-x="560" 
d="M503 328q0 -25 -30 -69l-46 -62l-38 -52l-14 -23l-26 -31l-17 -26l-12 -11l-26 -36q-12 -17 -28 -17q-15 0 -39.5 33t-39.5 73q-26 68 -89 153l-15 24l-18 12l-5 26q10 37 33 37q14 0 46 -41q34 -44 68 -109q12 -25 25.5 -50.5t22.5 -25.5q16 0 28 18l24 7q20 18 38 36
q41 42 58 71q9 16 22 41l12 26l18 12q14 17 24 17q24 0 24 -33z" />
    <glyph glyph-name="w" unicode="w" horiz-adv-x="781" 
d="M695 384q0 -11 -15 -32q-24 -34 -27 -39l-31 -54l-15 -17l-13 -31l-29 -35q-15 -15 -45 -50q-4 -5 -17 -30q-9 -17 -16 -17q-12 0 -41 24l-14 10l-1 19l-7 41l-18 41l-6 27q-5 21 -27 21q-18 0 -35 -16q-9 -9 -85 -102q-2 -2 -43 -66q-23 -37 -42 -37q-6 0 -10 17l-8 12
l-4 31l-22 74l-26 160l-7 63q-14 42 -14 62t21 20q8 0 33 -50l11 -21l2 -23l30 -134q16 -73 29 -73q10 0 59 59.5t87 116.5q12 20 24 38.5t27 19.5l24 2l3 -19l18 -58l21 -102q10 -32 25 -32q8 0 24 36q8 5 29 26q47 51 91 124q18 30 36 30q24 0 24 -36z" />
    <glyph glyph-name="x" unicode="x" horiz-adv-x="528" 
d="M450 454l-33 -42l-9 -22l-37 -35l-23 -45q-17 -33 -17 -41q0 -26 42 -76l5 -19l35 -29l4 -29q2 -45 -26 -45q-20 0 -55 31l-6 24l-34 47l-24 15l-12 -4l-65 -113q-21 -36 -34 -36q-31 0 -31 42q0 14 5 23l24 42l16 32l16 14l19 35l9 34l12 19q-26 25 -48 48
q-50 54 -67 84q-2 4 -2 9q0 10 7 23q17 22 32 22q14 0 59 -70q37 -58 66 -58q23 0 59 66q58 106 98 106q22 0 22 -29q0 -14 -7 -23z" />
    <glyph glyph-name="y" unicode="y" horiz-adv-x="503" 
d="M448 370q0 -14 -34 -59l-12 -42l-45 -77l-9 -29l-27 -49l-4 -28l-26 -56l-8 -26q-13 -44 -59 -114l-11 -45l-26 -36q-18 -24 -33 -82q-2 -7 -15 -14t-26 -8q-29 -2 -29 26q0 8 33 84l16 37l16 24l34 75l21 23l19 44q20 46 20 77q0 29 -26 67t-66 68q-13 10 -27 22l-21 10
l-15 24q-12 20 -12 31q0 33 14 41q4 2 23 2q6 0 32 -28q37 -41 47 -51q20 -25 41 -51t46 -26q7 0 19 5l37 39l2 15l47 109q16 38 40 38t24 -40z" />
    <glyph glyph-name="z" unicode="z" horiz-adv-x="555" 
d="M460 474l-6 -40l-42 -50l-16 -35l-96 -126q-21 -21 -60 -65q-14 -17 -12 -44l2 -13l93 -4l72 3l23 -15l24 -6l5 -30l-25 -31l-35 2l-24 -4l-42 9l-70 -1l-29 8l-70 2q-26 1 -38 21q-7 12 -1 41l3 23l28 27l26 33l25 18l92 111q48 58 48 94q0 18 -15 22l-90 13l-24 -3
l-50 4l-40 -12q-5 -1 -10 -1q-14 0 -25.5 10.5t-11.5 24.5q0 50 69 49l29 6l51 -13q118 -17 146 -17q6 0 73 5z" />
    <glyph glyph-name="braceleft" unicode="{" horiz-adv-x="418" 
d="M381 670q0 -26 -21 -30l-53 -11l-14 -11l-18 -10l-12 -16l-21 -16l-15 -25v-45q-17 -56 -17 -81q0 -28 7 -65l16 -42l-15 -18l-18 -5l-12 -8l-21 -7l-4 -14q17 -8 56 -37q26 -25 30 -47q-54 -129 -54 -175q0 -31 18 -62.5t36 -36.5l17 -5l29 -22l46 -11q27 -6 27 -37
q0 -17 -16.5 -27.5t-36.5 -10.5q-43 0 -105 48q-71 57 -72 121l-1 59l8 27l5 48q21 42 21 57q0 26 -38 39l-67 23q-29 10 -29 46q0 27 30 45l74 44q14 8 15 50l-6 18l5 40v24q0 33 26 109l7 18l16 12l13 24q66 49 134 49q11 0 20.5 -7.5t9.5 -18.5z" />
    <glyph glyph-name="bar" unicode="|" horiz-adv-x="250" 
d="M192 642l-22 -72l-7 -104l5 -11l-4 -63l-9 -42l7 -147l-17 -120l1 -85q0 -22 -7.5 -42t-20.5 -21q-18 -1 -32.5 8.5t-15.5 25.5q-2 33 14 107l8 122l14 107l1 161l11 92l-6 23l19 70q12 45 26 45q27 0 33 -40z" />
    <glyph glyph-name="braceright" unicode="}" horiz-adv-x="453" 
d="M430 284q0 -28 -13 -36l-74 -46q-26 -16 -26 -37q0 -7 13 -48t13 -79q0 -39 -15 -91l-5 -23l-10 -14l-5 -26l-46 -43q-47 -35 -93 -35q-26 0 -26 35q0 25 16 55l17 9l15 9l34 2q19 1 32 42q11 36 11 78q0 59 -14 87l-29 58q-11 23 7 36l42 30l12 21l1 14l-32 13
q-30 12 -40 95l-6 52l5 20l-2 82l-23 60q-9 23 -31 23q-16 0 -46 -6q-37 -15 -50 -15q-24 0 -24 32q0 15 14.5 34t33.5 19l51 1q23 5 28 5q43 0 75 -43q29 -42 29 -94v-58l10 -16l-1 -76l15 -35l16 -15l26 -4l15 -10l41 -14q17 -6 28 -21t11 -27z" />
    <glyph glyph-name="asciitilde" unicode="~" horiz-adv-x="538" 
d="M448 336l-22 -24l-13 -9l-14 -11q-25 -20 -88 -20q-33 0 -59 23l-36 32q-11 10 -23 10q-31 0 -41 -13l-8 -10l-15 -13q-14 -12 -30 -12q-21 0 -21 24q0 22 16 36l11 24l12 9q54 39 82 39q23 0 38 -20l24 -33q23 -31 52 -31q33 0 84 45q16 8 22 8q14 0 25 -11t11 -25
q0 -10 -7 -18z" />
    <glyph glyph-name="nonbreakingspace" unicode="&#xa0;" horiz-adv-x="175" 
 />
    <glyph glyph-name="exclamdown" unicode="&#xa1;" horiz-adv-x="240" 
d="M179 360q-1 -26 -1 -40q0 -22 -12.5 -38.5t-32.5 -16.5q-21 0 -36 13.5t-15 33.5q0 12 16 36l2 18q25 26 39 26q18 0 40 -32zM162 111q0 -16 -13 -48l3 -66l-14 -92v-144l-14 -33q-8 -25 -14 -25q-39 0 -39 21v31l5 57l10 65l-4 31l9 59l11 147q2 23 5 30q6 14 26 14
q13 0 21 -15.5t8 -31.5z" />
    <glyph glyph-name="cent" unicode="&#xa2;" horiz-adv-x="524" 
d="M437 126q-49 -62 -91 -62h-29q-22 0 -25 -14l-8 -26l3 -48q1 -15 -10 -31q-12 -19 -29 -19q-13 0 -20.5 14t-5.5 30l4 43q2 27 -14 38q-9 7 -37 13q-24 5 -58 46q-39 46 -39 86q0 26 11 48q9 17 39 58l16 35l18 13q4 8 10 15q13 16 30 24q55 26 55 47l-1 51l-5 34l3 25
l-1 35q0 9 10.5 16.5t22.5 7.5q9 0 19.5 -13.5t11.5 -25.5l1 -20l-6 -17l5 -23l-4 -19l-1 -20q-1 -13 25 -27q22 -11 45 -21q12 -5 19 -18.5t13 -26.5q6 -8 12.5 -16.5t6.5 -16.5q0 -18 -39 -25q-35 57 -68 57q-58 0 -121 -56q-63 -78 -63 -113q0 -28 15.5 -50t42.5 -27
l17 4l39 -10l16 6l28 -3l29 3l31 -2l25 12q16 18 25 18q8 0 24 -7z" />
    <glyph glyph-name="sterling" unicode="&#xa3;" horiz-adv-x="696" 
d="M650 68l-16 -20l-15 -22l-30 -26q-50 -58 -152 -58q-39 0 -87 16l-12 4l-27 7l-13 15l-21 7q-35 12 -57 -1q-1 0 -41 -26q-22 -15 -29 -15q-12 0 -22.5 12t-10.5 25q0 6 3 11l53 84l7 18l22 30q30 73 30 104q0 30 -12.5 51.5t-27.5 21.5q-10 0 -59 -16q-11 -4 -24 -4
q-22 0 -38.5 11t-16.5 29q0 9 6.5 17.5t11.5 8.5l43 1l78 21q24 6 30.5 21.5t6.5 58.5q0 27 12 56l3 21l23 35q9 13 33 38q67 62 126 62q41 0 70.5 -13t29.5 -33q0 -8 -10.5 -20t-18.5 -12q-12 0 -32.5 10t-33.5 10q-59 0 -102.5 -58t-43.5 -134q0 -35 34 -41l17 -3l19 8
l38 -4l27 1q18 1 18 -26q0 -32 -14 -33l-23 -2l-31 -10l-66 -4l-10 -18l-1 -54l-11 -22q-3 -9 -11 -38q-2 -22 -28 -82l34 -11l16 -12l23 -3q69 -52 101 -52q57 0 104 27q28 17 62 52q27 27 35 27q16 0 31 -48z" />
    <glyph glyph-name="currency" unicode="&#xa4;" 
d="M632 -78q0 -39 -6 -57q-16 -49 -103 -99q-33 -18 -112 -46q-20 -4 -47 -4q-53 0 -118 13l-18 13l-30 3l-85 55q-41 27 -41 71q0 36 15 51l37 38l27 -4l9 -24l-22 -35q-7 -11 -7 -23q0 -22 23 -44q20 -19 49 -28l79 -25l128 -6q29 11 89 41q29 18 74 60l6 56l-13 40
q-8 23 -38 38l10 -54l-22 -44l-72 -64l-129 -4q-28 13 -48 24q-51 26 -60 37q-14 17 -27 62l-7 41l10 30q2 6 2 10q0 12 -23 22l-36 15q-36 15 -36 55q0 43 37 61l46 23l-7 21l-6 21q-6 19 11 48q8 14 21 21l34 16l47 23l-13 27l5 27l32 12l39 11l10 21l-29 15h-39
q-20 0 -34.5 11.5t-14.5 30.5q0 26 23 46l27 24l27 29l-11 17l-32 -3l-29 -8q-16 -4 -27 28q0 7 2 12q5 13 19 15l45 7l64 -5q8 -7 14 -13q14 -16 17 -30q2 -7 2 -14q0 -25 -25 -46l-56 -48q41 -8 91 -24q20 -17 29 -63l-30 -39l-52 -20l15 -16q28 3 59 3q72 0 106 -21
q20 -13 38 -52.5t18 -70.5q0 -36 -16 -99l-23 -46l-27 -38l33 2l35 -26l43 -38zM353 274l-19 16l-32 -19q16 -13 23 -13q9 -2 28 16zM423 242l-10 23l-23 7l-15 -35l-50 -12q-7 -2 -14 -2q-36 0 -47 28q-12 30 7 40l45 23l-17 24l-67 -34l-23 -29q-1 -24 3.5 -36t20.5 -31
l61 -18l81 11zM515 236l-30 71l-55 26l-65 3l10 -17l37 -7l31 -12l34 -38l2 -35l-23 -24l-41 -28q-45 -24 -85 -24q-17 0 -53 3l-30 4l10 -37l32 -51l26 -59q8 -19 36 -19q32 0 54 21l34 33l61 105zM491 -19l-22 14l-48 -48l-90 -7l-54 29l-38 83l-9 -32l10 -50
q4 -12 15 -38q23 -39 102 -39q39 0 76 14q23 9 48 48zM226 86l-33 66l-18 21l-21 -11q-6 -3 -6 -13q0 -13 7 -24q17 -24 71 -39z" />
    <glyph glyph-name="yen" unicode="&#xa5;" horiz-adv-x="600" 
d="M527 349l-21 -18q-12 -11 -28 -9l-29 3l-89 -4l-30 6l-14 -15l8 -65q0 -15 30 -30q9 -5 38 12l63 -9q14 -2 26 -11t12 -19q0 -18 -15.5 -31.5t-34.5 -13.5q-11 0 -34 4q-28 6 -42 8q-28 3 -47 -10q-15 -11 -16 -26l-2 -53v-40l6 -35l-24 -29l-28 -4l-25 10l4 24l-3 27
l13 61l1 24q1 29 -7 43t-25 14l-48 -1l-29 19q-18 12 -18 20q0 7 16 20t24 13l75 -4q10 -1 17.5 5.5t6.5 20.5l-1 18l6 17q8 23 -13 33q-8 3 -26 -2l-46 12l-71 3q-5 0 -17 8.5t-14 18.5q-1 8 6 23l20 4l26 9q76 -14 101 -14q36 0 36 31q0 20 -20 45l-21 26l-26 16l-53 78
l-13 15q-26 30 -29 34q-5 8 -5 19q0 13 10.5 28.5t21.5 15.5q7 0 21 -17q53 -69 61 -78q36 -44 50 -55q18 -16 39 -16q38 0 107 73.5t76 72.5l36 -6l2 -36l-18 -26l-36 -24l-64 -62q-18 -15 -32 -27q-31 -29 -32 -41l-3 -21q-3 -23 18 -28l24 7l47 -10l79 6l18 -13l-1 -21z
" />
    <glyph glyph-name="brokenbar" unicode="&#xa6;" 
d="M632 -78q0 -39 -6 -57q-16 -49 -103 -99q-33 -18 -112 -46q-20 -4 -47 -4q-53 0 -118 13l-18 13l-30 3l-85 55q-41 27 -41 71q0 36 15 51l37 38l27 -4l9 -24l-22 -35q-7 -11 -7 -23q0 -22 23 -44q20 -19 49 -28l79 -25l128 -6q29 11 89 41q29 18 74 60l6 56l-13 40
q-8 23 -38 38l10 -54l-22 -44l-72 -64l-129 -4q-28 13 -48 24q-51 26 -60 37q-14 17 -27 62l-7 41l10 30q2 6 2 10q0 12 -23 22l-36 15q-36 15 -36 55q0 43 37 61l46 23l-7 21l-6 21q-6 19 11 48q8 14 21 21l34 16l47 23l-13 27l5 27l32 12l39 11l10 21l-29 15h-39
q-20 0 -34.5 11.5t-14.5 30.5q0 26 23 46l27 24l27 29l-11 17l-32 -3l-29 -8q-16 -4 -27 28q0 7 2 12q5 13 19 15l45 7l64 -5q8 -7 14 -13q14 -16 17 -30q2 -7 2 -14q0 -25 -25 -46l-56 -48q41 -8 91 -24q20 -17 29 -63l-30 -39l-52 -20l15 -16q28 3 59 3q72 0 106 -21
q20 -13 38 -52.5t18 -70.5q0 -36 -16 -99l-23 -46l-27 -38l33 2l35 -26l43 -38zM353 274l-19 16l-32 -19q16 -13 23 -13q9 -2 28 16zM423 242l-10 23l-23 7l-15 -35l-50 -12q-7 -2 -14 -2q-36 0 -47 28q-12 30 7 40l45 23l-17 24l-67 -34l-23 -29q-1 -24 3.5 -36t20.5 -31
l61 -18l81 11zM515 236l-30 71l-55 26l-65 3l10 -17l37 -7l31 -12l34 -38l2 -35l-23 -24l-41 -28q-45 -24 -85 -24q-17 0 -53 3l-30 4l10 -37l32 -51l26 -59q8 -19 36 -19q32 0 54 21l34 33l61 105zM491 -19l-22 14l-48 -48l-90 -7l-54 29l-38 83l-9 -32l10 -50
q4 -12 15 -38q23 -39 102 -39q39 0 76 14q23 9 48 48zM226 86l-33 66l-18 21l-21 -11q-6 -3 -6 -13q0 -13 7 -24q17 -24 71 -39z" />
    <glyph glyph-name="section" unicode="&#xa7;" horiz-adv-x="637" 
d="M593 546q0 -40 -25 -40q-35 0 -35 38q0 7 1 14q-17 49 -101 49q-38 0 -67.5 -34t-29.5 -78q0 -41 16.5 -59.5t86.5 -53.5q52 -26 83.5 -74t31.5 -102q0 -27 3 -61l-16 -30q-21 -21 -38 -36q-39 -36 -48 -37l-78 -8q-18 -2 -18 -22q0 -22 2 -38l9 -34l-3 -23q1 -13 1 -23
q0 -54 -40 -89t-101 -35q-30 0 -47 8q-6 3 -52 18q-22 7 -33 25q-17 29 -17 48q0 56 31 72q4 2 9 2q10 0 18.5 -7.5t8.5 -13.5l3 -36l12 -9l13 -17l17 -4q28 -20 43 -20q19 0 45 26t23 40l-21 108q-4 21 -59 51q-129 69 -137 128l-10 70v37l32 43l32 16l10 12q38 12 65 23
q64 27 65 46l3 90q2 53 63 105l11 19q66 29 97 29q53 0 97 -41t44 -92zM499 188q0 124 -121 138q-51 30 -84 30q-25 0 -83 -30q-73 -38 -73 -82q0 -25 85 -115l43 -12q47 -26 71 -26q18 0 72 21q90 3 90 76z" />
    <glyph glyph-name="dieresis" unicode="&#xa8;" horiz-adv-x="494" 
d="M391 644q0 -26 -10 -49q-12 -29 -31 -29q-46 0 -46 70q0 26 21 44q22 15 29 15q12 0 20 -18l14 -8q3 -22 3 -25zM194 621l-4 -18q-30 -43 -75 -43q-32 0 -32 34q0 28 17 51.5t44 23.5q40 0 47 -37z" />
    <glyph glyph-name="copyright" unicode="&#xa9;" horiz-adv-x="696" 
d="M621 377q0 -175 -127 -219l-26 -18h-33q-23 0 -58.5 -9t-50.5 -9q-101 0 -168 65.5t-74 174.5l-6 98q9 27 20 52q28 60 65 102.5t77 59.5t102 17q119 0 199 -90t80 -224zM559 369l-5 74q-7 109 -137 173l-69 4l-29 11q-80 -24 -104 -41t-55 -79q-28 -56 -28 -73
q0 -18 10 -43l1 -55q0 -19 21 -45q15 -17 31 -35q11 -11 22 -23q18 -16 29 -19l33 -9l48 -22q8 2 41 11l110 30q28 8 58 48l9 40zM432 353q0 -22 -26 -41t-57 -19q-21 0 -57 7l-29 3l-29 34q-18 22 -18 54q0 61 61 141q43 11 52 11q25 0 76 -32l5 -32l-30 -25l-35 22l-22 4
q-51 -38 -51 -69q0 -20 19.5 -37.5t43.5 -17.5q9 0 55 20q16 1 23 -4q19 -6 19 -19z" />
    <glyph glyph-name="ordfeminine" unicode="&#xaa;" horiz-adv-x="491" 
d="M406 382q1 -61 -40 -61q-10 0 -23 9.5t-13 22.5q-12 37 -26 37q-4 0 -8 -2l-69 -25q-6 -2 -16 -2q-42 0 -84 29q-50 36 -50 90q0 36 32 105l15 32l44 27q22 15 71 40q23 8 36 -1l84 -60l12 -32l-3 -24l12 -60v-39zM304 533q-4 70 -80 70q-51 0 -76 -43q-16 -28 -16 -51
q0 -27 24.5 -47t57.5 -20q35 0 50 11l19 33l19 18q3 17 2 29z" />
    <glyph glyph-name="guillemotleft" unicode="&#xab;" horiz-adv-x="680" 
d="M608 185q0 -15 -8.5 -27t-22.5 -12q-18 0 -48 24q-43 35 -56 42q-26 15 -73 40q-20 10 -39 20.5t-19 20.5q0 14 13 38q16 29 41 48l58 46l14 30l56 44q21 7 28 7q31 0 31 -25q0 -13 -8 -18l-39 -25l-51 -54l-5 -16q-41 -31 -41 -49q0 -16 31 -26l38 -15l16 -18l17 -8
q24 -11 45.5 -33.5t21.5 -33.5zM371 506q0 -47 -58 -99l-54 -48l-21 -41l-45 -46q-20 -20 -20 -36q0 -18 29 -20l78 -6q64 -5 64 -46q0 -42 -26 -42q-12 0 -28.5 4.5t-25.5 5.5l-30 2l-53 34l-39 8q-59 12 -59 54q0 45 23 59l67 42l36 59l26 14l67 82q11 15 22.5 31t25.5 16
q21 0 21 -27z" />
    <glyph glyph-name="logicalnot" unicode="&#xac;" 
d="M632 -78q0 -39 -6 -57q-16 -49 -103 -99q-33 -18 -112 -46q-20 -4 -47 -4q-53 0 -118 13l-18 13l-30 3l-85 55q-41 27 -41 71q0 36 15 51l37 38l27 -4l9 -24l-22 -35q-7 -11 -7 -23q0 -22 23 -44q20 -19 49 -28l79 -25l128 -6q29 11 89 41q29 18 74 60l6 56l-13 40
q-8 23 -38 38l10 -54l-22 -44l-72 -64l-129 -4q-28 13 -48 24q-51 26 -60 37q-14 17 -27 62l-7 41l10 30q2 6 2 10q0 12 -23 22l-36 15q-36 15 -36 55q0 43 37 61l46 23l-7 21l-6 21q-6 19 11 48q8 14 21 21l34 16l47 23l-13 27l5 27l32 12l39 11l10 21l-29 15h-39
q-20 0 -34.5 11.5t-14.5 30.5q0 26 23 46l27 24l27 29l-11 17l-32 -3l-29 -8q-16 -4 -27 28q0 7 2 12q5 13 19 15l45 7l64 -5q8 -7 14 -13q14 -16 17 -30q2 -7 2 -14q0 -25 -25 -46l-56 -48q41 -8 91 -24q20 -17 29 -63l-30 -39l-52 -20l15 -16q28 3 59 3q72 0 106 -21
q20 -13 38 -52.5t18 -70.5q0 -36 -16 -99l-23 -46l-27 -38l33 2l35 -26l43 -38zM353 274l-19 16l-32 -19q16 -13 23 -13q9 -2 28 16zM423 242l-10 23l-23 7l-15 -35l-50 -12q-7 -2 -14 -2q-36 0 -47 28q-12 30 7 40l45 23l-17 24l-67 -34l-23 -29q-1 -24 3.5 -36t20.5 -31
l61 -18l81 11zM515 236l-30 71l-55 26l-65 3l10 -17l37 -7l31 -12l34 -38l2 -35l-23 -24l-41 -28q-45 -24 -85 -24q-17 0 -53 3l-30 4l10 -37l32 -51l26 -59q8 -19 36 -19q32 0 54 21l34 33l61 105zM491 -19l-22 14l-48 -48l-90 -7l-54 29l-38 83l-9 -32l10 -50
q4 -12 15 -38q23 -39 102 -39q39 0 76 14q23 9 48 48zM226 86l-33 66l-18 21l-21 -11q-6 -3 -6 -13q0 -13 7 -24q17 -24 71 -39z" />
    <glyph glyph-name="minus" unicode="&#xad;" 
d="M632 -78q0 -39 -6 -57q-16 -49 -103 -99q-33 -18 -112 -46q-20 -4 -47 -4q-53 0 -118 13l-18 13l-30 3l-85 55q-41 27 -41 71q0 36 15 51l37 38l27 -4l9 -24l-22 -35q-7 -11 -7 -23q0 -22 23 -44q20 -19 49 -28l79 -25l128 -6q29 11 89 41q29 18 74 60l6 56l-13 40
q-8 23 -38 38l10 -54l-22 -44l-72 -64l-129 -4q-28 13 -48 24q-51 26 -60 37q-14 17 -27 62l-7 41l10 30q2 6 2 10q0 12 -23 22l-36 15q-36 15 -36 55q0 43 37 61l46 23l-7 21l-6 21q-6 19 11 48q8 14 21 21l34 16l47 23l-13 27l5 27l32 12l39 11l10 21l-29 15h-39
q-20 0 -34.5 11.5t-14.5 30.5q0 26 23 46l27 24l27 29l-11 17l-32 -3l-29 -8q-16 -4 -27 28q0 7 2 12q5 13 19 15l45 7l64 -5q8 -7 14 -13q14 -16 17 -30q2 -7 2 -14q0 -25 -25 -46l-56 -48q41 -8 91 -24q20 -17 29 -63l-30 -39l-52 -20l15 -16q28 3 59 3q72 0 106 -21
q20 -13 38 -52.5t18 -70.5q0 -36 -16 -99l-23 -46l-27 -38l33 2l35 -26l43 -38zM353 274l-19 16l-32 -19q16 -13 23 -13q9 -2 28 16zM423 242l-10 23l-23 7l-15 -35l-50 -12q-7 -2 -14 -2q-36 0 -47 28q-12 30 7 40l45 23l-17 24l-67 -34l-23 -29q-1 -24 3.5 -36t20.5 -31
l61 -18l81 11zM515 236l-30 71l-55 26l-65 3l10 -17l37 -7l31 -12l34 -38l2 -35l-23 -24l-41 -28q-45 -24 -85 -24q-17 0 -53 3l-30 4l10 -37l32 -51l26 -59q8 -19 36 -19q32 0 54 21l34 33l61 105zM491 -19l-22 14l-48 -48l-90 -7l-54 29l-38 83l-9 -32l10 -50
q4 -12 15 -38q23 -39 102 -39q39 0 76 14q23 9 48 48zM226 86l-33 66l-18 21l-21 -11q-6 -3 -6 -13q0 -13 7 -24q17 -24 71 -39z" />
    <glyph glyph-name="minus" unicode="&#x2212;" 
d="M632 -78q0 -39 -6 -57q-16 -49 -103 -99q-33 -18 -112 -46q-20 -4 -47 -4q-53 0 -118 13l-18 13l-30 3l-85 55q-41 27 -41 71q0 36 15 51l37 38l27 -4l9 -24l-22 -35q-7 -11 -7 -23q0 -22 23 -44q20 -19 49 -28l79 -25l128 -6q29 11 89 41q29 18 74 60l6 56l-13 40
q-8 23 -38 38l10 -54l-22 -44l-72 -64l-129 -4q-28 13 -48 24q-51 26 -60 37q-14 17 -27 62l-7 41l10 30q2 6 2 10q0 12 -23 22l-36 15q-36 15 -36 55q0 43 37 61l46 23l-7 21l-6 21q-6 19 11 48q8 14 21 21l34 16l47 23l-13 27l5 27l32 12l39 11l10 21l-29 15h-39
q-20 0 -34.5 11.5t-14.5 30.5q0 26 23 46l27 24l27 29l-11 17l-32 -3l-29 -8q-16 -4 -27 28q0 7 2 12q5 13 19 15l45 7l64 -5q8 -7 14 -13q14 -16 17 -30q2 -7 2 -14q0 -25 -25 -46l-56 -48q41 -8 91 -24q20 -17 29 -63l-30 -39l-52 -20l15 -16q28 3 59 3q72 0 106 -21
q20 -13 38 -52.5t18 -70.5q0 -36 -16 -99l-23 -46l-27 -38l33 2l35 -26l43 -38zM353 274l-19 16l-32 -19q16 -13 23 -13q9 -2 28 16zM423 242l-10 23l-23 7l-15 -35l-50 -12q-7 -2 -14 -2q-36 0 -47 28q-12 30 7 40l45 23l-17 24l-67 -34l-23 -29q-1 -24 3.5 -36t20.5 -31
l61 -18l81 11zM515 236l-30 71l-55 26l-65 3l10 -17l37 -7l31 -12l34 -38l2 -35l-23 -24l-41 -28q-45 -24 -85 -24q-17 0 -53 3l-30 4l10 -37l32 -51l26 -59q8 -19 36 -19q32 0 54 21l34 33l61 105zM491 -19l-22 14l-48 -48l-90 -7l-54 29l-38 83l-9 -32l10 -50
q4 -12 15 -38q23 -39 102 -39q39 0 76 14q23 9 48 48zM226 86l-33 66l-18 21l-21 -11q-6 -3 -6 -13q0 -13 7 -24q17 -24 71 -39z" />
    <glyph glyph-name="registered" unicode="&#xae;" horiz-adv-x="703" 
d="M627 409q0 -126 -75 -217l-18 -27l-39 -18l-12 -15l-40 -27l-69 -6l-77 7l-66 38l-10 16l-61 37q-17 11 -51 65l-18 28l-6 40l-6 32q-1 21 -1 30q0 119 86.5 209t202.5 90q100 0 185 -102q35 -43 64 -103l4 -41q7 -24 7 -36zM571 401q0 111 -98 185l-34 10l-40 21
q-17 5 -37 5q-82 0 -150.5 -63t-70.5 -133l-3 -98q23 -34 75 -81q88 -79 160 -79q78 0 138 71t60 162zM485 318q-13 -38 -26 -38q-5 0 -53 24q-1 1 -20.5 17t-28.5 16q-11 0 -38 -57l-23 -11l-26 26q4 19 4 39q0 17 -9 101l10 46l-1 27l7 17q10 25 53 25q44 0 76 -27.5
t32 -65.5q0 -3 -10 -24t-12 -24l3 -27l28 -23zM372 438q5 11 -6 27l-21 11l-18 -14l-1 -35l19 -8q12 5 27 19z" />
    <glyph glyph-name="macron" unicode="&#xaf;" horiz-adv-x="494" 
d="M414 631q0 -13 -14 -33q-17 -24 -38 -24q-9 0 -29 6t-32 6l-26 1l-17 -9l-43 6h-31q-31 0 -57 7q-31 8 -31 21q0 70 36 70q17 0 58 -13t66 -13q13 0 38 5l19 5l16 -4h9q26 0 51 -9.5t25 -21.5z" />
    <glyph glyph-name="macron" unicode="&#x2c9;" horiz-adv-x="494" 
d="M414 631q0 -13 -14 -33q-17 -24 -38 -24q-9 0 -29 6t-32 6l-26 1l-17 -9l-43 6h-31q-31 0 -57 7q-31 8 -31 21q0 70 36 70q17 0 58 -13t66 -13q13 0 38 5l19 5l16 -4h9q26 0 51 -9.5t25 -21.5z" />
    <glyph glyph-name="degree" unicode="&#xb0;" horiz-adv-x="466" 
d="M386 536q0 -63 -55 -104q-51 -38 -120 -38q-59 0 -96.5 37.5t-37.5 104.5q0 47 31 105l28 33l21 6q19 16 42 16q73 0 130 -48.5t57 -111.5zM334 539l-17 26l-6 18l-30 25l-35 2q-20 8 -32 8q-34 0 -57 -19t-23 -55q0 -31 20 -54t49 -23q102 0 131 72z" />
    <glyph glyph-name="plusminus" unicode="&#xb1;" horiz-adv-x="760" 
d="M695 674l-4 -52l2 -40l-15 -184q-5 -32 4 -103l-1 -35l-6 -37l8 -77l-7 -51v-30q0 -98 -46 -98q-5 0 -10 2l-21 22l4 39l10 39v101l8 34l-1 87l-5 46l4 30v30l5 43l-13 49q-5 18 -36 37.5t-48 19.5q-53 0 -87.5 -42.5t-32.5 -106.5l2 -57l10 -54l18 -7l43 8q8 1 14 -5
t5 -14l-2 -34l-29 -15l-49 -8q-26 -4 -26 -43q0 -11 -3 -34t-3 -35q0 -147 -52 -147q-29 0 -25 53l7 92l8 24l2 39q1 19 -8 31t-18 12h-39q-107 0 -107 -32v-33l5 -32l-13 -50l-1 -34q0 -11 -9.5 -28t-17.5 -17q-47 0 -47 46q0 9 4 23q5 20 7 35q6 19 13 63q2 41 2 39
q-1 21 -12 24q-15 2 -31 4q-21 3 -23 17q-1 6 -1 12q0 18 14 27q7 5 32 12q15 4 18 6q8 5 12 18l7 23l1 28l26 51l8 33q25 105 127 105q20 0 39 -4l42 -9l26 6l42 38q22 20 118 37l34 -9q20 -11 33 -11q11 0 14 9l9 28l9 22l7 24q6 22 27 22t19 -22zM345 410v15q0 21 -32 38
q-27 14 -50 14q-52 0 -85 -163q0 -61 45 -53l93 17l21 31l-1 70z" />
    <glyph glyph-name="twosuperior" unicode="&#xb2;" 
d="M632 -78q0 -39 -6 -57q-16 -49 -103 -99q-33 -18 -112 -46q-20 -4 -47 -4q-53 0 -118 13l-18 13l-30 3l-85 55q-41 27 -41 71q0 36 15 51l37 38l27 -4l9 -24l-22 -35q-7 -11 -7 -23q0 -22 23 -44q20 -19 49 -28l79 -25l128 -6q29 11 89 41q29 18 74 60l6 56l-13 40
q-8 23 -38 38l10 -54l-22 -44l-72 -64l-129 -4q-28 13 -48 24q-51 26 -60 37q-14 17 -27 62l-7 41l10 30q2 6 2 10q0 12 -23 22l-36 15q-36 15 -36 55q0 43 37 61l46 23l-7 21l-6 21q-6 19 11 48q8 14 21 21l34 16l47 23l-13 27l5 27l32 12l39 11l10 21l-29 15h-39
q-20 0 -34.5 11.5t-14.5 30.5q0 26 23 46l27 24l27 29l-11 17l-32 -3l-29 -8q-16 -4 -27 28q0 7 2 12q5 13 19 15l45 7l64 -5q8 -7 14 -13q14 -16 17 -30q2 -7 2 -14q0 -25 -25 -46l-56 -48q41 -8 91 -24q20 -17 29 -63l-30 -39l-52 -20l15 -16q28 3 59 3q72 0 106 -21
q20 -13 38 -52.5t18 -70.5q0 -36 -16 -99l-23 -46l-27 -38l33 2l35 -26l43 -38zM353 274l-19 16l-32 -19q16 -13 23 -13q9 -2 28 16zM423 242l-10 23l-23 7l-15 -35l-50 -12q-7 -2 -14 -2q-36 0 -47 28q-12 30 7 40l45 23l-17 24l-67 -34l-23 -29q-1 -24 3.5 -36t20.5 -31
l61 -18l81 11zM515 236l-30 71l-55 26l-65 3l10 -17l37 -7l31 -12l34 -38l2 -35l-23 -24l-41 -28q-45 -24 -85 -24q-17 0 -53 3l-30 4l10 -37l32 -51l26 -59q8 -19 36 -19q32 0 54 21l34 33l61 105zM491 -19l-22 14l-48 -48l-90 -7l-54 29l-38 83l-9 -32l10 -50
q4 -12 15 -38q23 -39 102 -39q39 0 76 14q23 9 48 48zM226 86l-33 66l-18 21l-21 -11q-6 -3 -6 -13q0 -13 7 -24q17 -24 71 -39z" />
    <glyph glyph-name="threesuperior" unicode="&#xb3;" 
d="M632 -78q0 -39 -6 -57q-16 -49 -103 -99q-33 -18 -112 -46q-20 -4 -47 -4q-53 0 -118 13l-18 13l-30 3l-85 55q-41 27 -41 71q0 36 15 51l37 38l27 -4l9 -24l-22 -35q-7 -11 -7 -23q0 -22 23 -44q20 -19 49 -28l79 -25l128 -6q29 11 89 41q29 18 74 60l6 56l-13 40
q-8 23 -38 38l10 -54l-22 -44l-72 -64l-129 -4q-28 13 -48 24q-51 26 -60 37q-14 17 -27 62l-7 41l10 30q2 6 2 10q0 12 -23 22l-36 15q-36 15 -36 55q0 43 37 61l46 23l-7 21l-6 21q-6 19 11 48q8 14 21 21l34 16l47 23l-13 27l5 27l32 12l39 11l10 21l-29 15h-39
q-20 0 -34.5 11.5t-14.5 30.5q0 26 23 46l27 24l27 29l-11 17l-32 -3l-29 -8q-16 -4 -27 28q0 7 2 12q5 13 19 15l45 7l64 -5q8 -7 14 -13q14 -16 17 -30q2 -7 2 -14q0 -25 -25 -46l-56 -48q41 -8 91 -24q20 -17 29 -63l-30 -39l-52 -20l15 -16q28 3 59 3q72 0 106 -21
q20 -13 38 -52.5t18 -70.5q0 -36 -16 -99l-23 -46l-27 -38l33 2l35 -26l43 -38zM353 274l-19 16l-32 -19q16 -13 23 -13q9 -2 28 16zM423 242l-10 23l-23 7l-15 -35l-50 -12q-7 -2 -14 -2q-36 0 -47 28q-12 30 7 40l45 23l-17 24l-67 -34l-23 -29q-1 -24 3.5 -36t20.5 -31
l61 -18l81 11zM515 236l-30 71l-55 26l-65 3l10 -17l37 -7l31 -12l34 -38l2 -35l-23 -24l-41 -28q-45 -24 -85 -24q-17 0 -53 3l-30 4l10 -37l32 -51l26 -59q8 -19 36 -19q32 0 54 21l34 33l61 105zM491 -19l-22 14l-48 -48l-90 -7l-54 29l-38 83l-9 -32l10 -50
q4 -12 15 -38q23 -39 102 -39q39 0 76 14q23 9 48 48zM226 86l-33 66l-18 21l-21 -11q-6 -3 -6 -13q0 -13 7 -24q17 -24 71 -39z" />
    <glyph glyph-name="acute" unicode="&#xb4;" horiz-adv-x="494" 
d="M307 656l-12 -13l-14 -23l-11 -42l-12 -22q-19 -35 -39 -35q-31 0 -31 24q0 12 6 25l8 17l6 18l23 32l9 24q12 32 32 28q12 -4 27 -19z" />
    <glyph glyph-name="mu" unicode="&#xb5;" horiz-adv-x="509" 
d="M435 330q0 -30 -12 -96l-5 -35l-25 -43q-16 -29 -35 -51q-45 -54 -92 -65q-18 -4 -50 -2q-32 3 -36 2q-27 -8 -24 -68l3 -71l-12 -36v-35q0 -16 -12 -29q-6 -9 -16 -21l-19 -5l-11 13l-17 8l3 42l-1 28l23 106l7 95l19 107l-3 28l11 76v44q0 48 44 48q34 0 34 -38
q0 -5 -8.5 -49.5t-8.5 -80.5q0 -95 44 -95q58 0 97 90l12 54l15 29l6 37q10 62 46 62q23 0 23 -49z" />
    <glyph glyph-name="mu" unicode="&#x3bc;" horiz-adv-x="509" 
d="M435 330q0 -30 -12 -96l-5 -35l-25 -43q-16 -29 -35 -51q-45 -54 -92 -65q-18 -4 -50 -2q-32 3 -36 2q-27 -8 -24 -68l3 -71l-12 -36v-35q0 -16 -12 -29q-6 -9 -16 -21l-19 -5l-11 13l-17 8l3 42l-1 28l23 106l7 95l19 107l-3 28l11 76v44q0 48 44 48q34 0 34 -38
q0 -5 -8.5 -49.5t-8.5 -80.5q0 -95 44 -95q58 0 97 90l12 54l15 29l6 37q10 62 46 62q23 0 23 -49z" />
    <glyph glyph-name="paragraph" unicode="&#xb6;" horiz-adv-x="594" 
d="M524 0q0 -72 -43 -77l-23 21l2 31l-8 21l2 46l3 98l-6 47l9 216l-4 19l2 38v48q0 104 -44 108l-30 3l-20 -91l6 -112l-6 -104l3 -72l-6 -32l3 -149q13 -79 13 -93q0 -13 -16 -52l-14 3l-18 -2l-11 11l-10 9v35l-3 34l1 34l-4 38l8 36l-4 19l4 138l3 20q2 15 -6.5 24.5
t-20.5 8.5l-47 -4l-30 12l-77 18l-13 14q-48 37 -48 104q0 95 89.5 158.5t224.5 63.5q11 0 60 -20q20 -6 40 -13t20 -15l-1 -124l7 -74l6 -208l-5 -32l-2 -134q14 -57 14 -68zM316 516l-5 18q2 10 2 20q0 50 -39 50q-44 0 -126 -71l-14 -25l3 -17l-4 -21l3 -28
q40 -45 123 -45q15 0 33.5 11t18.5 20l-1 45z" />
    <glyph glyph-name="periodcentered" unicode="&#xb7;" horiz-adv-x="270" 
d="M194 335q0 -31 -19 -51t-45 -20q-53 0 -53 58q0 29 19 57h17l12 10l19 -6q50 -17 50 -48z" />
    <glyph glyph-name="periodcentered" unicode="&#x2219;" horiz-adv-x="270" 
d="M194 335q0 -31 -19 -51t-45 -20q-53 0 -53 58q0 29 19 57h17l12 10l19 -6q50 -17 50 -48z" />
    <glyph glyph-name="cedilla" unicode="&#xb8;" horiz-adv-x="494" 
d="M314 -145l-2 -25l1 -25l-5 -13l1 -18q1 -25 -27.5 -48.5t-64.5 -23.5q-96 0 -96 56q0 14 12.5 23.5t28.5 9.5q14 0 32 -8t31 -8q9 0 17 9l6 18l10 7l-11 31l-28 27l-40 15q-14 7 -14 17q0 18 6 28l26 45l-2 24l20 29q23 33 62 33q4 0 9 -6t5 -13l-1 -14l-30 -36
q-10 -12 -11 -31q1 15 1 -29q0 -12 33 -30.5t31 -43.5z" />
    <glyph glyph-name="onesuperior" unicode="&#xb9;" 
d="M632 -78q0 -39 -6 -57q-16 -49 -103 -99q-33 -18 -112 -46q-20 -4 -47 -4q-53 0 -118 13l-18 13l-30 3l-85 55q-41 27 -41 71q0 36 15 51l37 38l27 -4l9 -24l-22 -35q-7 -11 -7 -23q0 -22 23 -44q20 -19 49 -28l79 -25l128 -6q29 11 89 41q29 18 74 60l6 56l-13 40
q-8 23 -38 38l10 -54l-22 -44l-72 -64l-129 -4q-28 13 -48 24q-51 26 -60 37q-14 17 -27 62l-7 41l10 30q2 6 2 10q0 12 -23 22l-36 15q-36 15 -36 55q0 43 37 61l46 23l-7 21l-6 21q-6 19 11 48q8 14 21 21l34 16l47 23l-13 27l5 27l32 12l39 11l10 21l-29 15h-39
q-20 0 -34.5 11.5t-14.5 30.5q0 26 23 46l27 24l27 29l-11 17l-32 -3l-29 -8q-16 -4 -27 28q0 7 2 12q5 13 19 15l45 7l64 -5q8 -7 14 -13q14 -16 17 -30q2 -7 2 -14q0 -25 -25 -46l-56 -48q41 -8 91 -24q20 -17 29 -63l-30 -39l-52 -20l15 -16q28 3 59 3q72 0 106 -21
q20 -13 38 -52.5t18 -70.5q0 -36 -16 -99l-23 -46l-27 -38l33 2l35 -26l43 -38zM353 274l-19 16l-32 -19q16 -13 23 -13q9 -2 28 16zM423 242l-10 23l-23 7l-15 -35l-50 -12q-7 -2 -14 -2q-36 0 -47 28q-12 30 7 40l45 23l-17 24l-67 -34l-23 -29q-1 -24 3.5 -36t20.5 -31
l61 -18l81 11zM515 236l-30 71l-55 26l-65 3l10 -17l37 -7l31 -12l34 -38l2 -35l-23 -24l-41 -28q-45 -24 -85 -24q-17 0 -53 3l-30 4l10 -37l32 -51l26 -59q8 -19 36 -19q32 0 54 21l34 33l61 105zM491 -19l-22 14l-48 -48l-90 -7l-54 29l-38 83l-9 -32l10 -50
q4 -12 15 -38q23 -39 102 -39q39 0 76 14q23 9 48 48zM226 86l-33 66l-18 21l-21 -11q-6 -3 -6 -13q0 -13 7 -24q17 -24 71 -39z" />
    <glyph glyph-name="ordmasculine" unicode="&#xba;" horiz-adv-x="484" 
d="M402 536q0 -66 -48.5 -115t-114.5 -49q-67 0 -114 45.5t-47 109.5q0 111 110 154l50 14l26 -5q40 -2 69 -17q69 -38 69 -137zM336 550q0 15 -20 46l-28 12q-26 20 -44 20q-43 0 -74.5 -32.5t-31.5 -74.5q0 -30 28 -54.5t67 -24.5q43 0 73 32t30 76z" />
    <glyph glyph-name="guillemotright" unicode="&#xbb;" horiz-adv-x="608" 
d="M559 272q0 -7 -30 -34q-39 -36 -51 -50l-50 -58q-52 -60 -87 -60q-28 0 -28 21q0 29 15 42l33 29l10 18l53 38l9 15l22 21q14 13 14 25q0 13 -45 40l-128 77q-22 13 -22 36q0 36 27 36q13 0 28 -11l44 -32l25 -6l62 -55l82 -45q17 -9 17 -47zM285 262q0 -12 -14.5 -39
t-27.5 -39l-19 -18l-58 -88q-13 -20 -24 -20q-14 0 -24.5 12.5t-10.5 30.5q0 25 41 66q52 52 52 78q0 25 -13 39l-26 27l-46 24q-53 28 -53 43q0 34 29 34q28 0 88 -41l48 -33l10 -16l19 -14q29 -17 29 -46z" />
    <glyph glyph-name="onequarter" unicode="&#xbc;" 
d="M632 -78q0 -39 -6 -57q-16 -49 -103 -99q-33 -18 -112 -46q-20 -4 -47 -4q-53 0 -118 13l-18 13l-30 3l-85 55q-41 27 -41 71q0 36 15 51l37 38l27 -4l9 -24l-22 -35q-7 -11 -7 -23q0 -22 23 -44q20 -19 49 -28l79 -25l128 -6q29 11 89 41q29 18 74 60l6 56l-13 40
q-8 23 -38 38l10 -54l-22 -44l-72 -64l-129 -4q-28 13 -48 24q-51 26 -60 37q-14 17 -27 62l-7 41l10 30q2 6 2 10q0 12 -23 22l-36 15q-36 15 -36 55q0 43 37 61l46 23l-7 21l-6 21q-6 19 11 48q8 14 21 21l34 16l47 23l-13 27l5 27l32 12l39 11l10 21l-29 15h-39
q-20 0 -34.5 11.5t-14.5 30.5q0 26 23 46l27 24l27 29l-11 17l-32 -3l-29 -8q-16 -4 -27 28q0 7 2 12q5 13 19 15l45 7l64 -5q8 -7 14 -13q14 -16 17 -30q2 -7 2 -14q0 -25 -25 -46l-56 -48q41 -8 91 -24q20 -17 29 -63l-30 -39l-52 -20l15 -16q28 3 59 3q72 0 106 -21
q20 -13 38 -52.5t18 -70.5q0 -36 -16 -99l-23 -46l-27 -38l33 2l35 -26l43 -38zM353 274l-19 16l-32 -19q16 -13 23 -13q9 -2 28 16zM423 242l-10 23l-23 7l-15 -35l-50 -12q-7 -2 -14 -2q-36 0 -47 28q-12 30 7 40l45 23l-17 24l-67 -34l-23 -29q-1 -24 3.5 -36t20.5 -31
l61 -18l81 11zM515 236l-30 71l-55 26l-65 3l10 -17l37 -7l31 -12l34 -38l2 -35l-23 -24l-41 -28q-45 -24 -85 -24q-17 0 -53 3l-30 4l10 -37l32 -51l26 -59q8 -19 36 -19q32 0 54 21l34 33l61 105zM491 -19l-22 14l-48 -48l-90 -7l-54 29l-38 83l-9 -32l10 -50
q4 -12 15 -38q23 -39 102 -39q39 0 76 14q23 9 48 48zM226 86l-33 66l-18 21l-21 -11q-6 -3 -6 -13q0 -13 7 -24q17 -24 71 -39z" />
    <glyph glyph-name="onehalf" unicode="&#xbd;" 
d="M632 -78q0 -39 -6 -57q-16 -49 -103 -99q-33 -18 -112 -46q-20 -4 -47 -4q-53 0 -118 13l-18 13l-30 3l-85 55q-41 27 -41 71q0 36 15 51l37 38l27 -4l9 -24l-22 -35q-7 -11 -7 -23q0 -22 23 -44q20 -19 49 -28l79 -25l128 -6q29 11 89 41q29 18 74 60l6 56l-13 40
q-8 23 -38 38l10 -54l-22 -44l-72 -64l-129 -4q-28 13 -48 24q-51 26 -60 37q-14 17 -27 62l-7 41l10 30q2 6 2 10q0 12 -23 22l-36 15q-36 15 -36 55q0 43 37 61l46 23l-7 21l-6 21q-6 19 11 48q8 14 21 21l34 16l47 23l-13 27l5 27l32 12l39 11l10 21l-29 15h-39
q-20 0 -34.5 11.5t-14.5 30.5q0 26 23 46l27 24l27 29l-11 17l-32 -3l-29 -8q-16 -4 -27 28q0 7 2 12q5 13 19 15l45 7l64 -5q8 -7 14 -13q14 -16 17 -30q2 -7 2 -14q0 -25 -25 -46l-56 -48q41 -8 91 -24q20 -17 29 -63l-30 -39l-52 -20l15 -16q28 3 59 3q72 0 106 -21
q20 -13 38 -52.5t18 -70.5q0 -36 -16 -99l-23 -46l-27 -38l33 2l35 -26l43 -38zM353 274l-19 16l-32 -19q16 -13 23 -13q9 -2 28 16zM423 242l-10 23l-23 7l-15 -35l-50 -12q-7 -2 -14 -2q-36 0 -47 28q-12 30 7 40l45 23l-17 24l-67 -34l-23 -29q-1 -24 3.5 -36t20.5 -31
l61 -18l81 11zM515 236l-30 71l-55 26l-65 3l10 -17l37 -7l31 -12l34 -38l2 -35l-23 -24l-41 -28q-45 -24 -85 -24q-17 0 -53 3l-30 4l10 -37l32 -51l26 -59q8 -19 36 -19q32 0 54 21l34 33l61 105zM491 -19l-22 14l-48 -48l-90 -7l-54 29l-38 83l-9 -32l10 -50
q4 -12 15 -38q23 -39 102 -39q39 0 76 14q23 9 48 48zM226 86l-33 66l-18 21l-21 -11q-6 -3 -6 -13q0 -13 7 -24q17 -24 71 -39z" />
    <glyph glyph-name="threequarters" unicode="&#xbe;" 
d="M632 -78q0 -39 -6 -57q-16 -49 -103 -99q-33 -18 -112 -46q-20 -4 -47 -4q-53 0 -118 13l-18 13l-30 3l-85 55q-41 27 -41 71q0 36 15 51l37 38l27 -4l9 -24l-22 -35q-7 -11 -7 -23q0 -22 23 -44q20 -19 49 -28l79 -25l128 -6q29 11 89 41q29 18 74 60l6 56l-13 40
q-8 23 -38 38l10 -54l-22 -44l-72 -64l-129 -4q-28 13 -48 24q-51 26 -60 37q-14 17 -27 62l-7 41l10 30q2 6 2 10q0 12 -23 22l-36 15q-36 15 -36 55q0 43 37 61l46 23l-7 21l-6 21q-6 19 11 48q8 14 21 21l34 16l47 23l-13 27l5 27l32 12l39 11l10 21l-29 15h-39
q-20 0 -34.5 11.5t-14.5 30.5q0 26 23 46l27 24l27 29l-11 17l-32 -3l-29 -8q-16 -4 -27 28q0 7 2 12q5 13 19 15l45 7l64 -5q8 -7 14 -13q14 -16 17 -30q2 -7 2 -14q0 -25 -25 -46l-56 -48q41 -8 91 -24q20 -17 29 -63l-30 -39l-52 -20l15 -16q28 3 59 3q72 0 106 -21
q20 -13 38 -52.5t18 -70.5q0 -36 -16 -99l-23 -46l-27 -38l33 2l35 -26l43 -38zM353 274l-19 16l-32 -19q16 -13 23 -13q9 -2 28 16zM423 242l-10 23l-23 7l-15 -35l-50 -12q-7 -2 -14 -2q-36 0 -47 28q-12 30 7 40l45 23l-17 24l-67 -34l-23 -29q-1 -24 3.5 -36t20.5 -31
l61 -18l81 11zM515 236l-30 71l-55 26l-65 3l10 -17l37 -7l31 -12l34 -38l2 -35l-23 -24l-41 -28q-45 -24 -85 -24q-17 0 -53 3l-30 4l10 -37l32 -51l26 -59q8 -19 36 -19q32 0 54 21l34 33l61 105zM491 -19l-22 14l-48 -48l-90 -7l-54 29l-38 83l-9 -32l10 -50
q4 -12 15 -38q23 -39 102 -39q39 0 76 14q23 9 48 48zM226 86l-33 66l-18 21l-21 -11q-6 -3 -6 -13q0 -13 7 -24q17 -24 71 -39z" />
    <glyph glyph-name="questiondown" unicode="&#xbf;" horiz-adv-x="454" 
d="M254 394q0 -46 -32 -46q-9 0 -21 11l-12 22l5 19v19q0 21 27 21q33 0 33 -46zM424 -159q0 -43 -39 -70l-25 -17l-30 -22l-69 -17q-36 -7 -74 -7q-66 0 -109.5 44.5t-43.5 111.5q0 48 21 103.5t52 79.5l26 20l26 26l19 6l13 41l12 23l2 21l6 13q3 45 37 45q22 0 22 -82
q0 -81 -2 -102q-4 -43 -20 -43q-17 0 -59 12q-7 -1 -23 -7q-23 -14 -45 -71.5t-22 -96.5q0 -29 27.5 -50.5t63.5 -21.5q20 0 83 15l48 39l24 7l34 23q18 12 28 12q17 0 17 -35z" />
    <glyph glyph-name="Agrave" unicode="&#xc0;" horiz-adv-x="691" 
d="M621 79q0 -14 -19 -37.5t-31 -23.5q-9 0 -27 17l-9 27l3 40l-11 29q-8 20 -22 63q-23 108 -60 108q-6 0 -55 -10t-77 -10q-52 0 -64 -27l-15 -33l-5 -27l-13 -22l-8 -27l-27 -33l-25 -66q-4 -11 -16 -19t-19 -8q-11 0 -23.5 13.5t-12.5 27.5q0 28 39 88q4 21 18 64
q11 26 36 67l48 98l29 84l16 27l36 84q11 27 24.5 53.5t37.5 26.5q21 0 33 -14t28 -54l71 -172l6 -36l51 -115q8 -9 18 -28q5 -32 21 -89q24 -55 24 -66zM439 397q0 12 -12 44l-11 17l-10 36q-3 26 -31 26q-21 0 -45 -48q-23 -44 -23 -71q0 -39 28 -38l75 3q7 0 18 9t11 22z
M543 733q0 -31 -26 -31q-19 0 -53 24l-15 7l-15 26l-13 15l-8 15l-15 22q-20 14 -20 31q0 34 43 34q5 0 32 -28l12 -11l12 -17l40 -40q26 -26 26 -47z" />
    <glyph glyph-name="Aacute" unicode="&#xc1;" horiz-adv-x="691" 
d="M621 79q0 -14 -19 -37.5t-31 -23.5q-9 0 -27 17l-9 27l3 40l-11 29q-8 20 -22 63q-23 108 -60 108q-6 0 -55 -10t-77 -10q-52 0 -64 -27l-15 -33l-5 -27l-13 -22l-8 -27l-27 -33l-25 -66q-4 -11 -16 -19t-19 -8q-11 0 -23.5 13.5t-12.5 27.5q0 28 39 88q4 21 18 64
q11 26 36 67l48 98l29 84l16 27l36 84q11 27 24.5 53.5t37.5 26.5q21 0 33 -14t28 -54l71 -172l6 -36l51 -115q8 -9 18 -28q5 -32 21 -89q24 -55 24 -66zM439 397q0 12 -12 44l-11 17l-10 36q-3 26 -31 26q-21 0 -45 -48q-23 -44 -23 -71q0 -39 28 -38l75 3q7 0 18 9t11 22z
M547 832l-12 -13l-14 -23l-11 -42l-12 -22q-19 -35 -39 -35q-31 0 -31 24q0 12 6 25l8 17l6 18l23 32l9 24q12 32 32 28q12 -4 27 -19z" />
    <glyph glyph-name="Acircumflex" unicode="&#xc2;" horiz-adv-x="691" 
d="M621 79q0 -14 -19 -37.5t-31 -23.5q-9 0 -27 17l-9 27l3 40l-11 29q-8 20 -22 63q-23 108 -60 108q-6 0 -55 -10t-77 -10q-52 0 -64 -27l-15 -33l-5 -27l-13 -22l-8 -27l-27 -33l-25 -66q-4 -11 -16 -19t-19 -8q-11 0 -23.5 13.5t-12.5 27.5q0 28 39 88q4 21 18 64
q11 26 36 67l48 98l29 84l16 27l36 84q11 27 24.5 53.5t37.5 26.5q21 0 33 -14t28 -54l71 -172l6 -36l51 -115q8 -9 18 -28q5 -32 21 -89q24 -55 24 -66zM439 397q0 12 -12 44l-11 17l-10 36q-3 26 -31 26q-21 0 -45 -48q-23 -44 -23 -71q0 -39 28 -38l75 3q7 0 18 9t11 22z
M603 727q2 -3 2 -8q0 -9 -9.5 -18t-17.5 -9q-24 0 -42 22l-13 16l-15 17l-14 13q-10 21 -30 21q-11 0 -22 -19l-16 -27l-14 -23q-13 -22 -42 -22q-18 0 -18 24q0 8 4 14l13 21l15 37l33 59q20 36 45 36q22 0 57 -49l47 -66l22 -18z" />
    <glyph glyph-name="Atilde" unicode="&#xc3;" horiz-adv-x="691" 
d="M621 79q0 -14 -19 -37.5t-31 -23.5q-9 0 -27 17l-9 27l3 40l-11 29q-8 20 -22 63q-23 108 -60 108q-6 0 -55 -10t-77 -10q-52 0 -64 -27l-15 -33l-5 -27l-13 -22l-8 -27l-27 -33l-25 -66q-4 -11 -16 -19t-19 -8q-11 0 -23.5 13.5t-12.5 27.5q0 28 39 88q4 21 18 64
q11 26 36 67l48 98l29 84l16 27l36 84q11 27 24.5 53.5t37.5 26.5q21 0 33 -14t28 -54l71 -172l6 -36l51 -115q8 -9 18 -28q5 -32 21 -89q24 -55 24 -66zM439 397q0 12 -12 44l-11 17l-10 36q-3 26 -31 26q-21 0 -45 -48q-23 -44 -23 -71q0 -39 28 -38l75 3q7 0 18 9t11 22z
M655 767l-22 -24l-13 -9l-14 -11q-25 -20 -72 -20q-33 0 -59 23l-36 32q-11 10 -23 10q-10 0 -15 -5t-10 -12l-8 -10l-15 -13q-14 -12 -30 -12q-21 0 -21 24q0 22 16 36l11 24l12 9q38 43 66 43q23 0 38 -20l24 -33q23 -31 52 -31q16 0 70 51q14 2 20 2q14 0 25 -11t11 -25
q0 -10 -7 -18z" />
    <glyph glyph-name="Adieresis" unicode="&#xc4;" horiz-adv-x="691" 
d="M621 79q0 -14 -19 -37.5t-31 -23.5q-9 0 -27 17l-9 27l3 40l-11 29q-8 20 -22 63q-23 108 -60 108q-6 0 -55 -10t-77 -10q-52 0 -64 -27l-15 -33l-5 -27l-13 -22l-8 -27l-27 -33l-25 -66q-4 -11 -16 -19t-19 -8q-11 0 -23.5 13.5t-12.5 27.5q0 28 39 88q4 21 18 64
q11 26 36 67l48 98l29 84l16 27l36 84q11 27 24.5 53.5t37.5 26.5q21 0 33 -14t28 -54l71 -172l6 -36l51 -115q8 -9 18 -28q5 -32 21 -89q24 -55 24 -66zM439 397q0 12 -12 44l-11 17l-10 36q-3 26 -31 26q-21 0 -45 -48q-23 -44 -23 -71q0 -39 28 -38l75 3q7 0 18 9t11 22z
M631 792q0 -26 -10 -49q-12 -29 -31 -29q-46 0 -46 70q0 26 21 44q22 15 29 15q12 0 20 -18l14 -8q3 -22 3 -25zM434 769l-4 -18q-30 -43 -75 -43q-32 0 -32 34q0 28 17 51.5t44 23.5q40 0 47 -37z" />
    <glyph glyph-name="Aring" unicode="&#xc5;" horiz-adv-x="691" 
d="M621 79q0 -14 -19 -37.5t-31 -23.5q-9 0 -27 17l-9 27l3 40l-11 29q-8 20 -22 63q-23 108 -60 108q-6 0 -55 -10t-77 -10q-52 0 -64 -27l-15 -33l-5 -27l-13 -22l-8 -27l-27 -33l-25 -66q-4 -11 -16 -19t-19 -8q-11 0 -23.5 13.5t-12.5 27.5q0 28 39 88q4 21 18 64
q11 26 36 67l48 98l29 84l16 27l36 84q11 27 24.5 53.5t37.5 26.5q21 0 33 -14t28 -54l71 -172l6 -36l51 -115q8 -9 18 -28q5 -32 21 -89q24 -55 24 -66zM439 397q0 12 -12 44l-11 17l-10 36q-3 26 -31 26q-21 0 -45 -48q-23 -44 -23 -71q0 -39 28 -38l75 3q7 0 18 9t11 22z
" />
    <glyph glyph-name="AE" unicode="&#xc6;" horiz-adv-x="987" 
d="M923 73l-4 -14v-24l-13 -7l-20 -3l-32 -9l-67 2q-24 -6 -69 -14l-39 -4q-8 -1 -44 -12t-46 -11q-15 0 -25 12t-10 28q0 17 8.5 58t8.5 51q0 61 -73 61q-6 0 -36.5 -6t-46.5 -5l-42 3l-33 9l-28 -8l-14 -19l-32 -22l-20 -23l-74 -68q-54 -74 -74 -74q-11 0 -19.5 11
t-8.5 22q0 18 32 54l16 18l13 24l38 34l132 131l24 36l101 106l125 155l21 18q10 22 27 39q41 39 110 42l87 4q9 0 23.5 5t21.5 5q43 0 43 -40q0 -6 -16 -18l-12 -12l-27 -4l-24 -9l-38 -2l-42 -6l-28 2l-27 -27l-2 -17l-7 -41l4 -42l2 -30q1 -19 19 -16l62 9l61 -1l45 7
l14 -12l-11 -31v-29q0 -13 -22 -15l-27 -3l-28 -9l-67 8l-35 -8q-22 -20 -22 -38t11 -38l-7 -35q-1 -6 -15 -43q-11 -29 -11 -54q0 -53 33 -50l58 5l32 15l105 8l34 7l18 -11zM605 436q3 33 -21 33q-48 0 -110 -90l-41 -60l-19 -13l-11 -23q3 -30 42 -30q7 0 27 5.5t43 5.5
q49 0 57 17l12 27l3 34l14 48z" />
    <glyph glyph-name="Ccedilla" unicode="&#xc7;" horiz-adv-x="605" 
d="M544 594q-4 -10 -17 -14q-12 -3 -22 1q-15 8 -29 15q-17 8 -39 8q-69 0 -127 -44l-9 -19l-53 -45q-14 -17 -51 -75q-36 -65 -36 -141q0 -21 16 -65l28 -23l9 -17l15 -20q76 -30 116 -30q18 0 35 6l31 15l22 4l24 14l18 -9l4 -15l12 -15q-7 -43 -24 -43h-20q-9 -3 -38 -14
q-47 -13 -72 -10l-15 2l-24 -29q-10 -12 -11 -31q1 19 1 -29q0 -12 33 -30.5t31 -43.5l-2 -25l1 -25l-5 -13l1 -18q1 -25 -27.5 -48.5t-64.5 -23.5q-96 0 -96 56q0 14 12.5 23.5t28.5 9.5q14 0 32 -8t31 -8q9 0 17 9l6 18l10 7l-11 31l-28 27l-40 15q-14 7 -14 17q0 18 6 28
l26 45l-2 24l23 33l-26 3l-29 8l-40 38q-66 69 -66 163q0 78 72 209l45 72l17 11q10 11 34 36q73 60 170 60q74 0 108 -53q7 -14 3 -24z" />
    <glyph glyph-name="Egrave" unicode="&#xc8;" horiz-adv-x="635" 
d="M554 602q-23 -33 -45 -33q-5 0 -28 4.5t-30 4.5l-71 -1l-19 10h-39l-22 2q-64 6 -65 -31l-1 -36l-12 -26l-6 -62q-3 -36 6 -52q9 -12 25 -10l47 7l26 -2l32 13l48 -5q17 -2 30 -15t13 -30q0 -13 -13 -24t-22 -10l-49 6l-112 -6l-20 -5l-7 -13l-21 -18l-7 -143
q0 -4 -5 -23.5t-5 -33.5q0 -43 28 -41q45 5 64 5q42 0 86 3l43 17l22 -2l39 2q17 1 34 -12t17 -22t-14 -21t-20 -11l-18 2l-23 -13l-138 -5q-129 -30 -152 -30q-38 0 -36 45l5 116l12 31l7 96l8 18l3 92l20 132l5 126q1 23 14 39t33 15l32 -2l19 5l41 -8l33 5h84l56 -6l54 2
q6 0 11.5 -10t5.5 -22q0 -8 -3 -14zM563 729q0 -31 -26 -31q-19 0 -53 24l-15 7l-15 26l-13 15l-8 15l-15 22q-20 14 -20 31q0 34 43 34q5 0 32 -28l12 -11l12 -17l40 -40q26 -26 26 -47z" />
    <glyph glyph-name="Eacute" unicode="&#xc9;" horiz-adv-x="635" 
d="M554 602q-23 -33 -45 -33q-5 0 -28 4.5t-30 4.5l-71 -1l-19 10h-39l-22 2q-64 6 -65 -31l-1 -36l-12 -26l-6 -62q-3 -36 6 -52q9 -12 25 -10l47 7l26 -2l32 13l48 -5q17 -2 30 -15t13 -30q0 -13 -13 -24t-22 -10l-49 6l-112 -6l-20 -5l-7 -13l-21 -18l-7 -143
q0 -4 -5 -23.5t-5 -33.5q0 -43 28 -41q45 5 64 5q42 0 86 3l43 17l22 -2l39 2q17 1 34 -12t17 -22t-14 -21t-20 -11l-18 2l-23 -13l-138 -5q-129 -30 -152 -30q-38 0 -36 45l5 116l12 31l7 96l8 18l3 92l20 132l5 126q1 23 14 39t33 15l32 -2l19 5l41 -8l33 5h84l56 -6l54 2
q6 0 11.5 -10t5.5 -22q0 -8 -3 -14zM539 836l-12 -13l-14 -23l-11 -42l-12 -22q-19 -35 -39 -35q-31 0 -31 24q0 12 6 25l8 17l6 18l23 32l9 24q12 32 32 28q12 -4 27 -19z" />
    <glyph glyph-name="Ecircumflex" unicode="&#xca;" horiz-adv-x="635" 
d="M554 602q-23 -33 -45 -33q-5 0 -28 4.5t-30 4.5l-71 -1l-19 10h-39l-22 2q-64 6 -65 -31l-1 -36l-12 -26l-6 -62q-3 -36 6 -52q9 -12 25 -10l47 7l26 -2l32 13l48 -5q17 -2 30 -15t13 -30q0 -13 -13 -24t-22 -10l-49 6l-112 -6l-20 -5l-7 -13l-21 -18l-7 -143
q0 -4 -5 -23.5t-5 -33.5q0 -43 28 -41q45 5 64 5q42 0 86 3l43 17l22 -2l39 2q17 1 34 -12t17 -22t-14 -21t-20 -11l-18 2l-23 -13l-138 -5q-129 -30 -152 -30q-38 0 -36 45l5 116l12 31l7 96l8 18l3 92l20 132l5 126q1 23 14 39t33 15l32 -2l19 5l41 -8l33 5h84l56 -6l54 2
q6 0 11.5 -10t5.5 -22q0 -8 -3 -14zM595 731q2 -3 2 -8q0 -9 -9.5 -18t-17.5 -9q-24 0 -42 22l-13 16l-15 17l-14 13q-10 21 -30 21q-11 0 -22 -19l-16 -27l-14 -23q-13 -22 -42 -22q-18 0 -18 24q0 8 4 14l13 21l15 37l33 59q20 36 45 36q22 0 57 -49l47 -66l22 -18z" />
    <glyph glyph-name="Edieresis" unicode="&#xcb;" horiz-adv-x="635" 
d="M554 602q-23 -33 -45 -33q-5 0 -28 4.5t-30 4.5l-71 -1l-19 10h-39l-22 2q-64 6 -65 -31l-1 -36l-12 -26l-6 -62q-3 -36 6 -52q9 -12 25 -10l47 7l26 -2l32 13l48 -5q17 -2 30 -15t13 -30q0 -13 -13 -24t-22 -10l-49 6l-112 -6l-20 -5l-7 -13l-21 -18l-7 -143
q0 -4 -5 -23.5t-5 -33.5q0 -43 28 -41q45 5 64 5q42 0 86 3l43 17l22 -2l39 2q17 1 34 -12t17 -22t-14 -21t-20 -11l-18 2l-23 -13l-138 -5q-129 -30 -152 -30q-38 0 -36 45l5 116l12 31l7 96l8 18l3 92l20 132l5 126q1 23 14 39t33 15l32 -2l19 5l41 -8l33 5h84l56 -6l54 2
q6 0 11.5 -10t5.5 -22q0 -8 -3 -14zM627 784q0 -26 -10 -49q-12 -29 -31 -29q-46 0 -46 70q0 26 21 44q22 15 29 15q12 0 20 -18l14 -8q3 -22 3 -25zM430 761l-4 -18q-30 -43 -75 -43q-32 0 -32 34q0 28 17 51.5t44 23.5q40 0 47 -37z" />
    <glyph glyph-name="Igrave" unicode="&#xcc;" horiz-adv-x="431" 
d="M293 571q0 -22 -23 -68l-5 -88l-8 -32l-6 -60l-5 -37q-25 -132 -25 -165q0 -55 -6 -71q-8 -20 -11 -34l-3 -29q-2 -16 -39 -23l-8 17l-10 13l5 64l14 86v36l8 19l16 67l2 33l15 74l6 127q1 28 13 48q8 17 18 35t26 18q26 0 26 -30zM451 693q0 -31 -26 -31q-19 0 -53 24
l-15 7l-15 26l-13 15l-8 15l-15 22q-20 14 -20 31q0 34 43 34q5 0 32 -28l12 -11l12 -17l40 -40q26 -26 26 -47z" />
    <glyph glyph-name="Iacute" unicode="&#xcd;" horiz-adv-x="431" 
d="M293 571q0 -22 -23 -68l-5 -88l-8 -32l-6 -60l-5 -37q-25 -132 -25 -165q0 -55 -6 -71q-8 -20 -11 -34l-3 -29q-2 -16 -39 -23l-8 17l-10 13l5 64l14 86v36l8 19l16 67l2 33l15 74l6 127q1 28 13 48q8 17 18 35t26 18q26 0 26 -30zM455 792l-12 -13l-14 -23l-11 -42
l-12 -22q-19 -35 -39 -35q-31 0 -31 24q0 12 6 25l8 17l6 18l23 32l9 24q12 32 32 28q12 -4 27 -19z" />
    <glyph glyph-name="Icircumflex" unicode="&#xce;" horiz-adv-x="431" 
d="M293 571q0 -22 -23 -68l-5 -88l-8 -32l-6 -60l-5 -37q-25 -132 -25 -165q0 -55 -6 -71q-8 -20 -11 -34l-3 -29q-2 -16 -39 -23l-8 17l-10 13l5 64l14 86v36l8 19l16 67l2 33l15 74l6 127q1 28 13 48q8 17 18 35t26 18q26 0 26 -30zM515 679q2 -3 2 -8q0 -9 -9.5 -18
t-17.5 -9q-24 0 -42 22l-13 16l-15 17l-14 13q-10 21 -30 21q-11 0 -22 -19l-16 -27l-14 -23q-13 -22 -42 -22q-18 0 -18 24q0 8 4 14l13 21l15 37l33 59q20 36 45 36q22 0 57 -49l47 -66l22 -18z" />
    <glyph glyph-name="Idieresis" unicode="&#xcf;" horiz-adv-x="431" 
d="M293 571q0 -22 -23 -68l-5 -88l-8 -32l-6 -60l-5 -37q-25 -132 -25 -165q0 -55 -6 -71q-8 -20 -11 -34l-3 -29q-2 -16 -39 -23l-8 17l-10 13l5 64l14 86v36l8 19l16 67l2 33l15 74l6 127q1 28 13 48q8 17 18 35t26 18q26 0 26 -30zM531 748q0 -26 -10 -49
q-12 -29 -31 -29q-46 0 -46 70q0 26 21 44q22 15 29 15q12 0 20 -18l14 -8q3 -22 3 -25zM334 725l-4 -18q-30 -43 -75 -43q-32 0 -32 34q0 28 17 51.5t44 23.5q40 0 47 -37z" />
    <glyph glyph-name="Eth" unicode="&#xd0;" horiz-adv-x="665" 
d="M568 408q0 -86 -65 -173t-160 -136l-71 -37l-41 -14q-67 -36 -89 -36q-25 0 -38 17t-13 40q0 6 -3.5 22t-3.5 26q0 30 18 103q14 53 28 107l-7 15l-19 3l-33 -5l-24 16l3 31l24 27l38 -3q27 -2 31 14l18 75l5 79l9 30l2 37l8 10l15 22l31 3l16 8l51 -12q23 -5 43 -11
q49 -15 78 -32q62 -36 105.5 -101.5t43.5 -124.5zM506 382q0 97 -72 163t-177 66q-27 0 -36 -65l-19 -133l27 -1l13 -8l30 -3l37 -5q20 -3 20 -34q0 -19 -92 -21l-28 -3q-5 0 -8 -3q-10 -6 -13 -23l-21 -105q-3 -15 -3 -52q0 -63 13 -63q19 0 90 33q60 28 123 77
q59 45 68 67l27 65l15 19q6 16 6 29z" />
    <glyph glyph-name="Ntilde" unicode="&#xd1;" horiz-adv-x="784" 
d="M716 515l-39 -114v-25l-25 -65l-13 -66l-42 -82l-7 -42l-13 -18l-23 -47q-24 -49 -39 -49q-13 0 -22.5 13t-17.5 26l-93 123l-41 39l-32 54l-28 33l-6 22l-12 20l-18 15l-19 24l-13 -20l-20 -86l-5 -71l-22 -105l-25 -60q-14 -6 -22 -6t-16 20v28l13 34l-1 21
q14 76 30 203l2 63q0 16 9 34t9 24q2 25 1 71q18 32 34 32q10 0 26 -10l18 -67l93 -150q18 -29 46 -60q48 -54 52 -59q17 -26 33 -51q22 -31 44 -31q20 0 25 46q1 11 8 22q12 20 14 23q23 47 58 173l8 45l10 24q1 9 5 35q4 18 16 54q3 43 41 43q25 0 25 -45q0 -19 -6 -35z
M691 671l-22 -24l-13 -9l-14 -11q-25 -20 -72 -20q-33 0 -59 23l-36 32q-11 10 -23 10q-10 0 -15 -5t-10 -12l-8 -10l-15 -13q-14 -12 -30 -12q-21 0 -21 24q0 22 16 36l11 24l12 9q38 43 66 43q23 0 38 -20l24 -33q23 -31 52 -31q16 0 70 51q14 2 20 2q14 0 25 -11t11 -25
q0 -10 -7 -18z" />
    <glyph glyph-name="Ograve" unicode="&#xd2;" horiz-adv-x="706" 
d="M611 453q0 -126 -52 -231l-7 -24l-53 -66q-74 -76 -180 -76q-35 0 -72.5 12t-48.5 27l-28 37l-13 8q-17 10 -31.5 66t-14.5 114q0 135 84 225l11 18l21 17l22 24l21 5l13 9q85 36 157 36q50 0 110.5 -67t60.5 -134zM543 428q0 98 -54 118l-26 2l-41 20q-44 4 -57 4
q-74 0 -144 -100q-46 -66 -46 -127q0 -116 33.5 -164.5t112.5 -48.5q66 0 113 40l18 29l29 25l13 23l13 14q36 107 36 165zM611 729q0 -31 -26 -31q-19 0 -53 24l-15 7l-15 26l-13 15l-8 15l-15 22q-20 14 -20 31q0 34 43 34q5 0 32 -28l12 -11l12 -17l40 -40q26 -26 26 -47
z" />
    <glyph glyph-name="Oacute" unicode="&#xd3;" horiz-adv-x="706" 
d="M611 453q0 -126 -52 -231l-7 -24l-53 -66q-74 -76 -180 -76q-35 0 -72.5 12t-48.5 27l-28 37l-13 8q-17 10 -31.5 66t-14.5 114q0 135 84 225l11 18l21 17l22 24l21 5l13 9q85 36 157 36q50 0 110.5 -67t60.5 -134zM543 428q0 98 -54 118l-26 2l-41 20q-44 4 -57 4
q-74 0 -144 -100q-46 -66 -46 -127q0 -116 33.5 -164.5t112.5 -48.5q66 0 113 40l18 29l29 25l13 23l13 14q36 107 36 165zM603 836l-12 -13l-14 -23l-11 -42l-12 -22q-19 -35 -39 -35q-31 0 -31 24q0 12 6 25l8 17l6 18l23 32l9 24q12 32 32 28q12 -4 27 -19z" />
    <glyph glyph-name="Ocircumflex" unicode="&#xd4;" horiz-adv-x="706" 
d="M611 453q0 -126 -52 -231l-7 -24l-53 -66q-74 -76 -180 -76q-35 0 -72.5 12t-48.5 27l-28 37l-13 8q-17 10 -31.5 66t-14.5 114q0 135 84 225l11 18l21 17l22 24l21 5l13 9q85 36 157 36q50 0 110.5 -67t60.5 -134zM543 428q0 98 -54 118l-26 2l-41 20q-44 4 -57 4
q-74 0 -144 -100q-46 -66 -46 -127q0 -116 33.5 -164.5t112.5 -48.5q66 0 113 40l18 29l29 25l13 23l13 14q36 107 36 165zM687 731q2 -3 2 -8q0 -9 -9.5 -18t-17.5 -9q-24 0 -42 22l-13 16l-15 17l-14 13q-10 21 -30 21q-11 0 -22 -19l-16 -27l-14 -23q-13 -22 -42 -22
q-18 0 -18 24q0 8 4 14l13 21l15 37l33 59q20 36 45 36q22 0 57 -49l47 -66l22 -18z" />
    <glyph glyph-name="Otilde" unicode="&#xd5;" horiz-adv-x="706" 
d="M611 453q0 -126 -52 -231l-7 -24l-53 -66q-74 -76 -180 -76q-35 0 -72.5 12t-48.5 27l-28 37l-13 8q-17 10 -31.5 66t-14.5 114q0 135 84 225l11 18l21 17l22 24l21 5l13 9q85 36 157 36q50 0 110.5 -67t60.5 -134zM543 428q0 98 -54 118l-26 2l-41 20q-44 4 -57 4
q-74 0 -144 -100q-46 -66 -46 -127q0 -116 33.5 -164.5t112.5 -48.5q66 0 113 40l18 29l29 25l13 23l13 14q36 107 36 165zM707 771l-22 -24l-13 -9l-14 -11q-25 -20 -72 -20q-33 0 -59 23l-36 32q-11 10 -23 10q-10 0 -15 -5t-10 -12l-8 -10l-15 -13q-14 -12 -30 -12
q-21 0 -21 24q0 22 16 36l11 24l12 9q38 43 66 43q23 0 38 -20l24 -33q23 -31 52 -31q16 0 70 51q14 2 20 2q14 0 25 -11t11 -25q0 -10 -7 -18z" />
    <glyph glyph-name="Odieresis" unicode="&#xd6;" horiz-adv-x="706" 
d="M611 453q0 -126 -52 -231l-7 -24l-53 -66q-74 -76 -180 -76q-35 0 -72.5 12t-48.5 27l-28 37l-13 8q-17 10 -31.5 66t-14.5 114q0 135 84 225l11 18l21 17l22 24l21 5l13 9q85 36 157 36q50 0 110.5 -67t60.5 -134zM543 428q0 98 -54 118l-26 2l-41 20q-44 4 -57 4
q-74 0 -144 -100q-46 -66 -46 -127q0 -116 33.5 -164.5t112.5 -48.5q66 0 113 40l18 29l29 25l13 23l13 14q36 107 36 165zM659 780q0 -26 -10 -49q-12 -29 -31 -29q-46 0 -46 70q0 26 21 44q22 15 29 15q12 0 20 -18l14 -8q3 -22 3 -25zM462 757l-4 -18q-30 -43 -75 -43
q-32 0 -32 34q0 28 17 51.5t44 23.5q40 0 47 -37z" />
    <glyph glyph-name="multiply" unicode="&#xd7;" 
d="M632 -78q0 -39 -6 -57q-16 -49 -103 -99q-33 -18 -112 -46q-20 -4 -47 -4q-53 0 -118 13l-18 13l-30 3l-85 55q-41 27 -41 71q0 36 15 51l37 38l27 -4l9 -24l-22 -35q-7 -11 -7 -23q0 -22 23 -44q20 -19 49 -28l79 -25l128 -6q29 11 89 41q29 18 74 60l6 56l-13 40
q-8 23 -38 38l10 -54l-22 -44l-72 -64l-129 -4q-28 13 -48 24q-51 26 -60 37q-14 17 -27 62l-7 41l10 30q2 6 2 10q0 12 -23 22l-36 15q-36 15 -36 55q0 43 37 61l46 23l-7 21l-6 21q-6 19 11 48q8 14 21 21l34 16l47 23l-13 27l5 27l32 12l39 11l10 21l-29 15h-39
q-20 0 -34.5 11.5t-14.5 30.5q0 26 23 46l27 24l27 29l-11 17l-32 -3l-29 -8q-16 -4 -27 28q0 7 2 12q5 13 19 15l45 7l64 -5q8 -7 14 -13q14 -16 17 -30q2 -7 2 -14q0 -25 -25 -46l-56 -48q41 -8 91 -24q20 -17 29 -63l-30 -39l-52 -20l15 -16q28 3 59 3q72 0 106 -21
q20 -13 38 -52.5t18 -70.5q0 -36 -16 -99l-23 -46l-27 -38l33 2l35 -26l43 -38zM353 274l-19 16l-32 -19q16 -13 23 -13q9 -2 28 16zM423 242l-10 23l-23 7l-15 -35l-50 -12q-7 -2 -14 -2q-36 0 -47 28q-12 30 7 40l45 23l-17 24l-67 -34l-23 -29q-1 -24 3.5 -36t20.5 -31
l61 -18l81 11zM515 236l-30 71l-55 26l-65 3l10 -17l37 -7l31 -12l34 -38l2 -35l-23 -24l-41 -28q-45 -24 -85 -24q-17 0 -53 3l-30 4l10 -37l32 -51l26 -59q8 -19 36 -19q32 0 54 21l34 33l61 105zM491 -19l-22 14l-48 -48l-90 -7l-54 29l-38 83l-9 -32l10 -50
q4 -12 15 -38q23 -39 102 -39q39 0 76 14q23 9 48 48zM226 86l-33 66l-18 21l-21 -11q-6 -3 -6 -13q0 -13 7 -24q17 -24 71 -39z" />
    <glyph glyph-name="Oslash" unicode="&#xd8;" horiz-adv-x="689" 
d="M624 358q0 -82 -49 -162l-19 -40l-51 -42q-9 -8 -36 -24q-55 -29 -92 -29q-59 0 -156 47q-52 -101 -108 -101q-12 0 -22 21l23 40l20 14l40 54l-41 31l-26 56q-31 36 -31 138q0 27 12 73l10 18l14 36l50 48q14 15 26 27q31 29 53 37q55 20 113 20q51 0 91 -14l16 16
l15 30l29 20q21 15 35 -2q5 -14 5 -24q0 -9 -4 -14q-38 -43 -35 -54q2 -6 11 -11q14 -7 15 -8q92 -72 92 -201zM526 240q36 70 36 131q0 113 -107 147q-9 3 -15 -21l-21 -36l-15 -30l-22 -30l-16 -36l-34 -48l-64 -118q-13 -24 -10 -36q3 -8 13 -9q17 -2 21 -4
q58 -23 100 -23q48 0 82 33q23 23 52 80zM400 534q2 13 -18 22q-16 6 -32 6q-82 0 -141.5 -73t-59.5 -167q0 -19 13 -42l2 -33l12 -30l23 -15l12 2l83 146l48 108l31 34q12 13 27 42z" />
    <glyph glyph-name="Ugrave" unicode="&#xd9;" horiz-adv-x="679" 
d="M627 604l-12 -60l-11 -108q-9 -85 -72 -209l-14 -38l-63 -59q-102 -70 -148 -70q-91 0 -149 50l-7 27q-50 60 -50 251q0 49 9 112l13 91l2 48q0 8 12.5 23.5t22.5 15.5q20 0 22 -12l8 -39l-6 -29l9 -26l-14 -62l-12 -32l5 -203l13 -41l5 -28q38 -63 105 -63q70 0 146 65
l37 72l16 19q47 122 47 185q0 88 -1 53q1 19 8 33l25 46q7 13 44 13q15 0 10 -25zM567 717q0 -31 -26 -31q-19 0 -53 24l-15 7l-15 26l-13 15l-8 15l-15 22q-20 14 -20 31q0 34 43 34q5 0 32 -28l12 -11l12 -17l40 -40q26 -26 26 -47z" />
    <glyph glyph-name="Uacute" unicode="&#xda;" horiz-adv-x="679" 
d="M627 604l-12 -60l-11 -108q-9 -85 -72 -209l-14 -38l-63 -59q-102 -70 -148 -70q-91 0 -149 50l-7 27q-50 60 -50 251q0 49 9 112l13 91l2 48q0 8 12.5 23.5t22.5 15.5q20 0 22 -12l8 -39l-6 -29l9 -26l-14 -62l-12 -32l5 -203l13 -41l5 -28q38 -63 105 -63q70 0 146 65
l37 72l16 19q47 122 47 185q0 88 -1 53q1 19 8 33l25 46q7 13 44 13q15 0 10 -25zM550 848l-12 -13l-14 -23l-11 -42l-12 -22q-19 -35 -39 -35q-31 0 -31 24q0 12 6 25l8 17l6 18l23 32l9 24q12 32 32 28q12 -4 27 -19z" />
    <glyph glyph-name="Ucircumflex" unicode="&#xdb;" horiz-adv-x="679" 
d="M627 604l-12 -60l-11 -108q-9 -85 -72 -209l-14 -38l-63 -59q-102 -70 -148 -70q-91 0 -149 50l-7 27q-50 60 -50 251q0 49 9 112l13 91l2 48q0 8 12.5 23.5t22.5 15.5q20 0 22 -12l8 -39l-6 -29l9 -26l-14 -62l-12 -32l5 -203l13 -41l5 -28q38 -63 105 -63q70 0 146 65
l37 72l16 19q47 122 47 185q0 88 -1 53q1 19 8 33l25 46q7 13 44 13q15 0 10 -25zM631 727q2 -3 2 -8q0 -9 -9.5 -18t-17.5 -9q-24 0 -42 22l-13 16l-15 17l-14 13q-10 21 -30 21q-11 0 -22 -19l-16 -27l-14 -23q-13 -22 -42 -22q-18 0 -18 24q0 8 4 14l13 21l15 37l33 59
q20 36 45 36q22 0 57 -49l47 -66l22 -18z" />
    <glyph glyph-name="Udieresis" unicode="&#xdc;" horiz-adv-x="679" 
d="M627 604l-12 -60l-11 -108q-9 -85 -72 -209l-14 -38l-63 -59q-102 -70 -148 -70q-91 0 -149 50l-7 27q-50 60 -50 251q0 49 9 112l13 91l2 48q0 8 12.5 23.5t22.5 15.5q20 0 22 -12l8 -39l-6 -29l9 -26l-14 -62l-12 -32l5 -203l13 -41l5 -28q38 -63 105 -63q70 0 146 65
l37 72l16 19q47 122 47 185q0 88 -1 53q1 19 8 33l25 46q7 13 44 13q15 0 10 -25zM643 776q0 -26 -10 -49q-12 -29 -31 -29q-46 0 -46 70q0 26 21 44q22 15 29 15q12 0 20 -18l14 -8q3 -22 3 -25zM446 753l-4 -18q-30 -43 -75 -43q-32 0 -32 34q0 28 17 51.5t44 23.5
q40 0 47 -37z" />
    <glyph glyph-name="germandbls" unicode="&#xdf;" horiz-adv-x="623" 
d="M540 67q0 -114 -83 -204l-25 -17l-29 -37q-21 -27 -95 -52q-66 -23 -104 -23q-42 0 -48 26q-3 7 2.5 21t16.5 15l30 3l27 12l68 10l21 18q25 13 66 43q51 59 70 88q31 47 31 81q0 14 -19 60l-19 15l-22 30q-31 22 -49 21l-87 -5q-19 -1 -21 30l-10 28l21 26l42 12l63 40
l10 18l49 60q4 5 4 15q0 33 -24 73q-27 46 -59 50q-35 4 -36 4q-15 -3 -30 -17q-114 -3 -114 -127v-68l-9 -32l-1 -94l-11 -30l-4 -133l-17 -11l-12 -10l-16 8l-5 17l-6 23l12 172l9 33l6 131q3 68 33 122l26 38l30 14q45 36 133 36q20 0 83 -14q16 -19 45 -68
q12 -27 24 -79l6 -28l-9 -27l-6 -21l-21 -39l-13 -30q-52 -31 -52 -47q0 -11 100 -77q28 -57 28 -103z" />
    <glyph glyph-name="agrave" unicode="&#xe0;" horiz-adv-x="518" 
d="M432 110q0 -19 -2 -34q-3 -34 -10 -37q-10 -4 -27 1l-40 30l-80 -17q-42 -9 -84 -9q-24 0 -43 20q-2 2 -33 42q-36 47 -36 71q0 85 66 171l24 36l18 8q27 18 50 18q9 0 31 -7t30 -7t12 4l19 20q10 4 17 4q13 0 28 -32t19 -65l5 -43l21 -94v-44zM345 212q0 13 -7 33
l-21 34l-9 19q-39 25 -73 25q-39 0 -73 -35t-34 -79q0 -17 15 -50l27 -21l17 -15q26 -13 36 -13q55 0 88.5 27.5t33.5 74.5zM407 553q0 -31 -26 -31q-19 0 -53 24l-15 7l-15 26l-13 15l-8 15l-15 22q-20 14 -20 31q0 34 43 34q5 0 32 -28l12 -11l12 -17l40 -40
q26 -26 26 -47z" />
    <glyph glyph-name="aacute" unicode="&#xe1;" horiz-adv-x="518" 
d="M432 110q0 -19 -2 -34q-3 -34 -10 -37q-10 -4 -27 1l-40 30l-80 -17q-42 -9 -84 -9q-24 0 -43 20q-2 2 -33 42q-36 47 -36 71q0 85 66 171l24 36l18 8q27 18 50 18q9 0 31 -7t30 -7t12 4l19 20q10 4 17 4q13 0 28 -32t19 -65l5 -43l21 -94v-44zM345 212q0 13 -7 33
l-21 34l-9 19q-39 25 -73 25q-39 0 -73 -35t-34 -79q0 -17 15 -50l27 -21l17 -15q26 -13 36 -13q55 0 88.5 27.5t33.5 74.5zM407 656l-12 -13l-14 -23l-11 -42l-12 -22q-19 -35 -39 -35q-31 0 -31 24q0 12 6 25l8 17l6 18l23 32l9 24q12 32 32 28q12 -4 27 -19z" />
    <glyph glyph-name="acircumflex" unicode="&#xe2;" horiz-adv-x="518" 
d="M432 110q0 -19 -2 -34q-3 -34 -10 -37q-10 -4 -27 1l-40 30l-80 -17q-42 -9 -84 -9q-24 0 -43 20q-2 2 -33 42q-36 47 -36 71q0 85 66 171l24 36l18 8q27 18 50 18q9 0 31 -7t30 -7t12 4l19 20q10 4 17 4q13 0 28 -32t19 -65l5 -43l21 -94v-44zM345 212q0 13 -7 33
l-21 34l-9 19q-39 25 -73 25q-39 0 -73 -35t-34 -79q0 -17 15 -50l27 -21l17 -15q26 -13 36 -13q55 0 88.5 27.5t33.5 74.5zM483 535q2 -3 2 -8q0 -9 -9.5 -18t-17.5 -9q-24 0 -42 22l-13 16l-15 17l-14 13q-10 21 -30 21q-11 0 -22 -19l-16 -27l-14 -23q-13 -22 -42 -22
q-18 0 -18 24q0 8 4 14l13 21l15 37l33 59q20 36 45 36q22 0 57 -49l47 -66l22 -18z" />
    <glyph glyph-name="atilde" unicode="&#xe3;" horiz-adv-x="518" 
d="M432 110q0 -19 -2 -34q-3 -34 -10 -37q-10 -4 -27 1l-40 30l-80 -17q-42 -9 -84 -9q-24 0 -43 20q-2 2 -33 42q-36 47 -36 71q0 85 66 171l24 36l18 8q27 18 50 18q9 0 31 -7t30 -7t12 4l19 20q10 4 17 4q13 0 28 -32t19 -65l5 -43l21 -94v-44zM345 212q0 13 -7 33
l-21 34l-9 19q-39 25 -73 25q-39 0 -73 -35t-34 -79q0 -17 15 -50l27 -21l17 -15q26 -13 36 -13q55 0 88.5 27.5t33.5 74.5zM535 611l-22 -24l-13 -9l-14 -11q-25 -20 -72 -20q-33 0 -59 23l-36 32q-11 10 -23 10q-10 0 -15 -5t-10 -12l-8 -10l-15 -13q-14 -12 -30 -12
q-21 0 -21 24q0 22 16 36l11 24l12 9q38 43 66 43q23 0 38 -20l24 -33q23 -31 52 -31q16 0 70 51q14 2 20 2q14 0 25 -11t11 -25q0 -10 -7 -18z" />
    <glyph glyph-name="adieresis" unicode="&#xe4;" horiz-adv-x="518" 
d="M432 110q0 -19 -2 -34q-3 -34 -10 -37q-10 -4 -27 1l-40 30l-80 -17q-42 -9 -84 -9q-24 0 -43 20q-2 2 -33 42q-36 47 -36 71q0 85 66 171l24 36l18 8q27 18 50 18q9 0 31 -7t30 -7t12 4l19 20q10 4 17 4q13 0 28 -32t19 -65l5 -43l21 -94v-44zM345 212q0 13 -7 33
l-21 34l-9 19q-39 25 -73 25q-39 0 -73 -35t-34 -79q0 -17 15 -50l27 -21l17 -15q26 -13 36 -13q55 0 88.5 27.5t33.5 74.5zM491 644q0 -26 -10 -49q-12 -29 -31 -29q-46 0 -46 70q0 26 21 44q22 15 29 15q12 0 20 -18l14 -8q3 -22 3 -25zM294 621l-4 -18q-30 -43 -75 -43
q-32 0 -32 34q0 28 17 51.5t44 23.5q40 0 47 -37z" />
    <glyph glyph-name="aring" unicode="&#xe5;" horiz-adv-x="518" 
d="M432 110q0 -19 -2 -34q-3 -34 -10 -37q-10 -4 -27 1l-40 30l-80 -17q-42 -9 -84 -9q-24 0 -43 20q-2 2 -33 42q-36 47 -36 71q0 85 66 171l24 36l18 8q27 18 50 18q9 0 31 -7t30 -7t12 4l19 20q10 4 17 4q13 0 28 -32t19 -65l5 -43l21 -94v-44zM345 212q0 13 -7 33
l-21 34l-9 19q-39 25 -73 25q-39 0 -73 -35t-34 -79q0 -17 15 -50l27 -21l17 -15q26 -13 36 -13q55 0 88.5 27.5t33.5 74.5z" />
    <glyph glyph-name="ae" unicode="&#xe6;" 
d="M635 385q0 -32 -21 -65t-47 -43l-55 -21l-30 -16l-26 -4l-14 -7q-46 -23 -46 -51q0 -23 11 -46q13 -27 29 -24l65 11l23 -5l25 2l11 -15l1 -22l5 -18q-6 -5 -21 -17q-15 -15 -26 -14l-101 7q-50 27 -64 27q-30 0 -69 -23t-83 -23q-57 0 -90.5 35t-33.5 95q0 37 24 90
l10 31l31 29q20 22 71 62q23 14 23 32q0 14 -13 16l-42 5l-10 18l-17 20q-6 38 21 39l22 1l20 6l19 -1l20 -17l33 -16q15 -7 43 -19q16 0 72 36t89 36q49 0 95 -42.5t46 -88.5zM561 385q0 54 -55 54h-22q-29 0 -63 -18q-46 -24 -46 -63q0 -19 9 -39.5t17 -20.5q22 0 64 14
l35 20l31 8q30 23 30 45zM334 197q0 10 -7 37l-17 28l-6 25q-16 20 -22 20q-37 0 -91.5 -58t-54.5 -98q0 -26 18.5 -45.5t41.5 -19.5q34 0 72.5 25.5t52 42.5t13.5 43z" />
    <glyph glyph-name="ccedilla" unicode="&#xe7;" horiz-adv-x="485" 
d="M414 113q0 -32 -28.5 -53.5t-70.5 -23.5q-50 -2 -60 -4q-18 -6 -18 -26t28 -48l18 -5l24 -23q28 -25 28 -39q0 -53 -42.5 -95.5t-94.5 -42.5q-24 0 -63 16q-42 17 -42 33q0 11 33 41q45 -16 69 -16q25 0 42.5 16.5t17.5 36.5q0 15 -74 42q-27 10 -27 32q0 4 2 9l12 25
l1 19l8 17q5 10 5 20q0 12 -6 21q-99 112 -99 156q0 28 18 69l25 48l30 20q78 73 163 73q24 0 54 -24t30 -43q0 -9 -7.5 -19t-17.5 -8l-85 17q-19 4 -59 -20l-15 -15l-27 -17q-31 -46 -31 -76q0 -70 146 -108q12 2 28 6q11 6 25 12l18 1l15 7q9 4 18 -7t9 -24z" />
    <glyph glyph-name="egrave" unicode="&#xe8;" horiz-adv-x="541" 
d="M448 281q0 -28 -17.5 -48.5t-43.5 -20.5q-29 0 -86.5 10t-76.5 10q-63 0 -63 -42q0 -13 8 -25q28 -42 105 -84l33 -10l26 -2l13 -13l17 -14l2 -33l-10 -10l-8 -13q-13 -6 -19 -6q-42 0 -108 41l-35 21l-8 17l-56 69q-14 28 -14 45q0 18 8 48l2 60q0 11 12 61q23 27 77 75
q21 15 49 23l22 10l51 5q57 0 88.5 -46.5t31.5 -127.5zM392 333q0 37 -53 57q-13 5 -40 3l-24 -17l-30 -2q-42 -29 -42 -48q0 -11 10 -24t21 -13q5 0 14.5 3t14.5 3q4 0 8 -1l28 -9l27 3q41 5 53.5 13.5t12.5 31.5zM434 553q0 -31 -26 -31q-19 0 -53 24l-15 7l-15 26l-13 15
l-8 15l-15 22q-20 14 -20 31q0 34 43 34q5 0 32 -28l12 -11l12 -17l40 -40q26 -26 26 -47z" />
    <glyph glyph-name="eacute" unicode="&#xe9;" horiz-adv-x="541" 
d="M448 281q0 -28 -17.5 -48.5t-43.5 -20.5q-29 0 -86.5 10t-76.5 10q-63 0 -63 -42q0 -13 8 -25q28 -42 105 -84l33 -10l26 -2l13 -13l17 -14l2 -33l-10 -10l-8 -13q-13 -6 -19 -6q-42 0 -108 41l-35 21l-8 17l-56 69q-14 28 -14 45q0 18 8 48l2 60q0 11 12 61q23 27 77 75
q21 15 49 23l22 10l51 5q57 0 88.5 -46.5t31.5 -127.5zM392 333q0 37 -53 57q-13 5 -40 3l-24 -17l-30 -2q-42 -29 -42 -48q0 -11 10 -24t21 -13q5 0 14.5 3t14.5 3q4 0 8 -1l28 -9l27 3q41 5 53.5 13.5t12.5 31.5zM436 656l-12 -13l-14 -23l-11 -42l-12 -22
q-19 -35 -39 -35q-31 0 -31 24q0 12 6 25l8 17l6 18l23 32l9 24q12 32 32 28q12 -4 27 -19z" />
    <glyph glyph-name="ecircumflex" unicode="&#xea;" horiz-adv-x="541" 
d="M448 281q0 -28 -17.5 -48.5t-43.5 -20.5q-29 0 -86.5 10t-76.5 10q-63 0 -63 -42q0 -13 8 -25q28 -42 105 -84l33 -10l26 -2l13 -13l17 -14l2 -33l-10 -10l-8 -13q-13 -6 -19 -6q-42 0 -108 41l-35 21l-8 17l-56 69q-14 28 -14 45q0 18 8 48l2 60q0 11 12 61q23 27 77 75
q21 15 49 23l22 10l51 5q57 0 88.5 -46.5t31.5 -127.5zM392 333q0 37 -53 57q-13 5 -40 3l-24 -17l-30 -2q-42 -29 -42 -48q0 -11 10 -24t21 -13q5 0 14.5 3t14.5 3q4 0 8 -1l28 -9l27 3q41 5 53.5 13.5t12.5 31.5zM506 535q2 -3 2 -8q0 -9 -9.5 -18t-17.5 -9q-24 0 -42 22
l-13 16l-15 17l-14 13q-10 21 -30 21q-11 0 -22 -19l-16 -27l-14 -23q-13 -22 -42 -22q-18 0 -18 24q0 8 4 14l13 21l15 37l33 59q20 36 45 36q22 0 57 -49l47 -66l22 -18z" />
    <glyph glyph-name="edieresis" unicode="&#xeb;" horiz-adv-x="541" 
d="M448 281q0 -28 -17.5 -48.5t-43.5 -20.5q-29 0 -86.5 10t-76.5 10q-63 0 -63 -42q0 -13 8 -25q28 -42 105 -84l33 -10l26 -2l13 -13l17 -14l2 -33l-10 -10l-8 -13q-13 -6 -19 -6q-42 0 -108 41l-35 21l-8 17l-56 69q-14 28 -14 45q0 18 8 48l2 60q0 11 12 61q23 27 77 75
q21 15 49 23l22 10l51 5q57 0 88.5 -46.5t31.5 -127.5zM392 333q0 37 -53 57q-13 5 -40 3l-24 -17l-30 -2q-42 -29 -42 -48q0 -11 10 -24t21 -13q5 0 14.5 3t14.5 3q4 0 8 -1l28 -9l27 3q41 5 53.5 13.5t12.5 31.5zM539 644q0 -26 -10 -49q-12 -29 -31 -29q-46 0 -46 70
q0 26 21 44q22 15 29 15q12 0 20 -18l14 -8q3 -22 3 -25zM342 621l-4 -18q-30 -43 -75 -43q-32 0 -32 34q0 28 17 51.5t44 23.5q40 0 47 -37z" />
    <glyph glyph-name="igrave" unicode="&#xec;" horiz-adv-x="347" 
d="M267 553q0 -31 -26 -31q-19 0 -53 24l-15 7l-15 26l-13 15l-8 15l-15 22q-20 14 -20 31q0 34 43 34q5 0 32 -28l12 -11l12 -17l40 -40q26 -26 26 -47z" />
    <glyph glyph-name="iacute" unicode="&#xed;" horiz-adv-x="347" 
d="M275 656l-12 -13l-14 -23l-11 -42l-12 -22q-19 -35 -39 -35q-31 0 -31 24q0 12 6 25l8 17l6 18l23 32l9 24q12 32 32 28q12 -4 27 -19z" />
    <glyph glyph-name="icircumflex" unicode="&#xee;" horiz-adv-x="347" 
d="M326 535q2 -3 2 -8q0 -9 -9.5 -18t-17.5 -9q-24 0 -42 22l-13 16l-15 17l-14 13q-10 21 -30 21q-11 0 -22 -19l-16 -27l-14 -23q-13 -22 -42 -22q-18 0 -18 24q0 8 4 14l13 21l15 37l33 59q20 36 45 36q22 0 57 -49l47 -66l22 -18z" />
    <glyph glyph-name="idieresis" unicode="&#xef;" horiz-adv-x="347" 
d="M362 644q0 -26 -10 -49q-12 -29 -31 -29q-46 0 -46 70q0 26 21 44q22 15 29 15q12 0 20 -18l14 -8q3 -22 3 -25zM165 621l-4 -18q-30 -43 -75 -43q-32 0 -32 34q0 28 17 51.5t44 23.5q40 0 47 -37z" />
    <glyph glyph-name="eth" unicode="&#xf0;" horiz-adv-x="533" 
d="M413 238q0 -78 -50.5 -137.5t-115.5 -59.5q-121 0 -158 89l-13 31q4 15 4 21q0 48 17 70l24 31l24 53l28 20l85 18q12 3 12 23q0 16 -20 40l-40 33l-60 34l-24 5l-30 18l-44 18l-24 12l-5 33q-2 10 10 14t33 2q71 -7 91 -20l43 -29l22 -9l92 -70q28 -45 72 -120
q27 -50 27 -120zM336 230q0 75 -53 75t-91 -40t-38 -90q0 -41 32 -47l22 4l52 -8q76 26 76 106z" />
    <glyph glyph-name="ntilde" unicode="&#xf1;" horiz-adv-x="596" 
d="M489 242l-3 -62l-3 -47q-1 -15 3 -53l-18 -16l-13 -15q-39 3 -38 23l2 31l-5 31l6 54v84q0 19 -15 46q-22 37 -58 37q-35 0 -83 -35l-16 -20l-36 -28q-7 -14 -24 -46q-12 -20 -12 -72q0 -26 6 -46.5t6 -40.5q0 -21 -8 -37q-10 -21 -28 -21q-14 0 -31 25l4 46l-4 35l7 55
l-5 173l8 37l-2 32l9 11l8 16q43 -6 42 -16l-3 -39q-5 -21 22 -21q15 0 44 29l24 11q36 27 76 27q51 0 99 -66q32 -44 32 -63v-23zM579 611l-22 -24l-13 -9l-14 -11q-25 -20 -72 -20q-33 0 -59 23l-36 32q-11 10 -23 10q-10 0 -15 -5t-10 -12l-8 -10l-15 -13
q-14 -12 -30 -12q-21 0 -21 24q0 22 16 36l11 24l12 9q38 43 66 43q23 0 38 -20l24 -33q23 -31 52 -31q16 0 70 51q14 2 20 2q14 0 25 -11t11 -25q0 -10 -7 -18z" />
    <glyph glyph-name="ograve" unicode="&#xf2;" horiz-adv-x="538" 
d="M462 230q0 -57 -66 -123q-63 -62 -103 -62q-75 0 -144 42l-26 12l-24 44q-25 54 -25 94q0 64 55 126q60 67 134 67q11 0 37 -6l20 -13l34 -16l11 -17q97 -89 97 -148zM404 230l-8 37l-18 19l-16 8l-34 42l-42 11l-26 10q-131 -30 -131 -130q0 -45 53 -77q46 -28 96 -28
q37 0 79 26q48 31 48 70q0 6 -1 12zM436 553q0 -31 -26 -31q-19 0 -53 24l-15 7l-15 26l-13 15l-8 15l-15 22q-20 14 -20 31q0 34 43 34q5 0 32 -28l12 -11l12 -17l40 -40q26 -26 26 -47z" />
    <glyph glyph-name="oacute" unicode="&#xf3;" horiz-adv-x="538" 
d="M462 230q0 -57 -66 -123q-63 -62 -103 -62q-75 0 -144 42l-26 12l-24 44q-25 54 -25 94q0 64 55 126q60 67 134 67q11 0 37 -6l20 -13l34 -16l11 -17q97 -89 97 -148zM404 230l-8 37l-18 19l-16 8l-34 42l-42 11l-26 10q-131 -30 -131 -130q0 -45 53 -77q46 -28 96 -28
q37 0 79 26q48 31 48 70q0 6 -1 12zM419 656l-12 -13l-14 -23l-11 -42l-12 -22q-19 -35 -39 -35q-31 0 -31 24q0 12 6 25l8 17l6 18l23 32l9 24q12 32 32 28q12 -4 27 -19z" />
    <glyph glyph-name="ocircumflex" unicode="&#xf4;" horiz-adv-x="538" 
d="M462 230q0 -57 -66 -123q-63 -62 -103 -62q-75 0 -144 42l-26 12l-24 44q-25 54 -25 94q0 64 55 126q60 67 134 67q11 0 37 -6l20 -13l34 -16l11 -17q97 -89 97 -148zM404 230l-8 37l-18 19l-16 8l-34 42l-42 11l-26 10q-131 -30 -131 -130q0 -45 53 -77q46 -28 96 -28
q37 0 79 26q48 31 48 70q0 6 -1 12zM483 535q2 -3 2 -8q0 -9 -9.5 -18t-17.5 -9q-24 0 -42 22l-13 16l-15 17l-14 13q-10 21 -30 21q-11 0 -22 -19l-16 -27l-14 -23q-13 -22 -42 -22q-18 0 -18 24q0 8 4 14l13 21l15 37l33 59q20 36 45 36q22 0 57 -49l47 -66l22 -18z" />
    <glyph glyph-name="otilde" unicode="&#xf5;" horiz-adv-x="538" 
d="M462 230q0 -57 -66 -123q-63 -62 -103 -62q-75 0 -144 42l-26 12l-24 44q-25 54 -25 94q0 64 55 126q60 67 134 67q11 0 37 -6l20 -13l34 -16l11 -17q97 -89 97 -148zM404 230l-8 37l-18 19l-16 8l-34 42l-42 11l-26 10q-131 -30 -131 -130q0 -45 53 -77q46 -28 96 -28
q37 0 79 26q48 31 48 70q0 6 -1 12zM535 611l-22 -24l-13 -9l-14 -11q-25 -20 -72 -20q-33 0 -59 23l-36 32q-11 10 -23 10q-10 0 -15 -5t-10 -12l-8 -10l-15 -13q-14 -12 -30 -12q-21 0 -21 24q0 22 16 36l11 24l12 9q38 43 66 43q23 0 38 -20l24 -33q23 -31 52 -31
q16 0 70 51q14 2 20 2q14 0 25 -11t11 -25q0 -10 -7 -18z" />
    <glyph glyph-name="odieresis" unicode="&#xf6;" horiz-adv-x="538" 
d="M462 230q0 -57 -66 -123q-63 -62 -103 -62q-75 0 -144 42l-26 12l-24 44q-25 54 -25 94q0 64 55 126q60 67 134 67q11 0 37 -6l20 -13l34 -16l11 -17q97 -89 97 -148zM404 230l-8 37l-18 19l-16 8l-34 42l-42 11l-26 10q-131 -30 -131 -130q0 -45 53 -77q46 -28 96 -28
q37 0 79 26q48 31 48 70q0 6 -1 12zM491 644q0 -26 -10 -49q-12 -29 -31 -29q-46 0 -46 70q0 26 21 44q22 15 29 15q12 0 20 -18l14 -8q3 -22 3 -25zM294 621l-4 -18q-30 -43 -75 -43q-32 0 -32 34q0 28 17 51.5t44 23.5q40 0 47 -37z" />
    <glyph glyph-name="divide" unicode="&#xf7;" 
d="M632 -78q0 -39 -6 -57q-16 -49 -103 -99q-33 -18 -112 -46q-20 -4 -47 -4q-53 0 -118 13l-18 13l-30 3l-85 55q-41 27 -41 71q0 36 15 51l37 38l27 -4l9 -24l-22 -35q-7 -11 -7 -23q0 -22 23 -44q20 -19 49 -28l79 -25l128 -6q29 11 89 41q29 18 74 60l6 56l-13 40
q-8 23 -38 38l10 -54l-22 -44l-72 -64l-129 -4q-28 13 -48 24q-51 26 -60 37q-14 17 -27 62l-7 41l10 30q2 6 2 10q0 12 -23 22l-36 15q-36 15 -36 55q0 43 37 61l46 23l-7 21l-6 21q-6 19 11 48q8 14 21 21l34 16l47 23l-13 27l5 27l32 12l39 11l10 21l-29 15h-39
q-20 0 -34.5 11.5t-14.5 30.5q0 26 23 46l27 24l27 29l-11 17l-32 -3l-29 -8q-16 -4 -27 28q0 7 2 12q5 13 19 15l45 7l64 -5q8 -7 14 -13q14 -16 17 -30q2 -7 2 -14q0 -25 -25 -46l-56 -48q41 -8 91 -24q20 -17 29 -63l-30 -39l-52 -20l15 -16q28 3 59 3q72 0 106 -21
q20 -13 38 -52.5t18 -70.5q0 -36 -16 -99l-23 -46l-27 -38l33 2l35 -26l43 -38zM353 274l-19 16l-32 -19q16 -13 23 -13q9 -2 28 16zM423 242l-10 23l-23 7l-15 -35l-50 -12q-7 -2 -14 -2q-36 0 -47 28q-12 30 7 40l45 23l-17 24l-67 -34l-23 -29q-1 -24 3.5 -36t20.5 -31
l61 -18l81 11zM515 236l-30 71l-55 26l-65 3l10 -17l37 -7l31 -12l34 -38l2 -35l-23 -24l-41 -28q-45 -24 -85 -24q-17 0 -53 3l-30 4l10 -37l32 -51l26 -59q8 -19 36 -19q32 0 54 21l34 33l61 105zM491 -19l-22 14l-48 -48l-90 -7l-54 29l-38 83l-9 -32l10 -50
q4 -12 15 -38q23 -39 102 -39q39 0 76 14q23 9 48 48zM226 86l-33 66l-18 21l-21 -11q-6 -3 -6 -13q0 -13 7 -24q17 -24 71 -39z" />
    <glyph glyph-name="oslash" unicode="&#xf8;" horiz-adv-x="567" 
d="M526 444l-21 -19l-12 -16l-31 -20l-5 -15l-7 -12l1 -48l13 -48l-5 -42l-7 -16l-1 -22q-2 -43 -76 -118q-39 -40 -79 -40q-27 0 -86 22t-63 22q-15 0 -46 -37q-40 -48 -56 -60q-8 -6 -18 -6q-14 0 -25 10t-2 28l20 41l52 42q17 14 30 39q12 21 12 32v14l-3 16l4 45l-1 17
q-6 105 126 199q22 15 67 20q73 -42 83 -42q23 0 59.5 45.5t55.5 45.5q14 0 23 -15t9 -33q0 -19 -11 -29zM338 365q-8 45 -42 45q-12 0 -44 -20q-36 -23 -54 -48q-34 -45 -34 -107q0 -37 17 -42q6 -2 54 55l32 42l30 23zM403 263q0 12 -5 26q-7 18 -16 18t-44 -48l-47 -38
l-38 -54l-21 -9l-24 -24q-4 -4 -4 -7q0 -16 54 -32l30 -9l32 11l61 65q22 47 22 101z" />
    <glyph glyph-name="ugrave" unicode="&#xf9;" horiz-adv-x="495" 
d="M417 313l-11 -35l1 -26q1 -13 -11 -32q-18 -30 -28 -53q-19 -45 -44 -82l-27 -17l-27 -22q-21 2 -27 2q-55 0 -107 70q-55 71 -53 148l1 46l-1 30l10 19q3 37 33 37q23 0 23 -18l-3 -139q0 -7 24 -63l13 -15l19 -26q20 -15 40 -15q46 0 60 58l30 30l14 52l1 92
q0 7 10.5 21t22.5 11q7 -1 11.5 -8t9.5 -14t13 -20zM412 553q0 -31 -26 -31q-19 0 -53 24l-15 7l-15 26l-13 15l-8 15l-15 22q-20 14 -20 31q0 34 43 34q5 0 32 -28l12 -11l12 -17l40 -40q26 -26 26 -47z" />
    <glyph glyph-name="uacute" unicode="&#xfa;" horiz-adv-x="495" 
d="M417 313l-11 -35l1 -26q1 -13 -11 -32q-18 -30 -28 -53q-19 -45 -44 -82l-27 -17l-27 -22q-21 2 -27 2q-55 0 -107 70q-55 71 -53 148l1 46l-1 30l10 19q3 37 33 37q23 0 23 -18l-3 -139q0 -7 24 -63l13 -15l19 -26q20 -15 40 -15q46 0 60 58l30 30l14 52l1 92
q0 7 10.5 21t22.5 11q7 -1 11.5 -8t9.5 -14t13 -20zM411 656l-12 -13l-14 -23l-11 -42l-12 -22q-19 -35 -39 -35q-31 0 -31 24q0 12 6 25l8 17l6 18l23 32l9 24q12 32 32 28q12 -4 27 -19z" />
    <glyph glyph-name="ucircumflex" unicode="&#xfb;" horiz-adv-x="495" 
d="M417 313l-11 -35l1 -26q1 -13 -11 -32q-18 -30 -28 -53q-19 -45 -44 -82l-27 -17l-27 -22q-21 2 -27 2q-55 0 -107 70q-55 71 -53 148l1 46l-1 30l10 19q3 37 33 37q23 0 23 -18l-3 -139q0 -7 24 -63l13 -15l19 -26q20 -15 40 -15q46 0 60 58l30 30l14 52l1 92
q0 7 10.5 21t22.5 11q7 -1 11.5 -8t9.5 -14t13 -20zM483 535q2 -3 2 -8q0 -9 -9.5 -18t-17.5 -9q-24 0 -42 22l-13 16l-15 17l-14 13q-10 21 -30 21q-11 0 -22 -19l-16 -27l-14 -23q-13 -22 -42 -22q-18 0 -18 24q0 8 4 14l13 21l15 37l33 59q20 36 45 36q22 0 57 -49
l47 -66l22 -18z" />
    <glyph glyph-name="udieresis" unicode="&#xfc;" horiz-adv-x="495" 
d="M417 313l-11 -35l1 -26q1 -13 -11 -32q-18 -30 -28 -53q-19 -45 -44 -82l-27 -17l-27 -22q-21 2 -27 2q-55 0 -107 70q-55 71 -53 148l1 46l-1 30l10 19q3 37 33 37q23 0 23 -18l-3 -139q0 -7 24 -63l13 -15l19 -26q20 -15 40 -15q46 0 60 58l30 30l14 52l1 92
q0 7 10.5 21t22.5 11q7 -1 11.5 -8t9.5 -14t13 -20zM491 644q0 -26 -10 -49q-12 -29 -31 -29q-46 0 -46 70q0 26 21 44q22 15 29 15q12 0 20 -18l14 -8q3 -22 3 -25zM294 621l-4 -18q-30 -43 -75 -43q-32 0 -32 34q0 28 17 51.5t44 23.5q40 0 47 -37z" />
    <glyph glyph-name="ydieresis" unicode="&#xff;" horiz-adv-x="503" 
d="M448 370q0 -14 -34 -59l-12 -42l-45 -77l-9 -29l-27 -49l-4 -28l-26 -56l-8 -26q-13 -44 -59 -114l-11 -45l-26 -36q-18 -24 -33 -82q-2 -7 -15 -14t-26 -8q-29 -2 -29 26q0 8 33 84l16 37l16 24l34 75l21 23l19 44q20 46 20 77q0 29 -26 67t-66 68q-13 10 -27 22l-21 10
l-15 24q-12 20 -12 31q0 33 14 41q4 2 23 2q6 0 32 -28q37 -41 47 -51q20 -25 41 -51t46 -26q7 0 19 5l37 39l2 15l47 109q16 38 40 38t24 -40zM499 644q0 -26 -10 -49q-12 -29 -31 -29q-46 0 -46 70q0 26 21 44q22 15 29 15q12 0 20 -18l14 -8q3 -22 3 -25zM302 621l-4 -18
q-30 -43 -75 -43q-32 0 -32 34q0 28 17 51.5t44 23.5q40 0 47 -37z" />
    <glyph glyph-name="OE" unicode="&#x152;" horiz-adv-x="953" 
d="M890 629l-7 -28l-17 -19l-39 5l-84 -3l-52 -12l-15 5l-56 -3q-25 -1 -25 -26v-30q-25 -65 -25 -111q0 -20 7 -34t15 -15l27 -2l34 -6q92 22 120 22q49 0 49 -28q0 -16 -7.5 -32.5t-16.5 -17.5l-59 -5l-41 -7l-100 5l-35 -6l-23 -19l-2 -45l-8 -49q-2 -12 -2 -47
q0 -37 23 -35l41 3l42 -5l16 6l63 -4q58 12 77 12q7 0 27 -9v-22q2 -24 -7 -35q-6 -7 -25 -8l-99 -4l-132 -18l-19 6l-48 -3l-51 27q-9 5 -18 5q-5 0 -23 -3.5t-36 -3.5q-105 0 -180.5 44.5t-84.5 107.5l-12 87l8 30l8 51q13 11 65 77q31 43 69 58l70 27l35 22q28 11 84 11
q43 -10 72 -10q36 0 37 21l2 39q1 16 12 30t20 15l118 12q34 -10 54 -8q17 2 44 12h24l26 9l32 -6zM511 419q0 27 -21.5 43t-58.5 16q-22 0 -39 -6l-40 -15l-77 -17q-123 -68 -123 -199q0 -58 40 -96t109 -36l88 3q71 2 80 30q13 42 18 153q1 12 12.5 56.5t11.5 67.5z" />
    <glyph glyph-name="oe" unicode="&#x153;" horiz-adv-x="729" 
d="M660 338q0 -46 -27.5 -81.5t-64.5 -36.5l-87 -3q-54 -2 -63 -24l-28 -72q-5 -13 19 -33q21 -17 48 -26l27 -9h27l46 8l22 -12l18 -5l-8 -37q-2 -7 -33.5 -21t-51.5 -14q-33 0 -63 10l-29 4l-52 45q-9 5 -27 18q-8 7 -21 24q-41 -20 -68 -20q-49 0 -88 33l-32 16l-6 18
l-18 25l-5 18q-6 14 -13 46l-5 79q-3 44 58 105t111 61q14 0 34 -10l81 -40l20 -2l22 8l39 27l26 6l16 3q27 5 43 5q133 0 133 -113zM595 329q0 21 -20.5 37t-52.5 16t-58 -21t-26 -41q0 -29 30 -29q16 0 35 8l66 1q26 11 26 29zM372 253q0 18 -23 59l-18 13l-28 39
q-40 12 -62 12q-45 0 -76.5 -37.5t-31.5 -81.5q0 -49 29 -87t65 -38q45 0 95 40.5t50 80.5z" />
    <glyph glyph-name="Scaron" unicode="&#x160;" horiz-adv-x="566" 
d="M469 563q0 -4 -20 -12l-15 -19q-61 60 -108 60q-59 0 -102 -62l8 -43l19 -25l65 -42l23 -26l32 -21l11 -17l22 -24l15 -50l16 -43q6 -17 6 -34q0 -54 -49 -96t-101 -42q-43 0 -90 10l-41 11l-14 15q-42 23 -42 51q0 46 23 46q5 0 21 -13q19 -16 41 -24q34 -13 82 -13
q42 0 69.5 25t27.5 64q0 20 -11 41l-17 13l-26 37l-34 18q-43 23 -79 67q-42 52 -42 99q0 58 44 100l42 22l21 12q26 5 44 5q71 0 115 -24.5t44 -65.5zM405 817l-32 -43l-20 -38l-16 -19l-17 -23q-9 -13 -32 -13q-18 0 -28 9l-91 79l-7 16l-10 33q-4 13 8 24t26 11
q15 0 33 -23l14 -18l4 -15l20 -27q7 -9 26 -9q12 0 27 18l10 17l9 35q5 33 44 33q12 0 24 -11.5t12 -23.5q0 -7 -4 -12z" />
    <glyph glyph-name="scaron" unicode="&#x161;" horiz-adv-x="490" 
d="M403 382q0 -48 -37 -52l-41 50l-22 10q-78 -10 -78 -58q0 -25 23 -36l58 -27l14 -19l23 -11l17 -45q9 -43 9 -54q0 -47 -19 -78l-9 -25l-54 -30q-32 -24 -76 -24q-67 0 -154 43q-36 18 -36 53q0 9 22 21l23 -5h23l44 -24l24 -1q44 -16 60 -16q29 0 63.5 28.5t34.5 60.5
q0 25 -43 62q-39 28 -78 57q-27 19 -27 49q0 56 20 92l32 30l26 6q45 11 64 11q30 0 62 -24.5t32 -43.5zM374 648l-32 -43l-20 -38l-16 -19l-17 -23q-9 -13 -32 -13q-18 0 -28 9l-91 79l-7 16l-10 33q-4 13 8 24t26 11q15 0 33 -23l14 -18l4 -15l20 -27q7 -9 26 -9
q12 0 27 18l10 17l9 35q5 33 44 33q12 0 24 -11.5t12 -23.5q0 -7 -4 -12z" />
    <glyph glyph-name="Ydieresis" unicode="&#x178;" horiz-adv-x="702" 
d="M640 601l-59 -49l-33 -50l-137 -111l-33 -55v-72l-20 -59l5 -18l-7 -66l8 -41l-5 -21l3 -36q1 -13 -7 -24t-20 -11q-46 0 -45 35l3 74l4 77l8 30l1 53l11 55q-43 36 -133 126q-15 17 -35 55l-32 24l-7 17q-22 32 -22 38q0 36 32 36q19 0 46 -37q42 -57 84 -95l52 -48
q31 -27 42 -27q5 0 7 3l27 42l15 6l35 30l38 45l19 8q16 15 48 49q29 38 61 80q29 32 45 32q26 0 26 -35q0 -39 -25 -60zM623 772q0 -26 -10 -49q-12 -29 -31 -29q-46 0 -46 70q0 26 21 44q22 15 29 15q12 0 20 -18l14 -8q3 -22 3 -25zM426 749l-4 -18q-30 -43 -75 -43
q-32 0 -32 34q0 28 17 51.5t44 23.5q40 0 47 -37z" />
    <glyph glyph-name="florin" unicode="&#x192;" horiz-adv-x="492" 
d="M472 640l-23 -109q-13 -66 -40 -66q-21 0 -24 28l-6 62q-2 22 -24 22q-9 0 -28.5 -23.5t-22.5 -36.5l-15 -63l-21 -31l-25 -96q-1 -4 -1 -9q0 -28 21 -28q10 0 37 5q22 -42 22 -51q0 -17 -34 -24l-68 -15q-10 -2 -37 -53l-8 -32l-63 -129l-18 -20l-15 -54l-20 -28
l-20 -38l-29 -18l-33 -25l-28 -26l-34 10l-4 16l12 28l27 23l33 33l24 20l42 78l10 34l43 76q24 42 24 79q0 23 -14 26l-54 11q-19 4 -19 25q0 41 33 43l78 4q21 1 27 21l14 43l24 78l13 15l22 81q27 98 95 118q15 4 57 4l24 31l31 11l11 -14z" />
    <glyph glyph-name="circumflex" unicode="&#x2c6;" horiz-adv-x="494" 
d="M383 535q2 -3 2 -8q0 -9 -9.5 -18t-17.5 -9q-24 0 -42 22l-13 16l-15 17l-14 13q-10 21 -30 21q-11 0 -22 -19l-16 -27l-14 -23q-13 -22 -42 -22q-18 0 -18 24q0 8 4 14l13 21l15 37l33 59q20 36 45 36q22 0 57 -49l47 -66l22 -18z" />
    <glyph glyph-name="tilde" unicode="&#x2dc;" horiz-adv-x="494" 
d="M435 611l-22 -24l-13 -9l-14 -11q-25 -20 -72 -20q-33 0 -59 23l-36 32q-11 10 -23 10q-10 0 -15 -5t-10 -12l-8 -10l-15 -13q-14 -12 -30 -12q-21 0 -21 24q0 22 16 36l11 24l12 9q38 43 66 43q23 0 38 -20l24 -33q23 -31 52 -31q16 0 70 51q14 2 20 2q14 0 25 -11
t11 -25q0 -10 -7 -18z" />
    <glyph glyph-name="endash" unicode="&#x2013;" horiz-adv-x="707" 
d="M637 289q0 -31 -17 -37q-6 -3 -37 -2l-105 2l-31 -10l-57 9l-141 5l-83 -4l-23 7h-18q-48 0 -48 35q0 10 9 25q11 20 25 19l37 -2l84 4l72 -14q50 6 74 6q21 0 54 -8l16 6l54 -6l79 1q33 0 37 -1q19 -6 19 -35z" />
    <glyph glyph-name="emdash" unicode="&#x2014;" horiz-adv-x="880" 
d="M827 296q0 -28 -52 -32l-123 -10l-31 11l-94 -3l-23 4l-83 5l-147 -3l-93 -12l-32 6h-37q-19 0 -27 8t-8 35q0 37 78 38l163 3l73 7l28 -7l148 2l118 -7l106 8l22 -13q14 -8 14 -40z" />
    <glyph glyph-name="quoteleft" unicode="&#x2018;" horiz-adv-x="291" 
d="M228 404q2 -7 -2 -27v-15l-15 -16q-12 -11 -24 -11q-21 0 -51 18l-44 35l-3 20q-11 29 -11 44q0 87 71 207l14 11l7 12q10 7 16 7q20 0 20 -30q0 -22 -33 -80.5t-33 -88.5q0 -6 10.5 -12t21.5 -6q32 0 56 -68z" />
    <glyph glyph-name="quoteright" unicode="&#x2019;" horiz-adv-x="287" 
d="M210 549q0 -26 -8 -70l-2 -17l-13 -32l-13 -35l-12 -12q-31 -47 -49 -47q-34 0 -34 32q0 9 14 25q17 20 22 30q30 62 30 111q0 23 -11 27q-5 2 -14 3l-14 14l-16 8q-12 25 -12 50q0 21 14.5 36t34.5 15q41 0 64 -46q19 -38 19 -92z" />
    <glyph glyph-name="quotesinglbase" unicode="&#x201a;" horiz-adv-x="289" 
d="M215 1q0 -60 -43 -159l-17 -18l-7 -22l-21 -11l-36 4q-17 2 -17 15q0 20 11 34l27 35l8 25l25 41l3 39q1 13 -29 33q-42 28 -42 67q0 19 17 37t38 18q28 0 46 -19l32 -40l2 -37q3 -13 3 -42z" />
    <glyph glyph-name="quotedblleft" unicode="&#x201c;" horiz-adv-x="469" 
d="M402 422q0 -30 -19.5 -53t-42.5 -23q-10 0 -39 20l-30 20l-6 20q-12 30 -12 47q0 72 33 191q6 21 20.5 37t29.5 16q18 0 18 -24q0 -10 -12 -35q-13 -28 -15 -44q-5 -32 2 -89l36 -12l16 -18l15 -13q6 -25 6 -40zM222 390q0 -31 -17 -49q-13 -14 -27 -14q-35 0 -67 29
t-33 62l-1 62l-6 24l22 56l6 23l9 9l21 45q8 18 17 35.5t21 17.5q23 0 23 -26q0 -13 -5 -24l-38 -86v-16l-9 -27l5 -41l46 -35q33 -25 33 -45z" />
    <glyph glyph-name="quotedblright" unicode="&#x201d;" horiz-adv-x="548" 
d="M480 528q2 -43 -15 -98l-14 -44l-12 -15l-6 -17q-15 -42 -37 -42q-9 0 -17 10t-8 20q0 27 25 84t23 81l-2 30l-20 5l-15 16l-33 21q-12 47 -12 71q0 44 57 44q48 0 69 -56q13 -36 17 -110zM231 472q0 -53 -18 -102q-20 -53 -45 -53q-12 0 -22 8t-10 19q0 12 30 76
q6 38 3 60q-5 36 -7 43q-6 23 -18 21l-32 -4l-28 28l-7 31l12 30l1 19q32 28 41 28q23 0 52 -32l10 -30l21 -32l3 -26q14 -39 14 -84z" />
    <glyph glyph-name="quotedblbase" unicode="&#x201e;" horiz-adv-x="502" 
d="M425 32l-8 -60l-1 -20q-4 -90 -43 -90q-37 0 -37 31q0 5 1 9l5 19v20l11 23l8 26q14 46 -8 59l-32 19q-27 16 -27 56q0 8 7 31l8 25l17 10q26 13 41 13q35 0 46 -23.5t8 -87.5l-2 -37zM201 30q-16 -182 -46 -182q-15 0 -29.5 9t-14.5 21q0 9 3 28l-3 21l11 27l3 41l8 23
q-55 41 -55 74q0 43 23 72q17 20 37 27q6 2 12 2q14 0 24 -8l23 -18v-25z" />
    <glyph glyph-name="dagger" unicode="&#x2020;" horiz-adv-x="419" 
d="M360 439l-5 -14l-12 -10l-9 -13l-39 -4q-36 -4 -37 -117l-1 -81l3 -24l-4 -67l6 -84l-2 -29l4 -27l-3 -30q1 -28 -11.5 -50.5t-30.5 -22.5q-28 0 -28 37l7.5 45.5t7.5 82.5q0 23 -15 93l15 109l-3 51l5 22l-2 36q-2 34 -52 34q-15 0 -44 -9t-37 -9q-11 0 -20 12t-9 28
q0 28 15 34q12 5 69 5q33 0 50 14.5t13 38.5l-10 54l-3 35q-10 72 -10 81q0 31 36 31q9 0 20 -26l2 -17l10 -31l-2 -27l7 -27l7 -46q5 -35 29 -36l51 -3q11 -1 21 -27z" />
    <glyph glyph-name="daggerdbl" unicode="&#x2021;" horiz-adv-x="473" 
d="M427 430q0 -14 -10.5 -31t-24.5 -15l-27 3l-40 -6l-14 3l-18 -1q-31 -2 -33 -32l-4 -60l4 -147l13 -22l21 2l27 -7h18q13 0 26 -18t13 -37q0 -13 -7.5 -22t-19.5 -6l-36 8l-19 -9l-20 1q-24 1 -31 -21q-4 -11 -4 -42v-46q0 -43 -3 -57q-7 -36 -33 -36q-9 0 -16 20l-9 19
l5 40l-2 67l8 24q2 43 -18 43h-35l-41 6q-15 2 -26 12.5t-11 18.5q0 12 22 25t39 13q1 0 12 -1t20 -1q52 0 52 39q0 6 -1 12l-7 42l6 25l2 31l1 29q3 91 -23 92l-34 1l-25 -1l-29 7l-34 5q-20 3 -23 35l15 11l10 13l127 1q25 0 25 43l-8 22l7 32l-2 34l2 13l-6 23l3 17
q2 10 15.5 23t22.5 13t16 -17t8 -37l1 -36l-6 -65l9 -51l16 -12l23 2l21 -4h32l28 -11l14 -2q16 -2 16 -17z" />
    <glyph glyph-name="bullet" unicode="&#x2022;" horiz-adv-x="354" 
d="M276 313q0 -38 -7 -49l-25 -41l-25 -5l-12 -10l-31 1l-17 -2l-54 18q-28 9 -28 72q0 47 29.5 83.5t66.5 36.5q46 0 74.5 -28.5t28.5 -75.5z" />
    <glyph glyph-name="ellipsis" unicode="&#x2026;" horiz-adv-x="869" 
d="M778 52q0 -11 -9 -23l-1 -19l-23 -5q-33 -2 -49 7q-34 20 -34 61q0 54 60 54q33 0 46 -21q9 -16 10 -54zM485 62q-2 -13 -16 -26l-3 -19q-24 -5 -34 -3q-55 13 -55 94q0 43 43 43q21 0 44 -21l15 -15l1 -23q7 -16 5 -30zM176 86q0 -82 -51 -78l-19 12l-8 18l-14 10
q-7 23 -7 30q0 22 19.5 41t41.5 19q15 0 26.5 -16t11.5 -36z" />
    <glyph glyph-name="perthousand" unicode="&#x2030;" horiz-adv-x="1194" 
d="M1118 124q0 -56 -33 -89q-36 -36 -102 -36q-48 0 -89 29q-46 31 -46 76q0 50 32 104q39 66 95 66q5 0 23 -4h23l22 -14q75 -80 75 -132zM783 169q0 -63 -32 -108q-34 -49 -90 -49q-88 0 -135 45q-46 42 -46 115q0 60 35.5 98t97.5 38q80 0 125 -37.5t45 -101.5zM614 594
l-19 -25l-5 -17l-27 -32l-86 -137l-98 -189q-135 -228 -146 -228q-8 0 -16 17l-4 22l59 105l43 95l63 107l6 24l39 60l56 97q79 136 112 136q8 0 14 -18zM356 455q0 -67 -52 -112t-122 -45q-44 0 -74 36t-30 84q0 20 11 70l15 48l24 11q52 39 85 39q27 0 110 -46
q33 -30 33 -85zM1058 115q0 32 -45 89l-22 2l-26 12q-47 -40 -47 -92q0 -28 18 -43.5t45 -15.5q30 0 53.5 12t23.5 36zM717 180q0 26 -36.5 52.5t-65.5 26.5q-7 0 -20 -3l-12 -15l-20 -8q-23 -10 -23 -64q0 -34 30.5 -62.5t68.5 -28.5q36 0 58 32q20 29 20 70zM288 462
q0 27 -24.5 47t-51.5 20q-36 0 -58.5 -31.5t-22.5 -71.5q0 -26 19.5 -45.5t46.5 -19.5q38 0 64.5 30.5t26.5 70.5z" />
    <glyph glyph-name="guilsinglleft" unicode="&#x2039;" horiz-adv-x="439" 
d="M386 464q0 -26 -30 -45l-49 -31l-15 -20l-60 -27l-34 -23q-26 -18 -26 -46q0 -16 10 -28l92 -105q17 -19 17 -33q0 -40 -55 -40q-14 0 -32 27l-26 46l-18 30l-16 7l-28 27q-38 37 -38 80q0 45 52 71l71 35l89 68l43 15q26 16 39 16q14 0 14 -24z" />
    <glyph glyph-name="guilsinglright" unicode="&#x203a;" horiz-adv-x="371" 
d="M318 274q0 -18 -20.5 -38t-40.5 -38l-58 -55l-23 -42q-10 -19 -28 -34l-27 -6l-12 11l-14 8q0 15 2 28q5 30 17 44q7 8 50 48q32 30 38 44l9 21l-61 47l-74 36l-9 19q-2 4 -2 9q0 12 11 22.5t24 10.5q20 0 50 -32l50 -21l16 -8l19 -5l36 -25l17 -8q30 -14 30 -36z" />
    <glyph glyph-name="trademark" unicode="&#x2122;" horiz-adv-x="809" 
d="M737 406l-5 -21l1 -17l-21 -19l-23 1q-7 4 -15 27l-3 70q-1 26 -15 53q-7 17 -19 41l-22 -30l-12 -32l-15 -16q0 -9 -6 -26q-16 -32 -47 -69q-21 -25 -34 -25q-22 0 -22 61q0 8 3 20t3 20q0 11 -7 21t-15 10q-24 0 -26 -17l-4 -30l-17 -30l-7 -31q-7 -29 -30 -29
q-21 0 -21 33q0 70 40 137l22 37l23 67l2 27q2 10 29 22l14 -11l16 -11l4 -37l13 -23l1 -32q1 -43 20 -43q8 0 30 46l44 94q22 47 42 47q17 0 39 -73l4 -54l29 -104zM340 635q0 -37 -23 -41l-18 -3l-19 -6l-22 2q-22 2 -22 -70q0 6 -2 -48q-2 -42 0 -71q0 -6 -2 -21t-2 -20
q0 -23 -2 -30t-14 -16l-33 -17l-19 19l5 32l4 67q22 63 22 137q0 16 -7 27.5t-16 11.5l-48 2l-24 9l-33 5l-6 29q22 32 44 32q12 0 37.5 -2.5t44.5 -2.5q7 0 32.5 3.5t44.5 3.5q78 0 78 -32z" />
  </font>
</defs>
</svg>
